<svg width="1923" height="885" viewBox="0 0 1923 885" fill="none" xmlns="http://www.w3.org/2000/svg">
<path fill-rule="evenodd" clip-rule="evenodd" d="M24.7135 0C5.60149 50.1721 -4.89748 101.665 2.25441 156.293C18.1437 277.659 106.119 367.845 193.733 457.661C222.025 486.664 250.279 515.629 276.056 545.592C302.255 576.045 327.014 608.995 351.811 641.997C427.357 742.536 503.259 843.551 621.296 875.863C716.774 902 808.766 864.067 902.479 825.423C962.211 800.792 1022.64 775.873 1085.12 767.073C1160.04 756.52 1238.75 764.708 1316.54 772.801C1444.72 786.135 1570.41 799.211 1672.57 727.785C1839.53 611.05 1903.3 385.816 1920.74 182.839C1926.06 120.902 1921.71 59.9528 1910.49 0H24.7135Z" fill="url(#paint0_linear_2110_2261)"/>
<defs>
<linearGradient id="paint0_linear_2110_2261" x1="1.55202e-05" y1="108.794" x2="1730.9" y2="944.615" gradientUnits="userSpaceOnUse">
<stop stop-color="#FD6B221a"/>
<stop offset="0.567371" stop-color="#FD6B221a"/>
</linearGradient>
</defs>
</svg>
