<svg xmlns:xlink="http://www.w3.org/1999/xlink" xmlns="http://www.w3.org/2000/svg" viewBox="0 0 2000 2000" width="360" height="360"><defs><clipPath id="a"><path fill="none" d="M401.31 614.493s40.137 185.819 118.924 304.195c46.362 69.635 237.755-10.546 260.424 24.481s-124.22 185.689-124.22 185.689c-53.515 15.785-227.348-26.758-270.086-139.615-43.017-113.851-53.609-344.526-53.609-344.526-32.611 7.739-68.66-3.754-84.082-26.684 69.773 6.847 111.026-20.394 106.1-38.149-17-61.756 1.3-64.655 14.216-53.906 35.957 29.796 32.333 88.515 32.333 88.515Z"></path></clipPath><clipPath id="b"><path fill="none" d="M818.752 932.383c27.129-2.37 60.855-15.711 72.561-44.532l65.873 43.826a97.257 97.257 0 0 0-17.745 22.456c-8.455 14.326-13.843 30.474-13.287 42.153-39.954 56.294-109.632 71.354-107.402-63.903Z"></path></clipPath><clipPath id="c"><path fill="none" d="M1075.312 973.2c78.94 25.726 47.53 182.519-21 150.353l-82.365 157.03c213.6 47.031 322.568-325.86 194.784-462.43Z"></path></clipPath></defs><path fill="#F0EFF4" fill-rule="evenodd" d="M1471.329 640.533c96.347 3.958 222.529-99.66 171.651-162.881-96.1-119.36-165.791 27.687-253.822-9.6-98.8-41.824-182.665 93.585-115.681 113.637 164.443 49.226 141.223 56.519 197.852 58.844Z" class="colorf0eff4 svgShape"></path><path fill="#F0EFF4" fill-rule="evenodd" d="M1077 1540.594c258.38 321.2 917.811 44.98 428.694-723.257C1141.819 246.16 956.405 901.465 623 725.674c-374.17-197.207-413.91 356.194-294.495 501.671 338.867 412.729 446.324-61.896 748.495 313.249Z" class="colorf0eff4 svgShape"></path><path fill="#DAD8E4" d="M571.084 1455.855c3.716-13.264-3.5-28.089-2.833-40.517 1.314-19.414 17.317-31.69 31.835-38.659 5.084-2.6 10.56-4.542 15.7-6.791 1.3-.927 3.784-1.676 4.411-3.223l.281-.044a232.789 232.789 0 0 0 27.872 25.024c4.272 3.323 8.489 6.292 12.707 9.26a1.454 1.454 0 0 0 1.183.179c2.546-2.208-1.224-4.159-2.8-5-2.587-1.773-4.892-3.589-7.871-6.026-13.719-10.19-27.486-22.547-37.922-35.785-.055-.354.171-.751.116-1.105-.832-3.495-1.665-6.99-2.215-10.529a2.594 2.594 0 0 0 .062-1.46c.461-2.609 1.2-5.261 1.721-7.517a45.845 45.845 0 0 1 10.216-17.9c6.509-6.449 12.165-10.953 19.788-13.951 13.154-4.583 28.49-4.431 42.106-11.623 16.9-10.239 31.842-25.612 43.469-43.731 5.106-8.043 9.537-16.706 10.817-27.054.7-6.633 1.686-13.31.075-19.947-3.164-12.918-8.779-4.434-14.654-1.345-7.575 5.165-19.155 10.59-29.034 13.939-25.863 10.184-51.237 25.366-69.264 50.642a94.27 94.27 0 0 0-19.65 51.988 116.843 116.843 0 0 0 .915 26.317 57.4 57.4 0 0 0 1.383 7.034c-9.254-13.059-16.98-27.443-25.779-41.3-1.907-2.966-4.094-5.888-5.945-8.5l-.11-.708c-.392-.663-.84-1.681-1.231-2.345 2.284-7.605-.592-37.241-.241-40.558.5-13.489 5.588-30.953 10.142-42.535 6.709-14.454 14.6-28.73 18.721-44.957 7.714-26.571 10.473-55.272 11.766-84.107.792-15.347 2.994-30.912 2.884-46.481-.441-2.831-2.972-4.25-3.888-.845-1.706 3.89-3.976 7.868-5.965 11.8-13 22.319-32.626 39.145-39.61 66.691-9.371 32.628-4.039 68.77-4.17 103.224-.048 12.693-1.845 25.3-1.556 38.3a113.329 113.329 0 0 0 5.794 33.532l-8.422-9.564a8.691 8.691 0 0 0-1.232-2.345 22.083 22.083 0 0 1-1.569-2.656 86.128 86.128 0 0 1-8.365-24.071c-4.362-24.331-2.621-52.149.737-75.144 1.665-22.731 26.091-114.607-2.365-119.243-28.243-1.407-18.667 45.311-17.738 68 2.105 24.683-4.913 46.434-5.347 71.511a125.638 125.638 0 0 0 15.769 64.24c-9.44-8.681-19.107-16.964-28.773-25.247l-.055-.354c-2.745-19.508-7.52-39.063-16.477-55.793l-.276-1.769c-.666-2.434-1.107-5.265-1.774-7.7a171.337 171.337 0 0 1-3.44-29.549c-.577-55.728-3.514-113.627-24.911-165.756-7.43-18.055-15.48-36.375-27.493-50.455-6.178-6.289-13.265-10.986-20.3-15.329-9-4.037-9.763 2.243-7.712 11.71 1.423 11.015 3.185 22.34 4.327 33.4 3.557 28.443 3.776 59.58 8.737 89.618 5.18 31.453 18.321 60.218 33.67 86.465 8.965 14.917 20.647 26.873 30.857 40.509a127.408 127.408 0 0 1 16.711 38.721 158.773 158.773 0 0 1 4.424 22.872l-27.984-23.913c-10.905-8.816-22.264-16.836-32.77-26.8-6.743-6.2-13.258-12.8-19.774-19.4-.11-.707-.5-1.372-.556-1.725-3.565-11.77-8.188-26.636-13.609-39.2-11.772-32.965-31.627-60.324-50.3-87.5-14.186-20.629-29.619-39.976-45.277-58.926s-31.828-37.458-49.64-53.536c-2.023-1.86-6.97-5.8-8-1.292 1.445 5.574 4.19 10.222 5.917 15.752 4.018 10.974 7.072 23.185 10.746 35.662a424.239 424.239 0 0 0 53.457 117.1c10.988 16.777 23.221 32.273 37.607 44.9 14.332 12.269 30.2 21.4 46.351 28.675 4 1.553 7.878 4.212 11.992 4.659.565-.088.51-.441.682-1.193a520.947 520.947 0 0 0 39.05 35.609 80.822 80.822 0 0 1-9.164 7.95c-.619-.266-1.41.219-1.974.307a26.627 26.627 0 0 1-8.862 2.465c-6.825.7-15.384-2.319-23.214-4.364-10.643-3.419-19.2-6.437-29.384-12.465-9.846-5.718-18.893-13.735-28.855-18.348-23.586-10.468-48.616-11.649-73.027-12.565-33.375-.971-66.647.578-100.243-1.809-6.144-.494-2.332 5.438 1.328 6.681 11.31 5.852 22.457 10.643 33.54 16.894 20.593 11.658 39.058 33.8 62.086 42.538 31.525 13.22 62.7.036 93.384-3.287 20.366-2.8 41.777 1.115 61.7-4.521 8.524-2.775 15.652-8.958 22.78-15.141.736-.839 1.81-1.369 2.546-2.208l7.925 6.379c5.339 4.606 10.961 9.169 16.3 13.776-4.912 1.851-9.487 4.012-14.056 4.36-12.013.781-24.011-2.065-35.97-.93-27.581 2.839-55.082 13.64-75.97 35.374-10.08 11.354-15.44 27.049-22.485 41.193-4.83 9.812-9.819 16.75-17.51 23.02a62.639 62.639 0 0 1-9.667 6.578c-.846.132-1.637.617-2.2.7a2.209 2.209 0 0 0 .159 2.875 1.9 1.9 0 0 0 2.649.313c.563-.088 1.073-.529 1.355-.573a23.525 23.525 0 0 0 4.74-1.1c20.82-3.6 41.591-9.368 62.466-12.614 19.291-2.275 39.257-3.93 55.825-16.293 7.747-5.917 13.307-14.756 19.595-22.62q15.554-19.817 31.952-39.765a21.154 21.154 0 0 0 4.6-9.415 20.316 20.316 0 0 0 .811-5.926q23.438 19.734 46.193 40.661l1.686 1.55c.056.354.337.31.674.62 10.844 10.275 20.558 20.725 29.192 33.518-14.139-3.6-27.368-23.653-43.069-31.722-20.709-10.553-50.569-1.922-52.826 28.15-1.314 19.415 7.574 39.418 4.182 56.618-.984 6.677-2.587 13.089-4.19 19.5-.461 2.609-1.2 5.261-.537 7.695 2.285 7.256 8.732 2.267 11.786-.383 9.955-8.435 14.69-22.582 20.152-35.755 6.089-14.721 14.2-27.581 27.239-31.058 12.921-2.372 29.771.082 42.712 7.131 3.433 1.641 7.087 4.7 10.637 5.232a283.6 283.6 0 0 0 19.065 27.844c1.066 1.284 2.414 2.524 3.48 3.808-23.908.456-45.938 11.132-60.909 33.757-11 14.759-9.654 47.534 3.769 61.395 4.603 5.435 9.509 5.395 11.503-.35Z" class="colordad8e4 svgShape"></path><path fill="#DAD8E4" d="M600.349 1252.661c11.353-11.476 14.632-30.793 22.941-43.151 13.2-19.152 34.11-22.6 50.475-21.463 5.832.233 11.575 1.37 17.232 2 1.655-.209 4.178.442 5.662-.787l.26.116a276.7 276.7 0 0 0 7.45 41.558c1.463 5.845 3.1 11.294 4.738 16.744.086.511.607.743.868.859 3.485-.811 1.583-4.962.8-6.725-1.035-3.293-1.809-6.471-2.754-10.668-5-18.275-8.677-38.8-9.053-58.326.175-.394.611-.672.786-1.066 1.493-4.058 2.985-8.116 4.738-12.058a3.674 3.674 0 0 0 .963-1.461c2.009-2.411 4.279-4.707 6.114-6.723a54.713 54.713 0 0 1 19.627-12.519c9.412-2.9 16.9-4.286 25.084-3.009 13.747 2.809 26.345 11.717 42.1 12.114 20.376-.853 42.338-8.084 63.269-20.022 9.245-5.332 18.319-11.684 25.836-21.561 4.721-6.4 9.7-12.683 12.511-20.4 5.444-15.049-4.5-9.555-11.289-9.742-9.492.972-22.462-.075-32.729-2.28-27.76-4.319-58.236-3.236-88.93 12.387-17.7 8.182-35.153 22.139-48.708 42.08a168.241 168.241 0 0 0-15.667 27.5 83.162 83.162 0 0 0-3.246 8c.492-18.668 3.074-37.823 4.438-57.047.274-4.128.286-8.372.385-12.105l.351-.789c.089-.9.354-2.2.444-3.107 6.637-6.492 22.753-38.514 25.113-41.714 8.834-13.541 23.942-28.541 34.939-37.815 14.574-10.989 30.014-21.12 43.552-35.4 22.967-22.837 43.162-50.684 62.229-79.506 10.232-15.279 21.769-29.979 31.394-46 1.4-3.153.193-6.052-2.69-3.085-3.839 3.014-8.2 5.8-12.3 8.694-24.685 15.462-51.432 21.509-74.4 45.761-28.12 28.1-46.262 68.192-67.873 103.436-7.962 12.985-17.314 24.879-25.19 38.374a164.166 164.166 0 0 0-16.133 37.681l-1-14.61a12 12 0 0 0 .445-3.107 29.536 29.536 0 0 1 .359-3.618 122.855 122.855 0 0 1 8.1-29.45c11.574-27.431 30.376-54.954 47.506-76.61 15.564-22.352 93.119-102.6 72.461-123.587-22.5-17.56-43.727 35.8-57.12 59.586-13.661 26.5-33.044 44.8-49.054 70.255-14.521 22.816-24.091 49.251-27.041 74.852-2.395-14.285-5.226-28.293-8.056-42.3l.175-.394c9.9-21.566 18.155-44.336 21.182-66.6l.877-1.971c.967-2.875 2.369-6.029 3.335-8.9a248.145 248.145 0 0 1 15.595-32.254c34.3-57.458 68.005-118.487 82.83-184.135 5.118-22.749 9.89-46.123 8.734-67.412-1.189-9.972-4.122-18.832-7.231-27.3-4.934-9.277-9.48-3.272-13.692 7.6-5.7 12.1-11.306 24.718-17.262 36.706-14.807 31.187-34.058 63.232-48.7 96.855-15.342 35.2-22.418 72.186-26.1 107.851-1.889 20.407.318 39.331.258 59.135a179.087 179.087 0 0 1-10.335 49.231 229.961 229.961 0 0 1-10.613 25.97l-8.236-40.492c-3.523-15.259-7.919-29.963-10.395-46.173-1.711-10.205-2.986-20.687-4.26-31.169.35-.789.441-1.693.616-2.087 4.395-14.1 9.847-31.977 13.2-47.954 10.83-40.511 11.471-79.888 12.98-118.406 1.133-29.243.435-57.883-.7-86.245s-2.965-56.562-7.673-83.208c-.513-3.061-2.147-9.926-5.815-5.892-2.284 6.539-2.912 12.87-4.935 19.525-3.523 13.543-8.616 27.8-13.362 42.69-16.432 50.3-26.164 101.684-28.836 150.545-1.376 23.468-.923 46.334 3.105 67.484a206.11 206.11 0 0 0 20.467 55.846c2.339 3.874 3.891 8.814 7.017 11.62.522.232.7-.162 1.309-.834 2.639 20.06 5.713 39.842 10.1 58.789a80.423 80.423 0 0 1-12.546 2.919c-.346-.626-1.3-.58-1.826-.812-3.917-.326-5.482-1.022-8.873-2.53-6.085-3.178-11.284-11.157-16.489-17.721-6.674-9.578-11.874-17.557-16.54-29.547-4.579-11.481-7.065-24.862-12.431-35.275-12.987-24.191-32.965-39.686-52.6-54.555C525.608 773.7 497.1 756.3 470.788 734.68c-4.776-4.013-5.323 4.243-3.07 7.606 5.709 12.454 11.944 23.726 17.216 36.459 9.768 23.7 11.234 56.934 24.837 79.037 17.84 31.543 51.87 35.818 79.34 49.923 18.605 8.747 33.879 24.984 53.887 30.577 8.788 2.019 18.546-.251 28.3-2.522 1.133-.44 2.352-.37 3.485-.811q1.288 5.532 2.578 11.063c1.544 7.769 3.349 15.654 4.892 23.423-5.221-.906-10.356-1.3-14.354-3.551-10.43-6.055-18.584-15.82-29.19-21.481-24.6-12.83-54.1-17.451-84.952-7.092-15.429 5.887-29.66 18.917-44.317 29.4-10.122 7.3-18.58 11.567-28.86 13.606a58.575 58.575 0 0 1-12.105 1.226c-.783-.348-1.741-.3-2.263-.534a3.076 3.076 0 0 0-1.663 3.038 1.736 1.736 0 0 0 2 1.832c.522.232 1.219.07 1.479.186a19.623 19.623 0 0 0 4.61 1.578c19.478 8.191 40.268 14.132 59.571 22.717 17.387 8.677 34.944 18.374 56.372 15.155 10.1-1.644 20.222-7.532 30.334-12.006q25.24-11.437 51.262-22.529a26.016 26.016 0 0 0 9.685-7.025 28.218 28.218 0 0 0 4.37-5.611q7.082 33.6 12.855 68.043l.428 2.551c-.175.394.085.51.171 1.021 2.562 16.72 4.08 32.977 3.242 51.018-9.455-11.759-7.89-39.865-15.848-57.1-10.554-22.636-40.654-30.829-61.289-1.289-13.2 19.152-18.332 44.73-31.874 60.426-4.981 6.284-10.309 11.941-15.637 17.6-2.01 2.412-4.28 4.707-5.247 7.582-2.638 8.743 5.812 7.307 9.994 6.333 13.5-2.965 26.251-14.766 38.993-25.152 14.226-11.615 28.966-20.169 41.927-16.294 12.174 4.943 24.588 17.074 30.9 31.685 1.817 3.641 2.933 8.859 5.537 11.434a376.343 376.343 0 0 0-1.6 39.423c.081 1.925.423 3.965.5 5.89-20.072-13.176-44.968-14.8-71.479-.155-18.31 8.855-37.654 43.219-35.2 65.087.422 8.207 4.506 10.968 9.744 6.214Z" class="colordad8e4 svgShape"></path><g fill-rule="evenodd"><path fill="#938EB8" d="M1443.4 732.86a39.808 39.808 0 0 0-21.958-35.594l-384.635-192.318a39.8 39.8 0 0 0-57.692 35.608v871.128a39.843 39.843 0 0 0 22.043 35.637l384.642 192.318a39.8 39.8 0 0 0 57.606-35.651Z" class="color938eb8 svgShape"></path><path fill="#A9A5C6" d="M1410.892 749.114a39.806 39.806 0 0 0-21.958-35.593L1004.3 521.2a39.8 39.8 0 0 0-57.692 35.607v871.129a39.841 39.841 0 0 0 22.043 35.636l384.637 192.318a39.8 39.8 0 0 0 57.606-35.65Z" class="colora9a5c6 svgShape"></path><path fill="#FFFFFF" d="M1380.284 815.016a39.814 39.814 0 0 0-21.957-35.594l-354.061-177.03a39.843 39.843 0 0 0-57.67 35.62v708.732a39.847 39.847 0 0 0 22.038 35.634l354.061 177.03a39.843 39.843 0 0 0 57.589-35.66Z" class="colorfff svgShape"></path><path fill="#EFEEF4" d="M1254.482 911a32.693 32.693 0 0 0-18.1-29.283l-204.663-102.331a12.526 12.526 0 0 0-18.139 11.2v.034a32.751 32.751 0 0 0 18.094 29.283l204.713 102.356a12.526 12.526 0 0 0 18.1-11.217ZM1323.337 1284.941a42.36 42.36 0 0 0-23.425-37.931L1025.889 1110a15.942 15.942 0 0 0-23.128 14.262v.019a42.434 42.434 0 0 0 23.425 37.931l274.083 137.042a15.941 15.941 0 0 0 23.068-14.293ZM1313.321 1369.8a42.36 42.36 0 0 0-23.425-37.931l-274.023-137.011a15.942 15.942 0 0 0-23.128 14.263v.019a42.433 42.433 0 0 0 23.426 37.93l274.082 137.042a15.941 15.941 0 0 0 23.068-14.293ZM1313.329 835.137a32.725 32.725 0 0 0-18.067-29.269L1031.7 674.088a12.533 12.533 0 0 0-18.123 11.2v.034a32.749 32.749 0 0 0 18.123 29.3l263.5 131.752a12.475 12.475 0 0 0 18.123-11.2ZM1338.079 1194.418a42.421 42.421 0 0 0-23.445-37.941l-288.745-144.372a15.98 15.98 0 0 0-23.135 14.259v.019a42.423 42.423 0 0 0 23.445 37.941l288.808 144.4a15.914 15.914 0 0 0 23.072-14.291Z" class="colorefeef4 svgShape"></path></g><ellipse cx="301.005" cy="441.275" fill="#9C7192" rx="184.35" ry="112.57" transform="rotate(-64.161 301.006 441.276)" class="color9c7192 svgShape"></ellipse><ellipse cx="327.465" cy="450.653" fill="#77536F" rx="184.35" ry="112.57" transform="rotate(-64.161 327.466 450.653)" class="color77536f svgShape"></ellipse><path fill="#FFFFFF" d="M277.319 505.779v11.109l-52.767 26.383a41.45 41.45 0 0 1 5.146-14.5c2.858-5.268 8.494-13.069 16.908-23.565 6.78-8.455 10.946-13.887 12.5-16.541 2.042-3.472 3.1-6.453 3.1-8.9q0-4.042-2.695-4.779c-1.8-.571-4.329-.041-7.515 1.552a20.276 20.276 0 0 0-7.433 6 16.98 16.98 0 0 0-3.268 9.149l-14.948 6.33a32.907 32.907 0 0 1 8.414-18.5 58.984 58.984 0 0 1 17.644-13.151c7.759-3.88 13.8-5.269 18.215-4.125s6.7 4.166 6.7 9.149a24.233 24.233 0 0 1-1.961 9.066 62.731 62.731 0 0 1-5.962 10.987c-1.879 2.817-5.147 7.066-9.884 12.946s-7.76 9.68-8.986 11.437a39.723 39.723 0 0 0-3.1 4.9ZM316.935 497.08V484.5l-32.1 16.051v-10.537l34.065-56.892 12.579-6.29v39.78l9.721-4.86v10.619l-9.721 4.86v12.579Zm0-23.2v-21.4l-18.052 30.427ZM343.563 484.909 363 410.251l11.272-5.636-19.6 74.74ZM378.851 415.478v-11.19l51.378-25.688v8.739a137.253 137.253 0 0 0-12.906 20.829 128.664 128.664 0 0 0-10.046 24.955c-2.288 8.168-3.431 15.03-3.35 20.461l-14.54 7.27c.246-8.78 2.533-18.745 6.7-29.814a162.969 162.969 0 0 1 16.99-32.673Z" class="colorfff svgShape"></path><path fill="#FFC299" fill-rule="evenodd" d="M401.31 614.493s40.137 185.819 118.924 304.195c46.362 69.635 237.755-10.546 260.424 24.481s-124.22 185.689-124.22 185.689c-53.515 15.785-227.348-26.758-270.086-139.615-43.017-113.851-53.609-344.526-53.609-344.526-32.611 7.739-68.66-3.754-84.082-26.684 69.773 6.847 111.026-20.394 106.1-38.149-17-61.756 1.3-64.655 14.216-53.906 35.957 29.796 32.333 88.515 32.333 88.515Z" class="colorffc299 svgShape"></path><g fill-rule="evenodd" clip-path="url(#a)"><path fill="#FE9400" d="M285.545 774.121c-.558-35.055 49.893 4.143 104.058-15.312 24.342-8.733 19.047-22.056 31.683-28.736 30.752-16.316 95.789-1.608 133.882 22.892 82.318 52.959 325.461 217.269 359.931 294.821 31.031 69.839-79.345 150.884-153.208 170.507-86.592 22.986-286.533 41.456-365.969-32.574-79.345-74.019-109.355-340.448-110.377-411.598Z" class="colorfe9400 svgShape"></path><path fill-opacity="0.1" d="M330.141 643.666C345.285 691.18 370.372 818.2 392.3 881.988c76.092 221.738 223.539 190.511 269.9 204.82-29.266 47.885-56.861 159.5-96.161 160.649-91.33 2.676-185.447-27.891-251.134-92.835-61.227-60.586-97.276-145.933-117.437-228.436-24.807-101.495-40.694-175.051 79.251-219.248Z"></path></g><path fill="#FE9400" fill-rule="evenodd" d="M625.872 1379.723c144.845-115.533-57.975-321.671 103.965-431.1 93.463-63.178 216.763 53.469 216.763 53.469s1.208 298.435 0 419.449c-81.2-23.013-152.371-14.261-217.037-3.688-125.896 20.561-103.691-38.13-103.691-38.13Z" class="colorfe9400 svgShape"></path><path fill-rule="evenodd" d="M1041.919 795c21.649-28.987 35.4 4.014 27.966 20.933-37.907 86.415-37.721 69.208-36.049 92.371 1.766 24.574 1.58 56.646-24.249 59.722-26.014 3.094 1.58 53.357-36.792 51.9-32.518-1.236-24.435-73.008-57.046-82.364-18.024-5.185 8.455-33.8 10.4-52.383 2.7-25.959 18.861-32.778 30.01-56.358 8.269-17.477 18.675-36.365 33.54-49.15 7.433-6.429 16.724-11.706 26.573-8.315Z"></path><path fill="#FFC299" fill-rule="evenodd" d="M818.752 932.383c27.129-2.37 60.855-15.711 72.561-44.532l65.873 43.826a97.257 97.257 0 0 0-17.745 22.456c-8.455 14.326-13.843 30.474-13.287 42.153-39.954 56.294-109.632 71.354-107.402-63.903Z" class="colorffc299 svgShape"></path><g clip-path="url(#b)"><path fill-opacity="0.1" fill-rule="evenodd" d="M866.507 906.786c8.919.316 17.838 8.018 23.971 13.751 8.083 7.59 51.1 40.88 18.86 100.416-8.362 15.5 32.426 23.571 49.614 8.408 13.285-11.771 19.231-29.935 22.019-46.9 6.133-36.384-.743-80.45-27.13-107.961-24.9-25.978-71.26-35.845-90.586 1.626Z"></path></g><ellipse cx="968.331" cy="827.447" fill="#FFC197" fill-opacity="0.98" rx="116.119" ry="80.487" transform="rotate(-63.689 968.334 827.447)" class="colorffc197 svgShape"></ellipse><path fill-rule="evenodd" d="M948.427 765.321s23.86 25.947 27.636 30.8c19.159 24.54 58 25.1 84.457 13.229 7.132-3.192 12.613-10.9 16.856-16.933 13.342-18.852 22.648-45.515 13.409-68.017-7.132-17.214-28.507-33.152-47.587-25.546-.667-27.508-26.754-46.845-53.132-36.743-16.893 6.476-26.734 20.708-32.117 37.452-3.607-11.037-12.114-21.128-18.914-30.253-12.224-16.31-27.695-31.685-46.261-40.604-34.085-16.387-75.444-8.132-100.283 20.46-10.8-8.577-20.525-15.329-34.47-18.725-91.742-22.317-168.7 120.4-91.184 180.015 9.5 7.277 20.088 11.939 31.512 15.2-4.241 6.008-4.216 14.492-2.765 21.434 4.089 20.221 12.333 45.518 35.416 60.14 21.756 13.818 66.69 24.2 92.143-16.466 10.023 17.8 44.943 21.5 60.665 17.409 19.359-5.068 42.2-48.331 43.343-79.484.592-16.077 6.355-64.389 21.276-63.368Z"></path><ellipse cx="1173.329" cy="1205.681" fill-opacity="0.1" rx="166.131" ry="39.557" transform="rotate(-86.078 1173.327 1205.68)"></ellipse><path fill="#77536F" fill-rule="evenodd" d="M1075.312 973.2c78.94 25.726 47.53 182.519-21 150.353l-82.365 157.03c213.6 47.031 322.568-325.86 194.784-462.43Z" class="color77536f svgShape"></path><g clip-path="url(#c)"><path fill-opacity="0.1" fill-rule="evenodd" d="M1087.448 1003.453c22.762 9.123 56.3-1.5 73.4-17.188 7.805-7.071 13.287-15.971 19.047-24.668 1.208-1.83 4.738-8.529 7.8-5.993 5.11 4.284 2.045 18.675 1.487 23.981-2.323 23.58-4.646 47.8-10.5 70.806-5.946 23.041-15.98 43.992-28.245 64.275a272.723 272.723 0 0 1-32.7 43.416c-21.276 23.153-45.805 41.772-78.323 41.428-15.423-.167-29.916-9.959-44.6-13.871-29.358-7.8-61.97-1.013-86.312 17.012-44.69 33.094-82.782 111.2-28.71 153.895 11.057 8.752 24.529 14.689 37.908 18.991 33.168 10.684 69.217 7.739 102.85.947 37.35-7.507 73.585-19.725 106.846-38.232 35.306-19.613 68.474-43.379 97.555-71.475 102.758-99.395 165.286-267.514 92.166-401.351-11.706-21.564-27.223-42.924-47.2-57.631-55.281-40.834-132.21-44.16-187.491-1.347-38.557 29.87-58.626 76.8-68.288 123.421Z"></path></g><path fill="#BB9EB5" fill-rule="evenodd" d="M1141.211 777.841c-25.228-15.526-93.8 95.4-100.275 140.233-3.728 25.865 22.746 63.471 51.013 54.644s63.513-50.657 78.663-93.372c15.13-42.658 6.269-79.537-29.401-101.505ZM1020.961 1093.241c-29.431 3.534-74.377 85.6-89.527 128.315-15.13 42.657 23.544 66.283 51.81 57.457s63.514-50.657 78.664-93.373c15.129-42.658-10.968-95.897-40.947-92.399Z" class="colorbb9eb5 svgShape"></path><ellipse cx="984.829" cy="1174.748" fill="#DCCDD9" rx="93.101" ry="39.533" transform="rotate(-59.025 984.816 1174.744)" class="colordccdd9 svgShape"></ellipse><ellipse cx="1097.063" cy="858.243" fill="#DCCDD9" rx="93.101" ry="39.533" transform="rotate(-59.025 1097.051 858.24)" class="colordccdd9 svgShape"></ellipse><g fill-rule="evenodd"><path fill="#BB9EB5" d="M990.355 1728.446a133.6 133.6 0 0 0 28.337 3.346 3.718 3.718 0 1 0 .093-7.434 127.389 127.389 0 0 1-26.85-3.167 3.713 3.713 0 1 0-1.58 7.255Zm47.477 2.054a132.239 132.239 0 0 0 27.686-7.219 3.71 3.71 0 0 0-2.6-6.95 124.8 124.8 0 0 1-26.2 6.81 3.6 3.6 0 0 0-3.066 4.209 3.677 3.677 0 0 0 4.18 3.15Zm-91.7-19.251a159.269 159.269 0 0 0 25.271 11.66c.186.084.465.158.651.242a3.689 3.689 0 0 0 4.739-2.258 3.644 3.644 0 0 0-2.231-4.748 4.945 4.945 0 0 1-.65-.232 152.9 152.9 0 0 1-24.063-11.121 3.641 3.641 0 0 0-5.018 1.384 3.705 3.705 0 0 0 1.299 5.073Zm136.762 4.19a190.05 190.05 0 0 0 23.972-15.153 3.708 3.708 0 1 0-4.368-5.993 181.5 181.5 0 0 1-23.134 14.568 3.733 3.733 0 0 0 3.53 6.578Zm-174.114-33.206a180.637 180.637 0 0 0 21.463 18.647 3.7 3.7 0 1 0 4.367-5.983 177.761 177.761 0 0 1-20.533-17.867 3.713 3.713 0 1 0-5.3 5.2Zm212.856 6.328c7.061-6.021 13.936-12.478 20.626-19.2a3.83 3.83 0 0 0 0-5.258 3.759 3.759 0 0 0-5.3.018 334.22 334.22 0 0 1-20.161 18.8 3.717 3.717 0 0 0 4.831 5.65ZM880.072 1644.7a195.745 195.745 0 0 0 16.166 23.367 3.679 3.679 0 0 0 5.2.576 3.725 3.725 0 0 0 .558-5.231 193.951 193.951 0 0 1-15.516-22.484 3.719 3.719 0 1 0-6.41 3.772Zm275.1 11.112c6.318-6.866 12.45-13.909 18.489-21a3.686 3.686 0 1 0-5.574-4.823c-6.04 7.015-12.172 13.983-18.4 20.784a3.731 3.731 0 0 0 .186 5.25 3.769 3.769 0 0 0 5.303-.213Zm-294.244-54.24a194.848 194.848 0 0 0 10.313 26.4 3.7 3.7 0 1 0 6.69-3.168 207.63 207.63 0 0 1-9.942-25.467 3.7 3.7 0 1 0-7.061 2.231Zm324.812 19.009c6.038-7.238 11.984-14.429 17.838-21.407a3.735 3.735 0 0 0-.464-5.24 3.791 3.791 0 0 0-5.3.465c-5.853 6.987-11.8 14.178-17.838 21.415a3.733 3.733 0 0 0 .464 5.241 3.8 3.8 0 0 0 5.304-.476Zm29.823-35.51c6.039-6.959 12.171-13.844 18.582-20.617a3.734 3.734 0 0 0-5.481-5.073q-9.618 10.257-18.675 20.821a3.72 3.72 0 0 0 .279 5.24 3.777 3.777 0 0 0 5.299-.373Zm-363.55-29.871a192.451 192.451 0 0 0 4.087 28.087 3.709 3.709 0 0 0 7.248-1.579 190.672 190.672 0 0 1-3.9-27.037 3.768 3.768 0 0 0-4-3.447 3.7 3.7 0 0 0-3.435 3.976Zm394.865-4.06a582.815 582.815 0 0 1 19.975-19.2 3.742 3.742 0 0 0 .186-5.259 3.665 3.665 0 0 0-5.2-.232 615.118 615.118 0 0 0-20.254 19.464 3.742 3.742 0 0 0 .092 5.259 3.657 3.657 0 0 0 5.201-.034Zm-392.356-43.119c-1.022 5.658-1.766 11.391-2.323 17.188-.279 3.67-.558 7.359-.651 11.056a3.769 3.769 0 0 0 3.624 3.819 3.686 3.686 0 0 0 3.809-3.614c.093-3.549.372-7.089.65-10.611.465-5.583 1.208-11.1 2.138-16.556a3.68 3.68 0 1 0-7.247-1.282Zm426.175 11.716c7.061-5.965 14.215-11.707 21.647-17.188a3.8 3.8 0 0 0 .744-5.2 3.724 3.724 0 0 0-5.2-.771q-11.288 8.376-22.02 17.494a3.724 3.724 0 0 0 4.832 5.668Zm-413.168-57.009a227.275 227.275 0 0 0-8.92 26.841 3.7 3.7 0 1 0 7.154 1.923 231.922 231.922 0 0 1 8.641-26.005 3.683 3.683 0 0 0-2.044-4.831 3.728 3.728 0 0 0-4.831 2.07Zm449.773 29.2c7.713-5.119 15.517-9.941 23.507-14.438a3.833 3.833 0 0 0 1.487-5.064 3.793 3.793 0 0 0-5.111-1.421q-12.264 6.885-23.97 14.745a3.7 3.7 0 0 0 4.087 6.178Zm264.607-13.221a258.8 258.8 0 0 0 28.151 2.23 3.718 3.718 0 0 0 .186-7.433 250.1 250.1 0 0 1-27.408-2.165 3.6 3.6 0 0 0-4.089 3.2 3.676 3.676 0 0 0 3.16 4.167Zm47.1 1.775a173.877 173.877 0 0 0 22.855-3.141 142.46 142.46 0 0 0 5.2-1.124 3.719 3.719 0 1 0-1.673-7.247q-2.506.585-5.016 1.1a168.846 168.846 0 0 1-21.927 3 3.692 3.692 0 0 0-3.438 3.977 3.762 3.762 0 0 0 4.004 3.434Zm-93.1-10.434c9.105 2.072 18.3 4.042 27.5 5.723a3.714 3.714 0 0 0 1.3-7.312c-9.105-1.663-18.117-3.614-27.129-5.658a3.705 3.705 0 0 0-4.459 2.8 3.744 3.744 0 0 0 2.797 4.446Zm139.364 1.133a223.583 223.583 0 0 0 26.386-10.368 3.647 3.647 0 0 0 1.766-4.934 3.7 3.7 0 0 0-4.924-1.8 221.091 221.091 0 0 1-25.458 10.034 3.707 3.707 0 1 0 2.23 7.07Zm-318.214-2.2c2.881-1.4 5.853-2.759 8.827-4.078a144.562 144.562 0 0 1 16.444-6.207 3.791 3.791 0 0 0 2.509-4.645 3.743 3.743 0 0 0-4.646-2.462 153.554 153.554 0 0 0-17.374 6.532 265.345 265.345 0 0 0-9.012 4.18 3.735 3.735 0 0 0-1.673 4.961 3.641 3.641 0 0 0 4.934 1.716Zm133.6-9.309c9.105 1.914 18.117 4.023 27.13 6.151a3.714 3.714 0 1 0 1.672-7.238c-9.105-2.137-18.117-4.264-27.222-6.188a3.723 3.723 0 0 0-1.58 7.275Zm-45.339-7.033c9.1.706 18.21 1.941 27.316 3.521a3.754 3.754 0 0 0 4.273-3.029 3.716 3.716 0 0 0-3.066-4.3c-9.29-1.608-18.674-2.881-27.965-3.605a3.717 3.717 0 1 0-.558 7.414Zm-45.34 1.8a163.421 163.421 0 0 1 27.13-2.453 3.717 3.717 0 0 0-.093-7.432 172.886 172.886 0 0 0-28.338 2.564 3.718 3.718 0 1 0 1.3 7.321Zm318.4-2.3a232.181 232.181 0 0 0 23.786-15.451 3.8 3.8 0 0 0 .742-5.2 3.725 3.725 0 0 0-5.2-.771 232.69 232.69 0 0 1-22.948 14.968 3.724 3.724 0 0 0-1.394 5.064 3.666 3.666 0 0 0 5.026 1.394Zm-829.958-31.5c-4.832 8.111-9.291 16.389-13.287 24.844a3.731 3.731 0 0 0 1.673 4.961 3.8 3.8 0 0 0 5.017-1.746c3.9-8.26 8.362-16.352 13.007-24.278a3.721 3.721 0 1 0-6.41-3.781Zm868.423 4.2a229.531 229.531 0 0 0 20.069-19.91 3.694 3.694 0 1 0-5.483-4.952 231.1 231.1 0 0 1-19.511 19.269 3.73 3.73 0 0 0-.372 5.24 3.786 3.786 0 0 0 5.309.36Zm-845.2-43.472a54.627 54.627 0 0 1-6.318 13.007c-2.323 3.42-4.739 6.866-6.968 10.351a3.721 3.721 0 1 0 6.225 4.078c2.23-3.428 4.552-6.819 6.875-10.182a62.515 62.515 0 0 0 7.154-14.746 3.647 3.647 0 0 0-2.229-4.747 3.707 3.707 0 0 0-4.723 2.246Zm877.249 8.948a219.044 219.044 0 0 0 15.516-23.748 3.709 3.709 0 0 0-1.394-5.055 3.76 3.76 0 0 0-5.109 1.422 205.581 205.581 0 0 1-14.959 22.921 3.8 3.8 0 0 0 .744 5.2 3.719 3.719 0 0 0 5.218-.733Zm-863.389-53.445c-3.624 8.7-6.133 18.034-8.548 26.991a3.649 3.649 0 0 0 2.6 4.561 3.724 3.724 0 0 0 4.553-2.6 219.419 219.419 0 0 1 8.269-26.1 3.688 3.688 0 0 0-1.952-4.86 3.794 3.794 0 0 0-4.922 2.008Zm887.376 12.766a187.87 187.87 0 0 0 9.384-26.832 3.745 3.745 0 0 0-7.247-1.895 163.367 163.367 0 0 1-8.92 25.745 3.7 3.7 0 1 0 6.783 2.982Zm-855.137-47.16a51.717 51.717 0 0 0-22.762 17.383 3.721 3.721 0 0 0 5.945 4.478 44.663 44.663 0 0 1 19.512-14.949 3.7 3.7 0 0 0 2.136-4.813 3.743 3.743 0 0 0-4.831-2.099Zm868.423 1.765a194.055 194.055 0 0 0 2.137-28.347 3.794 3.794 0 0 0-3.809-3.707 3.664 3.664 0 0 0-3.624 3.735 178.752 178.752 0 0 1-2.136 27.176 3.76 3.76 0 0 0 7.432 1.143Zm1.022-47.291a166.6 166.6 0 0 0-5.482-27.929 3.682 3.682 0 0 0-4.552-2.555 3.76 3.76 0 0 0-2.6 4.59 152.5 152.5 0 0 1 5.2 26.711 3.82 3.82 0 0 0 4.18 3.289 3.716 3.716 0 0 0 3.254-4.106Zm-11.707-45.879a153.46 153.46 0 0 0-13.285-25.234 3.7 3.7 0 0 0-5.111-1.1 3.778 3.778 0 0 0-1.115 5.147 147.022 147.022 0 0 1 12.636 24.036 3.8 3.8 0 0 0 4.924 2.006 3.683 3.683 0 0 0 1.951-4.855Zm-24.62-40.508a146.415 146.415 0 0 0-20.534-19.864 3.725 3.725 0 0 0-4.645 5.825 134.561 134.561 0 0 1 19.511 18.852 3.682 3.682 0 0 0 5.2.427 3.735 3.735 0 0 0 .468-5.24Zm-36.142-30.725a151.754 151.754 0 0 0-15.051-7.944c-3.438-1.617-7.061-3.085-10.685-4.414a3.657 3.657 0 0 0-4.738 2.212 3.7 3.7 0 0 0 2.136 4.766 127.155 127.155 0 0 1 10.22 4.181 141.3 141.3 0 0 1 14.216 7.563 3.719 3.719 0 0 0 5.11-1.264 3.646 3.646 0 0 0-1.208-5.1Zm-43.854-17.923c-8.919-2.323-18.21-4.2-27.5-5.983a3.718 3.718 0 0 0-1.394 7.3c9.106 1.746 18.211 3.6 27.037 5.881a3.718 3.718 0 1 0 1.858-7.2Zm-45.711-9.439c-9.2-1.784-18.209-3.689-26.944-6.076a3.716 3.716 0 0 0-1.95 7.172c8.919 2.434 18.117 4.376 27.5 6.2a3.8 3.8 0 0 0 4.366-2.945 3.726 3.726 0 0 0-2.972-4.351Zm-44.132-11.744a93.9 93.9 0 0 1-23.413-12.942 3.7 3.7 0 0 0-5.2.668 3.631 3.631 0 0 0 .651 5.213 102.809 102.809 0 0 0 25.178 13.964 3.7 3.7 0 0 0 4.831-2.081 3.748 3.748 0 0 0-2.047-4.822Zm-36.048-25.3a77.954 77.954 0 0 1-12.543-23.33 3.706 3.706 0 0 0-4.738-2.276 3.744 3.744 0 0 0-2.323 4.729 85.357 85.357 0 0 0 13.843 25.494 3.692 3.692 0 1 0 5.761-4.617Zm85.662-1.7a64.322 64.322 0 0 1-25.736-4.646 3.718 3.718 0 1 0-2.694 6.931 71.674 71.674 0 0 0 28.709 5.138 3.714 3.714 0 0 0-.279-7.423Zm39.022-17.486a64.009 64.009 0 0 1-22.02 14.122 3.719 3.719 0 1 0 2.6 6.969 70.165 70.165 0 0 0 24.529-15.74 3.7 3.7 0 0 0-5.11-5.351Zm-80.738 4.747a130.3 130.3 0 0 1-21.462-16.5 3.658 3.658 0 0 0-5.2.139 3.74 3.74 0 0 0 .093 5.259 138.093 138.093 0 0 0 22.669 17.43 3.714 3.714 0 0 0 5.11-1.208 3.674 3.674 0 0 0-1.21-5.119Zm104.151-42.413a105.858 105.858 0 0 1-12.078 24.027 3.744 3.744 0 0 0 6.224 4.162 114.563 114.563 0 0 0 12.822-25.708 3.8 3.8 0 0 0-2.23-4.747 3.692 3.692 0 0 0-4.738 2.267Zm-165.1 16.148a118.652 118.652 0 0 1-1.3-26.925 3.724 3.724 0 0 0-7.433-.464 128.482 128.482 0 0 0 1.393 28.634 3.761 3.761 0 0 0 4.274 3.038 3.69 3.69 0 0 0 3.067-4.282Zm27.314-3.53a135.093 135.093 0 0 1-14.865-22.689 3.728 3.728 0 0 0-6.6 3.475 153.72 153.72 0 0 0 15.609 23.868 3.7 3.7 0 0 0 5.2.576 3.74 3.74 0 0 0 .657-5.228Zm144.475-56.87a113.5 113.5 0 0 1-2.045 26.869 3.736 3.736 0 0 0 7.34 1.4 128.314 128.314 0 0 0 2.137-28.588 3.762 3.762 0 0 0-3.9-3.559 3.7 3.7 0 0 0-3.531 3.879Zm-173.741-3.93c-.371-1.5-.743-3-1.022-4.506a3.712 3.712 0 1 0-7.247 1.607c1.208 5.8 2.787 11.52 4.552 17.142-.185 1.272-.464 2.555-.743 3.828a3.759 3.759 0 0 0 2.973 4.329c.279.037.465.056.651.065.279.613.465 1.226.743 1.839a3.729 3.729 0 0 0 4.831 2.11A3.857 3.857 0 0 0 1572.9 992c-1.022-2.555-1.951-5.147-2.88-7.758a143.031 143.031 0 0 1 6.225-20.542 3.7 3.7 0 0 0-2.137-4.813 3.765 3.765 0 0 0-4.832 2.109c-1.118 3.094-2.233 6.234-3.255 9.404Zm162.034-38.734a86.943 86.943 0 0 1 9.477 24.881 3.749 3.749 0 0 0 4.46 2.843 3.7 3.7 0 0 0 2.786-4.423 92.444 92.444 0 0 0-10.313-27.008 3.649 3.649 0 0 0-5.017-1.366 3.737 3.737 0 0 0-1.392 5.074Zm-166.214 16.26a206.561 206.561 0 0 1-1.58-27.325 3.716 3.716 0 1 0-7.432-.027 205.478 205.478 0 0 0 1.672 28.281 3.76 3.76 0 0 0 4.182 3.224 3.652 3.652 0 0 0 3.158-4.153Zm22.206-.483a125.7 125.7 0 0 1 15.7-21.973 3.734 3.734 0 0 0-.279-5.25 3.778 3.778 0 0 0-5.3.3 138.469 138.469 0 0 0-16.632 23.237 3.737 3.737 0 0 0 1.394 5.073 3.8 3.8 0 0 0 5.117-1.387Zm112.141-45.424a72.934 72.934 0 0 1 21.276 15.5 3.771 3.771 0 0 0 5.3.131 3.658 3.658 0 0 0 .093-5.259 80.335 80.335 0 0 0-23.507-17.058 3.7 3.7 0 1 0-3.158 6.689Zm-83.433 11.028c1.208-1.012 2.509-2 3.81-2.944a75.855 75.855 0 0 1 19.236-10.211 3.728 3.728 0 1 0-2.6-6.987 83.809 83.809 0 0 0-21 11.2 77.903 77.903 0 0 0-4.087 3.159 3.647 3.647 0 0 0-.558 5.231 3.687 3.687 0 0 0 5.199.552Zm-51.75-10.7a236.552 236.552 0 0 1 4-27.12 3.7 3.7 0 1 0-7.247-1.524 215.052 215.052 0 0 0-4.088 28.013 3.684 3.684 0 1 0 7.34.631Zm91.98-6.661a81.044 81.044 0 0 1 26.572.594 3.708 3.708 0 1 0 1.394-7.284 87.478 87.478 0 0 0-28.895-.668 3.751 3.751 0 0 0-3.252 4.18 3.712 3.712 0 0 0 4.181 3.175Zm-83.526-38.158a199.235 199.235 0 0 1 9.663-25.6 3.759 3.759 0 0 0-1.857-4.934 3.709 3.709 0 0 0-4.925 1.831 199.821 199.821 0 0 0-9.942 26.562 3.689 3.689 0 1 0 7.061 2.137Zm18.025-41.7c2.787-4.571 5.668-8.91 8.733-12.989q3.485-4.639 7.248-9.123a3.721 3.721 0 0 0-.466-5.231 3.791 3.791 0 0 0-5.3.493c-2.509 3.075-5.017 6.2-7.433 9.383a132.186 132.186 0 0 0-9.105 13.658 3.645 3.645 0 0 0 1.208 5.1 3.726 3.726 0 0 0 5.115-1.292Zm28.059-35.993c6.317-6.968 12.729-13.722 18.953-20.375a3.742 3.742 0 0 0-.186-5.259 3.667 3.667 0 0 0-5.2.186c-6.226 6.68-12.729 13.463-19.047 20.45a3.709 3.709 0 0 0 5.482 5Zm31.5-34.237a193.341 193.341 0 0 0 17.283-22.512 3.741 3.741 0 0 0-1.023-5.138 3.8 3.8 0 0 0-5.2 1.115 187.387 187.387 0 0 1-16.631 21.648 3.739 3.739 0 0 0 .372 5.25 3.669 3.669 0 0 0 5.194-.359Zm26.2-39.607a63.783 63.783 0 0 0 4.739-28.913 3.754 3.754 0 0 0-4-3.429 3.7 3.7 0 0 0-3.437 3.976 57.269 57.269 0 0 1-4.181 25.643 3.713 3.713 0 0 0 2.137 4.822 3.639 3.639 0 0 0 4.738-2.1Zm1.858-47.8a91.793 91.793 0 0 0-10.127-27.065 3.716 3.716 0 1 0-6.41 3.763 85.13 85.13 0 0 1 9.291 24.9 3.744 3.744 0 0 0 4.46 2.834 3.646 3.646 0 0 0 2.786-4.435Zm-22.39-42.376a71.931 71.931 0 0 0-25.179-14.764 3.726 3.726 0 0 0-4.739 2.258 3.8 3.8 0 0 0 2.23 4.748 64.343 64.343 0 0 1 22.67 13.221 3.651 3.651 0 0 0 5.2-.214 3.731 3.731 0 0 0-.186-5.252Zm-43.761-19.483a209.812 209.812 0 0 0-28.244-2.593 3.719 3.719 0 0 0-.279 7.433 199.634 199.634 0 0 1 27.222 2.49 3.723 3.723 0 1 0 1.3-7.33Zm-93.373-2.082c-9.291-.009-18.489-.25-27.595-.928a3.753 3.753 0 0 0-4 3.428 3.7 3.7 0 0 0 3.438 3.985c9.291.7 18.675.939 28.152.948a3.717 3.717 0 0 0 0-7.433Zm46.361-.687c-9.105.074-18.4.325-27.872.5a3.717 3.717 0 0 0 .093 7.433c9.475-.177 18.766-.428 27.872-.5a3.717 3.717 0 1 0-.093-7.433Zm-92.166-2.286a156.459 156.459 0 0 1-26.386-6.345 3.718 3.718 0 1 0-2.416 7.033 163.447 163.447 0 0 0 27.687 6.662 3.717 3.717 0 1 0 1.115-7.35Zm-42.924-13.416a103.1 103.1 0 0 1-22.02-15.4 3.662 3.662 0 0 0-5.2.223 3.731 3.731 0 0 0 .186 5.249 109.922 109.922 0 0 0 23.6 16.52 3.754 3.754 0 0 0 5.018-1.571 3.792 3.792 0 0 0-1.588-5.024Z" class="colorbb9eb5 svgShape"></path><path fill="#D8C7D4" d="M1435.324 527.946a5.53 5.53 0 0 0 .36-10.562l-145.26-50.724 89.6 76.648s33.925-9.408 55.3-15.362Z" class="colord8c7d4 svgShape"></path><path fill="#BEA2B8" d="M1376.9 601.706a4.207 4.207 0 0 1-3.177 3.745 4.142 4.142 0 0 1-4.524-1.988c-20.283-35.181-78.831-136.747-78.831-136.747l90.146 76.533s-2.314 37.559-3.614 58.457Z" class="colorbea2b8 svgShape"></path></g></svg>