<svg width="54" height="54" viewBox="0 0 54 54" fill="none" xmlns="http://www.w3.org/2000/svg">
<path d="M37.9688 21.0938C40.7647 21.0938 43.0312 18.8272 43.0312 16.0312C43.0312 13.2353 40.7647 10.9688 37.9688 10.9688C35.1728 10.9688 32.9062 13.2353 32.9062 16.0312C32.9062 18.8272 35.1728 21.0938 37.9688 21.0938Z" fill="#A83229"/>
<path d="M34.5938 53.1562H5.90625L20.25 38.8125L34.5938 53.1562Z" fill="#4A9BF6"/>
<path d="M53.1562 5.90625V48.0938C53.1562 49.4364 52.6229 50.7241 51.6735 51.6735C50.7241 52.6229 49.4364 53.1562 48.0938 53.1562H44.7188L25.3125 33.75L31.7334 27.3291C33.6767 29.8635 35.7583 32.2887 37.9688 34.5938C37.9688 34.5938 49.7812 22.5534 49.7812 16.0312C49.7823 14.1426 49.3279 12.2816 48.4566 10.6059L53.1562 5.90625Z" fill="#D3D9F2"/>
<path d="M53.1562 5.90625L48.4565 10.6059C47.3376 8.4323 45.5677 6.6624 43.394 5.54344L48.0937 0.84375C49.4364 0.84375 50.7241 1.37712 51.6735 2.32652C52.6229 3.27592 53.1562 4.56359 53.1562 5.90625Z" fill="#FFDF64"/>
<path d="M44.7188 53.1562H34.5938L20.25 38.8125L25.3125 33.75L44.7188 53.1562Z" fill="#F7F7FF"/>
<path d="M31.7334 27.329L25.3125 33.75L20.25 38.8125L5.90625 53.1562C4.56359 53.1562 3.27592 52.6228 2.32652 51.6734C1.37712 50.724 0.84375 49.4364 0.84375 48.0937L27.7509 21.1865C28.9003 23.3442 30.2327 25.3992 31.7334 27.329Z" fill="#FFDF64"/>
<path d="M48.0938 0.84375L43.3941 5.54344C41.5941 4.61036 39.5841 4.15658 37.5579 4.22585C35.5316 4.29511 33.5573 4.88507 31.8253 5.93889C30.0932 6.99271 28.6618 8.47486 27.6688 10.2425C26.6759 12.0102 26.155 14.0038 26.1562 16.0312C26.2874 17.8489 26.8329 19.6124 27.7509 21.1866L0.84375 48.0938V5.90625C0.84375 4.56359 1.37712 3.27592 2.32652 2.32652C3.27592 1.37712 4.56359 0.84375 5.90625 0.84375H48.0938Z" fill="#28BE77"/>
<path d="M48.4566 10.6059C49.3279 12.2815 49.7823 14.1425 49.7812 16.0312C49.7812 22.5534 37.9688 34.5937 37.9688 34.5937C35.7583 32.2887 33.6767 29.8634 31.7334 27.329C30.2327 25.3992 28.9003 23.3441 27.7509 21.1865C26.8329 19.6123 26.2874 17.8488 26.1562 16.0312C26.1585 13.3857 27.0486 10.8175 28.6842 8.73817C30.3197 6.65882 32.6059 5.18867 35.1764 4.56331C37.7469 3.93794 40.453 4.19356 42.8609 5.28919C45.2689 6.38482 47.2393 8.25705 48.4566 10.6059ZM43.0312 16.0312C43.0312 15.0299 42.7343 14.0511 42.1781 13.2186C41.6218 12.3861 40.8311 11.7372 39.9061 11.354C38.981 10.9709 37.9631 10.8706 36.9811 11.066C35.9991 11.2613 35.097 11.7435 34.389 12.4515C33.681 13.1595 33.1989 14.0615 33.0035 15.0435C32.8082 16.0256 32.9084 17.0435 33.2916 17.9685C33.6748 18.8936 34.3237 19.6842 35.1562 20.2405C35.9887 20.7968 36.9675 21.0937 37.9688 21.0937C39.3114 21.0937 40.5991 20.5603 41.5485 19.6109C42.4979 18.6615 43.0312 17.3738 43.0312 16.0312Z" fill="#D73D3F"/>
<path d="M9.28125 49.7812L5.90625 53.1562H34.5938L31.2188 49.7812H9.28125Z" fill="#3B7CC4"/>
<path d="M48.0938 49.7812H41.3438L44.7188 53.1562H48.0938C49.4364 53.1562 50.7241 52.6229 51.6735 51.6735C52.6229 50.7241 53.1562 49.4364 53.1562 48.0938V44.7188C53.1562 46.0614 52.6229 47.3491 51.6735 48.2985C50.7241 49.2479 49.4364 49.7812 48.0938 49.7812Z" fill="#AEB2D4"/>
<path d="M52.4111 6.65128C52.8982 7.44206 53.1561 8.35253 53.1562 9.28125V5.90625L52.4111 6.65128Z" fill="#B8BCE0"/>
<path d="M48.0938 4.21875C48.9617 4.21952 49.8148 4.44372 50.571 4.86976C51.3271 5.29579 51.9609 5.90932 52.4112 6.65128L53.1562 5.90625C53.1562 4.56359 52.6229 3.27592 51.6735 2.32652C50.7241 1.37712 49.4364 0.84375 48.0938 0.84375L44.7188 4.21875H48.0938Z" fill="#FFB844"/>
<path d="M31.2188 49.7812L34.5938 53.1562H44.7188L41.3438 49.7812H31.2188Z" fill="#CACFE8"/>
<path d="M5.90625 49.7812C5.03832 49.7804 4.18521 49.5562 3.42904 49.1302C2.67287 48.7041 2.03911 48.0906 1.58878 47.3486L0.84375 48.0937C0.84375 49.4363 1.37712 50.724 2.32652 51.6734C3.27592 52.6228 4.56359 53.1562 5.90625 53.1562L9.28125 49.7812H5.90625Z" fill="#FFB844"/>
<path d="M0.84375 44.7188V48.0938L1.58878 47.3487C1.10176 46.5579 0.843838 45.6475 0.84375 44.7188ZM5.90625 4.21875H44.7188L48.0938 0.84375H5.90625C4.56359 0.84375 3.27592 1.37712 2.32652 2.32652C1.37712 3.27592 0.84375 4.56359 0.84375 5.90625V9.28125C0.84375 7.93859 1.37712 6.65093 2.32652 5.70152C3.27592 4.75212 4.56359 4.21875 5.90625 4.21875Z" fill="#1FA463"/>
<path d="M10.9688 18.5625C9.68453 18.5626 8.42123 18.237 7.29703 17.6161C6.17283 16.9952 5.22446 16.0994 4.54061 15.0123C3.85677 13.9253 3.45978 12.6825 3.38679 11.4004C3.3138 10.1182 3.56718 8.83843 4.12324 7.6808C4.6793 6.52317 5.51987 5.52547 6.56634 4.78101C7.61281 4.03656 8.83099 3.56967 10.107 3.42401C11.3829 3.27834 12.675 3.45867 13.8623 3.94811C15.0497 4.43756 16.0935 5.22014 16.8961 6.22266L14.2594 8.33203C13.6829 7.61307 12.8869 7.10265 11.9929 6.87879C11.099 6.65493 10.1563 6.72993 9.30902 7.09234C8.46172 7.45475 7.7564 8.08463 7.30084 8.88571C6.84529 9.68679 6.66458 10.615 6.78631 11.5285C6.90805 12.4419 7.32554 13.2904 7.97499 13.9442C8.62443 14.5981 9.47009 15.0212 10.3827 15.1491C11.2954 15.277 12.2248 15.1025 13.0289 14.6523C13.833 14.2022 14.4676 13.5011 14.8357 12.6563H10.9688V9.28125H16.875C17.3226 9.28125 17.7518 9.45904 18.0683 9.77551C18.3847 10.092 18.5625 10.5212 18.5625 10.9688C18.5601 12.982 17.7592 14.9121 16.3357 16.3356C14.9121 17.7592 12.982 18.56 10.9688 18.5625Z" fill="#F7F7FF"/>
<path d="M37.9688 14.3437C39.0147 14.3449 40.0345 14.67 40.8882 15.2743C41.7418 15.8787 42.3873 16.7326 42.7359 17.7187C43.009 16.9546 43.0944 16.1362 42.985 15.3322C42.8756 14.5283 42.5746 13.7624 42.1072 13.0991C41.6399 12.4358 41.0201 11.8946 40.2998 11.521C39.5796 11.1474 38.7801 10.9524 37.9688 10.9524C37.1574 10.9524 36.3579 11.1474 35.6377 11.521C34.9175 11.8946 34.2976 12.4358 33.8303 13.0991C33.3629 13.7624 33.0619 14.5283 32.9525 15.3322C32.8431 16.1362 32.9285 16.9546 33.2016 17.7187C33.5502 16.7326 34.1957 15.8787 35.0493 15.2743C35.903 14.67 36.9228 14.3449 37.9688 14.3437Z" fill="#91323C"/>
<path d="M26.325 17.4741C26.2161 18.1125 26.1596 18.7587 26.1562 19.4063C26.1864 20.3683 26.3768 21.3185 26.7199 22.2177L27.7509 21.1866C27.1146 20.0171 26.6351 18.7689 26.325 17.4741Z" fill="#1FA463"/>
<path d="M49.6066 17.4951C48.1629 24.1996 37.9687 34.5937 37.9687 34.5937C35.7582 32.2887 33.6766 29.8634 31.7334 27.329L30.3159 28.7465C30.7754 29.4084 31.248 30.061 31.7334 30.704C33.6766 33.2384 35.7582 35.6637 37.9687 37.9687C37.9687 37.9687 49.7812 25.9284 49.7812 19.4062C49.7755 18.7655 49.7171 18.1263 49.6066 17.4951Z" fill="#AEB2D4"/>
<path d="M27.7508 21.1865L26.7197 22.2176C27.0081 23.0221 27.3526 23.8053 27.7508 24.5615C28.5114 26.0122 29.3683 27.4103 30.3158 28.7465L31.7333 27.329C30.2326 25.3992 28.9002 23.3442 27.7508 21.1865Z" fill="#FFB844"/>
</svg>
