<svg width="176" height="123" viewBox="0 0 176 123" fill="none" xmlns="http://www.w3.org/2000/svg">
<g clip-path="url(#clip0_1_1011)">
<path d="M90.5 39.5C69.79 39.5 53 56.582 53 77.652C53 98.722 69.79 115.8 90.5 115.8C111.21 115.8 128 98.723 128 77.652C127.977 56.591 111.2 39.524 90.5 39.5ZM90.5 113.261C71.17 113.261 55.5 97.318 55.5 77.652C55.5 57.986 71.17 42.043 90.5 42.043C109.83 42.043 125.5 57.986 125.5 77.652C125.478 97.309 109.821 113.239 90.5 113.261ZM109.25 73.837H105.5V70.022C105.501 69.8564 105.47 69.6921 105.408 69.5386C105.346 69.385 105.255 69.2452 105.138 69.1271C105.022 69.009 104.884 68.9149 104.732 68.8502C104.579 68.7855 104.416 68.7514 104.25 68.75H99.25C99.0844 68.7514 98.9207 68.7855 98.7683 68.8502C98.6158 68.9149 98.4776 69.009 98.3615 69.1271C98.2455 69.2452 98.1538 69.385 98.0918 69.5386C98.0297 69.6921 97.9986 69.8564 98 70.022V73.837H92.348C91.4908 71.3087 89.7609 69.1685 87.4685 67.8003C85.1761 66.432 82.4712 65.9253 79.839 66.371C77.2108 66.8681 74.8387 68.2672 73.1321 70.3268C71.4255 72.3864 70.4916 74.9772 70.4916 77.652C70.4916 80.3268 71.4255 82.9176 73.1321 84.9772C74.8387 87.0368 77.2108 88.4359 79.839 88.933C82.4712 89.3787 85.1761 88.872 87.4685 87.5037C89.7609 86.1355 91.4908 83.9953 92.348 81.467H106.748C106.982 81.4678 107.212 81.4026 107.411 81.2788C107.61 81.155 107.77 80.9776 107.873 80.767L110.373 75.68C110.468 75.4852 110.513 75.2694 110.503 75.0527C110.493 74.836 110.429 74.6252 110.316 74.44C110.205 74.2564 110.048 74.1047 109.861 73.9996C109.674 73.8944 109.463 73.8395 109.248 73.84L109.25 73.837ZM105.977 78.924H91.422C91.1429 78.9257 90.8724 79.0204 90.6532 79.1932C90.434 79.366 90.2788 79.607 90.212 79.878C89.7012 81.9602 88.4444 83.7828 86.6797 85.0003C84.915 86.2178 82.7649 86.7457 80.637 86.484C78.5133 86.1775 76.5712 85.116 75.1665 83.494C73.7618 81.872 72.9886 79.7982 72.9886 77.6525C72.9886 75.5068 73.7618 73.433 75.1665 71.811C76.5712 70.189 78.5133 69.1275 80.637 68.821C82.7649 68.5593 84.915 69.0872 86.6797 70.3047C88.4444 71.5222 89.7012 73.3448 90.212 75.427C90.2788 75.698 90.434 75.939 90.6532 76.1118C90.8724 76.2846 91.1429 76.3793 91.422 76.381H99.25C99.4156 76.3796 99.5793 76.3455 99.7317 76.2808C99.8842 76.2161 100.022 76.122 100.138 76.0039C100.255 75.8858 100.346 75.746 100.408 75.5924C100.47 75.4389 100.501 75.2746 100.5 75.109V71.293H103V75.108C102.999 75.2736 103.03 75.4379 103.092 75.5914C103.154 75.745 103.245 75.8848 103.362 76.0029C103.478 76.121 103.616 76.2151 103.768 76.2798C103.921 76.3445 104.084 76.3786 104.25 76.38H107.227L105.977 78.924ZM81.75 73.837C80.9925 73.8239 80.2483 74.0365 79.6122 74.4478C78.976 74.8592 78.4766 75.4505 78.1777 76.1466C77.8787 76.8427 77.7937 77.612 77.9335 78.3565C78.0733 79.1011 78.4315 79.7872 78.9626 80.3275C79.4937 80.8677 80.1735 81.2377 80.9155 81.3903C81.6576 81.5428 82.4282 81.4711 83.1294 81.1841C83.8305 80.8972 84.4303 80.4081 84.8525 79.779C85.2747 79.15 85.5001 78.4096 85.5 77.652C85.5085 76.6488 85.1182 75.6834 84.415 74.968C83.7118 74.2525 82.7532 73.8457 81.75 73.837ZM81.75 78.924C81.4975 78.9284 81.2495 78.8575 81.0374 78.7204C80.8254 78.5833 80.6589 78.3862 80.5593 78.1542C80.4596 77.9222 80.4312 77.6658 80.4778 77.4176C80.5244 77.1694 80.6438 76.9407 80.8207 76.7606C80.9977 76.5805 81.2243 76.4572 81.4716 76.4063C81.719 76.3554 81.9758 76.3793 82.2096 76.4749C82.4433 76.5705 82.6432 76.7335 82.784 76.9431C82.9248 77.1527 83 77.3995 83 77.652C83.0015 77.8176 82.9703 77.9819 82.9082 78.1354C82.8462 78.289 82.7545 78.4288 82.6385 78.5469C82.5224 78.665 82.3842 78.7591 82.2317 78.8238C82.0793 78.8885 81.9156 78.9226 81.75 78.924Z" fill="#40831E"/>
<path fill-rule="evenodd" clip-rule="evenodd" d="M18.867 47.5469C16.5992 44.649 15.3585 41.0797 15.34 37.3999L15.325 34.3999L13.379 35.9809C10.345 38.4477 6.53776 39.7647 2.628 39.6999L0 39.6509L1.662 41.8389C3.66138 44.4706 4.8299 47.6392 5.018 50.9389L5.249 54.9789L7.887 53.0599C10.5134 51.1491 13.6426 50.0508 16.887 49.9009L20.57 49.7309L18.867 47.5469Z" fill="#FD6B22"/>
<path fill-rule="evenodd" clip-rule="evenodd" d="M35.637 33.429C34.9301 32.5264 34.5431 31.4144 34.537 30.268V29.335L33.931 29.827C32.9856 30.5946 31.7997 31.0043 30.582 30.984L29.764 30.97L30.282 31.651C30.904 32.4705 31.2678 33.4568 31.327 34.484L31.398 35.742L32.22 35.142C33.0371 34.5474 34.0106 34.2053 35.02 34.158L36.167 34.105L35.637 33.429Z" fill="#FD6B22"/>
<path fill-rule="evenodd" clip-rule="evenodd" d="M131.876 120.094C131.169 119.191 130.782 118.079 130.776 116.933V116L130.17 116.492C129.225 117.26 128.039 117.669 126.821 117.649L126 117.635L126.518 118.316C127.14 119.136 127.504 120.122 127.563 121.149L127.634 122.407L128.456 121.807C129.273 121.212 130.247 120.87 131.256 120.823L132.403 120.77L131.876 120.094Z" fill="#FD6B22"/>
<path fill-rule="evenodd" clip-rule="evenodd" d="M8.04495 29.574C7.338 28.6714 6.95105 27.5595 6.94495 26.413L6.94095 25.48L6.33595 25.972C5.3907 26.74 4.2047 27.1497 2.98695 27.129L2.16895 27.115L2.68695 27.796C3.30895 28.6155 3.67275 29.6018 3.73195 30.629L3.79995 31.888L4.62195 31.288C5.43927 30.6938 6.41259 30.3517 7.42195 30.304L8.56895 30.251L8.04495 29.574Z" fill="#FD6B22"/>
<path fill-rule="evenodd" clip-rule="evenodd" d="M174.876 100.094C174.169 99.1914 173.782 98.0795 173.776 96.933V96L173.176 96.492C172.231 97.26 171.045 97.6698 169.827 97.649L169 97.635L169.518 98.316C170.14 99.1356 170.504 100.122 170.563 101.149L170.634 102.408L171.456 101.808C172.273 101.214 173.247 100.872 174.256 100.824L175.403 100.771L174.876 100.094Z" fill="#FD6B22"/>
<path fill-rule="evenodd" clip-rule="evenodd" d="M55.7049 53.5999L54.7479 53.8909C53.465 50.225 50.83 47.1876 47.3819 45.3999C45.9984 44.6463 44.4763 44.1815 42.9078 44.0335C41.3393 43.8855 39.757 44.0574 38.2569 44.5389L37.9449 43.5889C39.5712 43.0616 41.2879 42.8714 42.9901 43.0301C44.6923 43.1888 46.3442 43.693 47.8449 44.5119C51.5286 46.4289 54.3409 49.6804 55.7069 53.6019" fill="#FD6B22"/>
<path fill-rule="evenodd" clip-rule="evenodd" d="M55.4 24L55.964 24.826C52.8518 27.15 50.7443 30.5745 50.072 34.4C49.7678 35.9458 49.7807 37.5372 50.1097 39.0778C50.4387 40.6185 51.077 42.0763 51.986 43.363L51.173 43.945C50.1828 42.5519 49.4872 40.9715 49.1287 39.3004C48.7702 37.6293 48.7563 35.9026 49.088 34.226C49.8113 30.1373 52.0692 26.4793 55.4 24Z" fill="#FD6B22"/>
<path d="M131 50.0001C131.072 49.0291 131.474 48.1119 132.138 47.4001C133.938 45.8401 135.426 47.0161 136.593 45.7741C138.043 44.2311 136.341 42.7541 137.73 41.2741C139.363 39.5361 140.741 41.3581 142.282 39.7171C143.895 38.0011 142.605 36.0561 144.127 34.4381C144.437 34.1128 144.812 33.8568 145.228 33.687C145.644 33.5172 146.091 33.4375 146.54 33.4531C147.703 33.2851 148.581 33.6231 149.573 32.5621C150.873 31.1621 149.401 29.4551 151.014 27.7381C152.556 26.0971 153.934 27.9191 155.566 26.1811C156.955 24.7011 155.254 23.2251 156.703 21.6811C157.87 20.4391 159.423 21.6881 161.158 20.0541C162.575 18.7191 162.043 17.1901 162.399 16.3971C163.023 15.0091 164.999 14.9971 164.999 14.9971" stroke="#FD6B22"/>
<path fill-rule="evenodd" clip-rule="evenodd" d="M109.932 6.384C109.723 5.718 108.817 4.909 106.861 5.571C105.145 6.23907 103.545 7.17502 102.122 8.344C102.781 6.52537 103.161 4.61741 103.249 2.685C103.248 0.546 102.166 0 101.494 0C100.822 0 99.8 0.65 99.8 2.789C99.8777 4.68291 100.238 6.55458 100.869 8.342C99.4262 7.13515 97.7992 6.16753 96.05 5.476C94.094 4.816 93.263 5.718 93.05 6.384C92.837 7.05 93.121 8.259 95.075 8.92C96.8276 9.4299 98.6513 9.65179 100.475 9.577C98.911 10.6497 97.5251 11.9614 96.368 13.464C95.162 15.196 95.729 16.3 96.268 16.711C96.807 17.122 98.003 17.222 99.212 15.491C100.223 13.8993 100.988 12.1641 101.482 10.344C101.969 12.2062 102.738 13.983 103.762 15.613C104.97 17.343 106.152 17.122 106.697 16.713C107.242 16.304 107.697 15.153 106.492 13.422C105.365 11.9434 104.016 10.6484 102.492 9.583C104.353 9.67538 106.217 9.46257 108.009 8.953C109.963 8.293 110.127 7.053 109.92 6.387" fill="#FD6B22"/>
<path fill-rule="evenodd" clip-rule="evenodd" d="M17.972 99C17.886 98.687 17.513 98.306 16.707 98.617C15.9882 98.938 15.3283 99.3774 14.755 99.917C15.0277 99.0539 15.1837 98.1583 15.219 97.254C15.219 96.247 14.773 95.991 14.497 95.991C14.221 95.991 13.797 96.297 13.797 97.303C13.8282 98.1895 13.9762 99.0681 14.237 99.916C13.6568 99.3573 12.9859 98.9011 12.253 98.567C11.448 98.256 11.106 98.681 11.02 98.994C10.934 99.307 11.049 99.877 11.854 100.187C12.57 100.426 13.324 100.531 14.078 100.496C13.4222 101.014 12.8516 101.631 12.387 102.325C11.887 103.14 12.124 103.659 12.347 103.853C12.57 104.047 13.062 104.094 13.559 103.279C13.9801 102.518 14.2947 101.703 14.494 100.857C14.6908 101.723 15.0068 102.558 15.433 103.337C15.933 104.151 16.417 104.047 16.642 103.854C16.867 103.661 17.054 103.12 16.558 102.305C16.1053 101.621 15.5498 101.012 14.911 100.498C15.6804 100.54 16.4509 100.438 17.183 100.198C17.983 99.887 18.055 99.298 17.97 98.99" fill="#FD6B22"/>
<path d="M151.592 61.9079C151.6 61.6724 151.699 61.4492 151.868 61.2854C152.038 61.1216 152.264 61.03 152.5 61.03C152.735 61.03 152.961 61.1216 153.131 61.2854C153.3 61.4492 153.399 61.6724 153.407 61.9079V63.7719C153.399 64.0074 153.3 64.2306 153.131 64.3944C152.961 64.5582 152.735 64.6498 152.5 64.6498C152.264 64.6498 152.038 64.5582 151.868 64.3944C151.699 64.2306 151.6 64.0074 151.592 63.7719V61.9079ZM148.13 64.4129C147.971 64.2405 147.885 64.0134 147.89 63.7792C147.895 63.545 147.99 63.3217 148.156 63.156C148.322 62.9903 148.545 62.8951 148.779 62.8902C149.014 62.8854 149.241 62.9712 149.413 63.1299L150.656 64.3729C150.815 64.5453 150.901 64.7724 150.896 65.0066C150.891 65.2408 150.796 65.4641 150.63 65.6298C150.464 65.7955 150.241 65.8907 150.007 65.8956C149.772 65.9004 149.545 65.8146 149.373 65.6559L148.13 64.4129ZM146.908 68.4079C146.673 68.4001 146.449 68.301 146.286 68.1317C146.122 67.9624 146.03 67.736 146.03 67.5004C146.03 67.2648 146.122 67.0384 146.286 66.8691C146.449 66.6998 146.673 66.6007 146.908 66.5929H148.772C148.894 66.5889 149.015 66.6093 149.129 66.6531C149.242 66.6969 149.346 66.7631 149.433 66.8478C149.521 66.9325 149.591 67.0339 149.638 67.146C149.686 67.2581 149.71 67.3786 149.71 67.5004C149.71 67.6222 149.686 67.7427 149.638 67.8548C149.591 67.9669 149.521 68.0684 149.433 68.153C149.346 68.2377 149.242 68.3039 149.129 68.3477C149.015 68.3915 148.894 68.4119 148.772 68.4079H146.908ZM149.413 71.8699C149.33 71.96 149.23 72.0324 149.118 72.0827C149.007 72.133 148.886 72.1603 148.764 72.1628C148.641 72.1654 148.52 72.1432 148.406 72.0975C148.293 72.0518 148.189 71.9837 148.103 71.8971C148.016 71.8105 147.948 71.7074 147.902 71.5938C147.857 71.4802 147.835 71.3586 147.837 71.2362C147.84 71.1138 147.867 70.9932 147.917 70.8816C147.968 70.77 148.04 70.6698 148.13 70.5869L149.373 69.3439C149.545 69.1852 149.772 69.0994 150.007 69.1042C150.241 69.1091 150.464 69.2043 150.63 69.37C150.796 69.5357 150.891 69.759 150.896 69.9932C150.901 70.2274 150.815 70.4545 150.656 70.6269L149.413 71.8699ZM153.407 73.0919C153.399 73.3274 153.3 73.5506 153.131 73.7144C152.961 73.8782 152.735 73.9698 152.5 73.9698C152.264 73.9698 152.038 73.8782 151.868 73.7144C151.699 73.5506 151.6 73.3274 151.592 73.0919V71.2279C151.588 71.1062 151.608 70.9849 151.652 70.8713C151.696 70.7577 151.762 70.654 151.847 70.5665C151.932 70.4789 152.033 70.4093 152.145 70.3618C152.257 70.3143 152.378 70.2898 152.5 70.2898C152.621 70.2898 152.742 70.3143 152.854 70.3618C152.966 70.4093 153.067 70.4789 153.152 70.5665C153.237 70.654 153.303 70.7577 153.347 70.8713C153.391 70.9849 153.411 71.1062 153.407 71.2279V73.0919ZM156.87 70.5869C156.96 70.6698 157.032 70.77 157.083 70.8816C157.133 70.9932 157.16 71.1138 157.163 71.2362C157.166 71.3586 157.143 71.4802 157.098 71.5938C157.052 71.7074 156.984 71.8105 156.897 71.8971C156.811 71.9837 156.707 72.0518 156.594 72.0975C156.48 72.1432 156.359 72.1654 156.236 72.1628C156.114 72.1603 155.993 72.133 155.882 72.0827C155.77 72.0324 155.67 71.96 155.587 71.8699L154.344 70.6269C154.185 70.4545 154.099 70.2274 154.104 69.9932C154.109 69.759 154.204 69.5357 154.37 69.37C154.536 69.2043 154.759 69.1091 154.993 69.1042C155.228 69.0994 155.455 69.1852 155.627 69.3439L156.87 70.5869ZM158.092 66.5929C158.327 66.6007 158.551 66.6998 158.715 66.8691C158.878 67.0384 158.97 67.2648 158.97 67.5004C158.97 67.736 158.878 67.9624 158.715 68.1317C158.551 68.301 158.327 68.4001 158.092 68.4079H156.228C156.106 68.4119 155.985 68.3915 155.871 68.3477C155.758 68.3039 155.654 68.2377 155.567 68.153C155.479 68.0684 155.409 67.9669 155.362 67.8548C155.314 67.7427 155.29 67.6222 155.29 67.5004C155.29 67.3786 155.314 67.2581 155.362 67.146C155.409 67.0339 155.479 66.9325 155.567 66.8478C155.654 66.7631 155.758 66.6969 155.871 66.6531C155.985 66.6093 156.106 66.5889 156.228 66.5929H158.092ZM155.587 63.1299C155.67 63.0398 155.77 62.9674 155.882 62.9171C155.993 62.8668 156.114 62.8395 156.236 62.837C156.359 62.8344 156.48 62.8566 156.594 62.9023C156.707 62.948 156.811 63.0161 156.897 63.1027C156.984 63.1893 157.052 63.2924 157.098 63.406C157.143 63.5196 157.166 63.6412 157.163 63.7636C157.16 63.886 157.133 64.0066 157.083 64.1182C157.032 64.2298 156.96 64.33 156.87 64.4129L155.627 65.6559C155.455 65.8146 155.228 65.9004 154.993 65.8956C154.759 65.8907 154.536 65.7955 154.37 65.6298C154.204 65.4641 154.109 65.2408 154.104 65.0066C154.099 64.7724 154.185 64.5453 154.344 64.3729L155.587 63.1299Z" fill="#E2E4D4"/>
<path d="M42.0001 110.987C42.0001 110.722 42.1054 110.467 42.293 110.28C42.4805 110.092 42.7348 109.987 43.0001 109.987C43.2653 109.987 43.5196 110.092 43.7072 110.28C43.8947 110.467 44.0001 110.722 44.0001 110.987V113.013C44.0001 113.278 43.8947 113.532 43.7072 113.72C43.5196 113.907 43.2653 114.013 43.0001 114.013C42.7348 114.013 42.4805 113.907 42.293 113.72C42.1054 113.532 42.0001 113.278 42.0001 113.013V110.987ZM36.9871 118C36.7218 118 36.4675 117.894 36.28 117.707C36.0924 117.519 35.9871 117.265 35.9871 117C35.9871 116.735 36.0924 116.48 36.28 116.293C36.4675 116.105 36.7218 116 36.9871 116H39.0131C39.2783 116 39.5326 116.105 39.7202 116.293C39.9077 116.48 40.0131 116.735 40.0131 117C40.0131 117.265 39.9077 117.519 39.7202 117.707C39.5326 117.894 39.2783 118 39.0131 118H36.9871ZM43.0001 122.013C43.0001 122.278 42.8947 122.532 42.7072 122.72C42.5196 122.907 42.2653 123.013 42.0001 123.013C41.7348 123.013 41.4805 122.907 41.293 122.72C41.1054 122.532 41.0001 122.278 41.0001 122.013V119.987C41.0001 119.722 41.1054 119.467 41.293 119.28C41.4805 119.092 41.7348 118.987 42.0001 118.987C42.2653 118.987 42.5196 119.092 42.7072 119.28C42.8947 119.467 43.0001 119.722 43.0001 119.987V122.013ZM48.0131 116C48.2783 116 48.5326 116.105 48.7202 116.293C48.9077 116.48 49.0131 116.735 49.0131 117C49.0131 117.265 48.9077 117.519 48.7202 117.707C48.5326 117.894 48.2783 118 48.0131 118H45.9871C45.7218 118 45.4675 117.894 45.28 117.707C45.0924 117.519 44.9871 117.265 44.9871 117C44.9871 116.735 45.0924 116.48 45.28 116.293C45.4675 116.105 45.7218 116 45.9871 116H48.0131Z" fill="#FD6B22"/>
<path fill-rule="evenodd" clip-rule="evenodd" d="M139 104.5C139.799 104.2 140.525 103.732 141.129 103.129C141.732 102.525 142.2 101.799 142.5 101C142.75 101.799 143.205 102.519 143.819 103.088C144.433 103.657 145.185 104.056 146 104.245C145.17 104.564 144.424 105.068 143.817 105.719C143.211 106.37 142.76 107.15 142.5 108C142.328 106.584 140.133 104.706 139 104.5Z" fill="#FD6B22"/>
</g>
<defs>
<clipPath id="clip0_1_1011">
<rect width="175.407" height="123" fill="white"/>
</clipPath>
</defs>
</svg>
