<svg xmlns="http://www.w3.org/2000/svg" version="1.1" xmlns:xlink="http://www.w3.org/1999/xlink" width="42" height="42" x="0" y="0" viewBox="0 0 64 64" style="enable-background:new 0 0 512 512" xml:space="preserve" class=""><g><g data-name="Layer 21"><path d="m17.7 30.47 13.51 7.8a1 1 0 0 0 .5.14 1 1 0 0 0 .5-.14l13.53-7.8a1 1 0 0 0 .5-.87V14a1 1 0 0 0-.5-.87L32.21 5.32a1 1 0 0 0-1 0l-13.51 7.8a1 1 0 0 0-.5.87V29.6a1 1 0 0 0 .5.87Zm1.5-14.74 11.51 6.64v13.31L19.2 29Zm6.09-4.68L36 18.18l-4.27 2.46L20.19 14Zm7.42 24.63V22.37L36.88 20v3.58a1 1 0 1 0 2 0v-4.76l5.36-3.1V29Zm-1-28.34L43.24 14l-5.33 3.07-10.69-7.14ZM60.29 54h-5v-1.76a1 1 0 0 0-1-1H48.7a1 1 0 0 0-1 1V54H35.39v-1.76a1 1 0 0 0-1-1h-5.58a1 1 0 0 0-1 1V54H15.5v-1.76a1 1 0 0 0-1-1H8.93a1 1 0 0 0-1 1V54H3.71a1 1 0 0 0 0 2h4.22v1.79a1 1 0 0 0 1 1h5.57a1 1 0 0 0 1-1V56h12.31v1.79a1 1 0 0 0 1 1h5.58a1 1 0 0 0 1-1V56H47.7v1.79a1 1 0 0 0 1 1h5.57a1 1 0 0 0 1-1V56h5a1 1 0 0 0 0-2ZM13.5 56.82H9.93v-3.58h3.57Zm19.89 0h-3.58v-3.58h3.58Zm19.88 0H49.7v-3.58h3.57ZM10.9 48.48a1 1 0 0 0 .71.29h.05a1 1 0 0 0 .73-.37l5-6.25a1 1 0 0 0-.16-1.41 1 1 0 0 0-1.4.16l-4.29 5.38-1.9-1.89a1 1 0 0 0-1.42 0 1 1 0 0 0 0 1.41ZM36.06 40.9l-4.28 5.38-1.89-1.89a1 1 0 0 0-1.41 1.41l2.68 2.68a1 1 0 0 0 .7.29h.06a1 1 0 0 0 .73-.37l5-6.25a1 1 0 1 0-1.57-1.25Z" fill="#FD6B22" opacity="1" data-original="#000000" class=""></path></g></g></svg>