<svg xmlns="http://www.w3.org/2000/svg" version="1.1" xmlns:xlink="http://www.w3.org/1999/xlink" width="42" height="42" x="0" y="0" viewBox="0 0 511.54 511.54" style="enable-background:new 0 0 512 512" xml:space="preserve" class=""><g><path d="M504.63 391.943H403.604V275.361a7.736 7.736 0 0 0-4.535-7.121l-113.385-50.456a509.358 509.358 0 0 0 35.149-58.756h121.866c29.964.612 53.758 25.4 53.146 55.364-.595 29.102-24.044 52.551-53.146 53.146-20.817-3.56-20.817 19.253 0 15.647 38.606-.695 69.338-32.555 68.643-71.161-.678-37.626-31.017-67.965-68.643-68.643H327.954c82.022-190.486-225.159-190.26-143.16 0H26.6l17.869-17.756c7.143-6.939-3.787-17.915-10.953-11.066l-31.112 31.18a7.89 7.89 0 0 0 0 11.066l31.113 30.999c6.962 7.302 18.142-4.15 10.953-11.021L26.6 159.028h165.292a473.282 473.282 0 0 0 35.013 58.507l-113.906 50.91a12.996 12.996 0 0 0-4.105 10.386c-.522 23.199.272 110.868 0 113.113H69.913c-30.058 0-54.425-24.367-54.425-54.425s24.367-54.425 54.425-54.425c20.795 3.674 20.885-19.207 0-15.647C31.301 267.447 0 298.748 0 337.36s31.301 69.913 69.913 69.913h38.936c0 4.309 0 21.883.113 32.632.159 3.538 1.338 7.234 4.535 8.141 0 0 139.622 62.203 139.962 62.452a8.37 8.37 0 0 0 6.009-.249l139.599-62.203c4.241-1.996 4.785-5.964 4.785-10.295-.136-10.772-.476-25.761-.181-30.478h101.026a7.711 7.711 0 0 0-.067-15.33zm-248.244-62.679-54.81-24.423 120.573-53.903 54.697 24.423zM185.565 85.079c9.003-130.143 256.454-79.709 70.82 146.516-18.3-23.721-70.82-97.194-70.82-146.516zm64.607 164.022c12.291 8.867 13.447-3.991 26.283-18.414l26.6 11.747-120.505 53.903c-11.565-5.238-35.467-15.874-46.987-20.976l100.459-44.674c7.823 10.59 13.356 17.507 14.15 18.414zM124.383 436.004v-148.67c30.614 13.606 93.815 41.93 124.066 55.536v148.579zm263.801 0-124.179 55.513V342.87l124.179-55.536zM300.175 85.759c0-24.272-19.676-43.948-43.948-43.948s-43.948 19.676-43.948 43.948 19.676 43.948 43.948 43.948 43.948-19.676 43.948-43.948zm-43.789 28.573c-15.712-.444-28.089-13.54-27.645-29.251.426-15.088 12.557-27.219 27.645-27.645 15.712.444 28.089 13.54 27.645 29.251-.426 15.088-12.558 27.219-27.645 27.645z" fill="#FD6B22" opacity="1" data-original="#000000" class=""></path></g></svg>