<svg width="200" height="200" viewBox="0 0 200 200" fill="none" xmlns="http://www.w3.org/2000/svg">
<path d="M31.2512 158.826L21.8143 158.967C18.6482 159.015 15.4539 159.038 12.2689 159.043H12.0519V158.826V153.546V153.31H12.2925L21.7813 153.343L26.528 153.386L31.2747 153.442H31.3785V153.541L31.2512 158.826ZM31.2512 158.826L31.1473 153.546L31.2512 153.65L26.5044 153.706L21.7577 153.749L12.2689 153.782L12.5001 153.546V158.826L12.2831 158.609C15.4256 158.609 18.5586 158.637 21.7199 158.684L31.2512 158.826Z" fill="#EBEBEB"/>
<path d="M20.6582 160.204H1.67603V165.484H20.6582V160.204Z" fill="#EBEBEB"/>
<path d="M123.157 179.228H104.174V184.508H123.157V179.228Z" fill="#EBEBEB"/>
<path d="M198.321 115.756H179.339V121.036H198.321V115.756Z" fill="#EBEBEB"/>
<path d="M146.527 8.51584L137.09 8.65739C133.924 8.70458 130.73 8.72817 127.54 8.73289H127.323V8.51584V3.23592V3H127.559L137.052 3.03303L141.794 3.07549L146.541 3.13212H146.645V3.2312L146.527 8.51584ZM146.527 8.51584L146.428 3.2312L146.527 3.33501L141.78 3.39163L137.038 3.4341L127.545 3.46712L127.781 3.2312V8.51112L127.564 8.29407C130.701 8.29407 133.839 8.32238 137 8.36957L146.527 8.51584Z" fill="#EBEBEB"/>
<path d="M157.115 9.89355H138.133V15.1735H157.115V9.89355Z" fill="#EBEBEB"/>
<path d="M20.6583 8.51584L11.2214 8.65739C8.05536 8.70458 4.86099 8.72817 1.67133 8.73289H1.45428V8.51584V3.23592V3H1.69021L11.1837 3.03303L15.9304 3.07549L20.6488 3.13212H20.7526V3.2312L20.6583 8.51584ZM20.6583 8.51584L20.5592 3.2312L20.6583 3.33501L15.9398 3.39163L11.1931 3.4341L1.69964 3.46712L1.93556 3.2312V8.51112L1.71852 8.29407C4.85627 8.29407 7.99402 8.32238 11.1554 8.36957L20.6583 8.51584Z" fill="#EBEBEB"/>
<path d="M106.387 80.1746H87.4051V85.4545H106.387V80.1746Z" fill="#EBEBEB"/>
<path d="M192.522 6.52002H160.63V45.2064H192.522V6.52002Z" fill="#EBEBEB"/>
<path d="M188.879 10.0493H164.273V41.6722H188.879V10.0493Z" fill="white"/>
<path d="M165.231 10.0493H164.273V41.6722H165.231V10.0493Z" fill="#C7C7C7"/>
<path d="M193.48 6.52002H192.522V45.2064H193.48V6.52002Z" fill="#C7C7C7"/>
<path d="M177.121 34.6465H182.925V17.3629H177.121V34.6465Z" fill="#EBEBEB"/>
<path d="M185.695 23.1147H169.751V14.1497H185.695V23.1147ZM170.223 22.6428H185.223V14.6215H170.223V22.6428Z" fill="#EBEBEB"/>
<path d="M192.522 101.856H160.63V140.542H192.522V101.856Z" fill="#EBEBEB"/>
<path d="M188.879 105.39H164.273V137.013H188.879V105.39Z" fill="white"/>
<path d="M165.231 105.39H164.273V137.013H165.231V105.39Z" fill="#C7C7C7"/>
<path d="M193.48 101.856H192.522V140.542H193.48V101.856Z" fill="#C7C7C7"/>
<path d="M178.324 112.703H172.521V129.987H178.324V112.703Z" fill="#EBEBEB"/>
<path d="M185.695 118.455H169.751V109.514H185.695V118.455ZM170.223 117.983H185.223V109.986H170.223V117.983Z" fill="#EBEBEB"/>
<path d="M192.522 54.3647H160.63V93.0511H192.522V54.3647Z" fill="#EBEBEB"/>
<path d="M188.879 57.894H164.273V89.5169H188.879V57.894Z" fill="white"/>
<path d="M165.231 57.894H164.273V89.5169H165.231V57.894Z" fill="#C7C7C7"/>
<path d="M193.48 54.3647H192.522V93.0511H193.48V54.3647Z" fill="#C7C7C7"/>
<path d="M179.16 66.0664H174.191V78.6316H179.16V66.0664Z" fill="#EBEBEB"/>
<path d="M184.633 82.6046H170.808V73.4697H184.633V82.6046ZM171.28 82.1328H184.161V73.9416H171.28V82.1328Z" fill="#DBDBDB"/>
<path d="M18.7473 144.666C26.5563 152.333 27.868 164.129 26.2213 174.51C26.1788 174.746 25.8155 174.68 25.8155 174.463C25.8155 172.103 25.8863 169.744 25.8768 167.437C25.8344 167.328 25.8014 167.229 25.7589 167.121C23.7205 165.639 21.8426 163.964 20.6819 161.671C19.3796 159.104 18.8653 156.212 17.8508 153.532C17.7564 153.277 18.0301 153.352 18.2094 153.484C22.9609 156.986 24.4755 160.756 25.8391 165.795C25.8095 163.161 25.533 160.535 25.0134 157.953C23.9848 153.168 21.9558 148.431 18.5208 144.883C18.5066 144.868 18.4954 144.85 18.4879 144.831C18.4804 144.812 18.4768 144.792 18.4773 144.771C18.4777 144.75 18.4822 144.73 18.4905 144.711C18.4987 144.692 18.5107 144.675 18.5255 144.661C18.5404 144.647 18.5579 144.636 18.5771 144.628C18.5963 144.621 18.6168 144.617 18.6374 144.617C18.658 144.618 18.6783 144.622 18.6972 144.631C18.716 144.639 18.7331 144.651 18.7473 144.666Z" fill="#09090A"/>
<path d="M17.2799 145.558C15.9352 145.605 15.0906 147.752 14.0431 148.389C13.9331 148.478 13.8056 148.542 13.6689 148.579C13.5323 148.615 13.3895 148.623 13.2498 148.6C13.1101 148.578 12.9767 148.527 12.8581 148.45C12.7395 148.373 12.6385 148.271 12.5615 148.153C11.5234 146.704 12.9484 144.921 14.2884 143.906C13.3447 144.298 12.5379 144.991 11.5046 145.185C11.3726 145.229 11.2326 145.244 11.0942 145.229C10.9558 145.214 10.8222 145.17 10.7026 145.099C10.583 145.027 10.4802 144.931 10.4011 144.817C10.3221 144.702 10.2688 144.572 10.2447 144.435C9.7729 142.462 12.2689 141.604 13.9676 141.542C13.1419 140.967 10.7826 139.409 12.0377 138.645C13.2928 137.881 16.0767 140.103 16.9827 140.834C18.3085 141.915 19.8939 143.524 19.9553 145.208C20.0308 147.181 18.3133 145.973 17.2799 145.558Z" fill="#5197AF"/>
<path opacity="0.1" d="M17.2799 145.558C15.9352 145.605 15.0906 147.752 14.0431 148.389C13.9331 148.478 13.8056 148.542 13.6689 148.579C13.5323 148.615 13.3895 148.623 13.2498 148.6C13.1101 148.578 12.9767 148.527 12.8581 148.45C12.7395 148.373 12.6385 148.271 12.5615 148.153C11.5234 146.704 12.9484 144.921 14.2884 143.906C13.3447 144.298 12.5379 144.991 11.5046 145.185C11.3726 145.229 11.2326 145.244 11.0942 145.229C10.9558 145.214 10.8222 145.17 10.7026 145.099C10.583 145.027 10.4802 144.931 10.4011 144.817C10.3221 144.702 10.2688 144.572 10.2447 144.435C9.7729 142.462 12.2689 141.604 13.9676 141.542C13.1419 140.967 10.7826 139.409 12.0377 138.645C13.2928 137.881 16.0767 140.103 16.9827 140.834C18.3085 141.915 19.8939 143.524 19.9553 145.208C20.0308 147.181 18.3133 145.973 17.2799 145.558Z" fill="black"/>
<path d="M17.6669 145.888C15.9494 145.109 12.6512 146.232 12.3681 145.581C11.8019 144.26 14.4348 143.349 15.8597 143.175C14.548 142.821 12.0378 142.255 12.1133 140.99C12.2077 139.447 15.9683 140.773 17.8698 142.231C20.2667 144.071 20.229 145.845 19.8515 146.199C19.3136 146.671 17.95 146.02 17.6669 145.888Z" fill="#5197AF"/>
<path d="M36.531 143.911C28.4342 151.253 26.6742 163.02 27.9246 173.439C27.9624 173.675 28.3257 173.623 28.3351 173.406C28.4248 171.046 28.4436 168.687 28.538 166.38C28.5852 166.276 28.6229 166.177 28.6701 166.073C30.7651 164.658 32.6997 163.068 33.95 160.817C35.3656 158.302 35.9695 155.433 37.0689 152.796C37.1727 152.541 36.8943 152.607 36.7103 152.73C31.8315 156.032 30.1753 159.76 28.6229 164.743C28.7504 162.11 29.1264 159.495 29.7459 156.934C30.9538 152.215 33.1621 147.539 36.7292 144.123C36.8613 143.996 36.6726 143.779 36.531 143.911Z" fill="#09090A"/>
<path d="M37.9655 144.855C39.3056 144.954 40.0652 147.129 41.0844 147.799C41.1907 147.893 41.3156 147.963 41.4511 148.006C41.5865 148.048 41.7293 148.061 41.8701 148.044C42.011 148.027 42.1466 147.98 42.2682 147.907C42.3898 147.834 42.4945 147.736 42.5754 147.62C43.6701 146.204 42.3159 144.373 41.0136 143.326C41.9573 143.755 42.7217 144.477 43.7456 144.708C43.8759 144.758 44.0154 144.778 44.1544 144.769C44.2935 144.759 44.4288 144.719 44.5511 144.653C44.6734 144.586 44.7799 144.494 44.8632 144.382C44.9465 144.27 45.0047 144.142 45.0337 144.005C45.5622 142.052 43.1464 141.08 41.4241 140.971C42.2687 140.434 44.6893 138.966 43.4625 138.14C42.2357 137.315 39.3716 139.443 38.4374 140.141C37.069 141.165 35.427 142.713 35.3043 144.388C35.1486 146.374 36.9133 145.227 37.9655 144.855Z" fill="#5197AF"/>
<path opacity="0.1" d="M37.9655 144.855C39.3056 144.954 40.0652 147.129 41.0844 147.799C41.1907 147.893 41.3156 147.963 41.4511 148.006C41.5865 148.048 41.7293 148.061 41.8701 148.044C42.011 148.027 42.1466 147.98 42.2682 147.907C42.3898 147.834 42.4945 147.736 42.5754 147.62C43.6701 146.204 42.3159 144.373 41.0136 143.326C41.9573 143.755 42.7217 144.477 43.7456 144.708C43.8759 144.758 44.0154 144.778 44.1544 144.769C44.2935 144.759 44.4288 144.719 44.5511 144.653C44.6734 144.586 44.7799 144.494 44.8632 144.382C44.9465 144.27 45.0047 144.142 45.0337 144.005C45.5622 142.052 43.1464 141.08 41.4241 140.971C42.2687 140.434 44.6893 138.966 43.4625 138.14C42.2357 137.315 39.3716 139.443 38.4374 140.141C37.069 141.165 35.427 142.713 35.3043 144.388C35.1486 146.374 36.9133 145.227 37.9655 144.855Z" fill="black"/>
<path d="M37.5644 145.171C39.3102 144.458 42.5612 145.704 42.8679 145.067C43.486 143.764 40.8861 142.759 39.4706 142.528C40.7965 142.226 43.3256 141.754 43.2973 140.49C43.2595 138.942 39.4565 140.127 37.4983 141.509C35.0353 143.255 34.9834 145.029 35.3656 145.397C35.8893 145.907 37.2718 145.289 37.5644 145.171Z" fill="#5197AF"/>
<path d="M28.2785 163.304C27.7295 167.231 26.8889 171.113 25.7636 174.916C25.748 174.991 25.7031 175.057 25.639 175.099C25.5748 175.141 25.4966 175.155 25.4215 175.14C25.3464 175.124 25.2806 175.079 25.2386 175.015C25.1966 174.951 25.1818 174.873 25.1974 174.798C25.7306 171.221 26.6979 167.72 27.231 164.129C27.8109 160.51 28.0196 156.84 27.8539 153.178C27.5094 147.152 25.8721 140.735 21.9417 136.022C21.852 135.908 22.0361 135.748 22.1257 135.852C30.0008 145.039 28.7315 156.297 28.7315 157.307C29.8498 153.503 30.9963 149.148 35.2146 145.275C35.3986 145.109 35.5402 145.19 35.5072 145.473C34.7522 152.522 32.7941 156.207 28.7032 159.977C28.5758 161.091 28.4295 162.204 28.2785 163.304Z" fill="#09090A"/>
<path d="M21.8427 137.074C20.4272 136.446 18.4737 138.249 17.0724 138.376C16.3316 138.442 15.7795 138.15 15.6568 137.385C15.3077 135.361 17.6858 134.224 19.5779 133.861C18.3841 133.785 17.2186 134.106 16.0438 133.79C15.8832 133.771 15.7286 133.717 15.5908 133.632C15.453 133.548 15.3352 133.434 15.2455 133.3C15.1558 133.165 15.0963 133.013 15.0712 132.853C15.0461 132.693 15.0559 132.53 15.1001 132.374C15.6191 130.1 18.6342 130.435 20.4177 131.247C19.8515 130.237 18.1859 127.434 19.8704 127.269C21.5549 127.104 23.329 130.817 23.8999 132.035C24.7351 133.818 25.5655 136.281 24.7823 138.065C23.8858 140.146 22.7109 138.022 21.8427 137.074Z" fill="#5197AF"/>
<path opacity="0.1" d="M21.8427 137.074C20.4272 136.446 18.4737 138.249 17.0724 138.376C16.3316 138.442 15.7795 138.15 15.6568 137.385C15.3077 135.361 17.6858 134.224 19.5779 133.861C18.3841 133.785 17.2186 134.106 16.0438 133.79C15.8832 133.771 15.7286 133.717 15.5908 133.632C15.453 133.548 15.3352 133.434 15.2455 133.3C15.1558 133.165 15.0963 133.013 15.0712 132.853C15.0461 132.693 15.0559 132.53 15.1001 132.374C15.6191 130.1 18.6342 130.435 20.4177 131.247C19.8515 130.237 18.1859 127.434 19.8704 127.269C21.5549 127.104 23.329 130.817 23.8999 132.035C24.7351 133.818 25.5655 136.281 24.7823 138.065C23.8858 140.146 22.7109 138.022 21.8427 137.074Z" fill="black"/>
<path d="M22.0832 137.616C20.6677 135.941 16.7042 135.446 16.7373 134.63C16.8128 132.969 20.0071 133.356 21.5737 133.889C20.394 132.86 18.0726 131.011 18.7851 129.737C19.6627 128.184 22.8948 131.454 24.131 133.922C25.6928 137.036 24.7869 138.867 24.1971 139.037C23.3855 139.268 22.3097 137.89 22.0832 137.616Z" fill="#5197AF"/>
<path d="M33.4358 165.427L36.9085 191.968H15.77C16.2041 189.609 20.1393 165.394 20.1393 165.394L33.4358 165.427Z" fill="#5197AF"/>
<path d="M68.857 82.9346C68.4015 81.3526 67.6958 79.8536 66.7668 78.4945C65.802 77.1503 64.6788 75.9273 63.4214 74.8519C58.4057 70.4873 51.4932 68.7982 44.9582 69.2464C41.9727 69.4269 39.0459 70.1546 36.3235 71.3933C34.9969 72.012 33.7668 72.8193 32.6714 73.7902C31.657 74.6915 30.5151 75.8003 30.0433 77.0931C30.0282 77.1397 30.0286 77.1898 30.0443 77.2361C30.0601 77.2824 30.0905 77.3223 30.1308 77.3499C30.1712 77.3775 30.2194 77.3913 30.2682 77.3893C30.3171 77.3872 30.364 77.3694 30.4019 77.3385C31.0011 76.8667 31.506 76.2721 32.0769 75.7531C32.6528 75.2385 33.2646 74.7655 33.9077 74.3376C35.1708 73.5063 36.5145 72.8045 37.9183 72.2426C43.5285 69.9778 50.1862 70.0344 55.8483 72.0822C58.5941 73.0845 61.1288 74.5903 63.3223 76.5222C64.3558 77.4356 65.3034 78.4417 66.1534 79.5279C67.0646 80.6309 67.9046 81.7908 68.6683 83.0006C68.7532 83.0667 68.8995 83.0384 68.857 82.9346Z" fill="#09090A"/>
<path d="M64.7189 74.0076C64.1519 73.1025 63.4392 72.2974 62.6097 71.6248C61.7409 70.9865 60.8226 70.4185 59.8636 69.9261C56.3514 68.0313 52.5062 66.8329 48.5394 66.3967C46.6255 66.186 44.6903 66.2816 42.8065 66.6799C41.9137 66.8796 41.0331 67.1301 40.1689 67.4301C39.2888 67.69 38.4523 68.0796 37.687 68.5861C37.669 68.6031 37.6569 68.6253 37.6522 68.6496C37.6476 68.6739 37.6507 68.6991 37.6611 68.7215C37.6716 68.744 37.6888 68.7625 37.7104 68.7747C37.7319 68.7868 37.7568 68.7918 37.7814 68.789C38.7911 68.5814 39.7584 68.2086 40.7729 68.0152C41.7873 67.8217 42.7357 67.784 43.7266 67.6896C55.3198 66.6138 63.7044 73.7811 64.5254 74.2105C64.5531 74.2303 64.5871 74.2395 64.6211 74.2363C64.6551 74.2331 64.6867 74.2178 64.7103 74.1931C64.7338 74.1684 64.7477 74.136 64.7492 74.1019C64.7508 74.0678 64.74 74.0343 64.7189 74.0076Z" fill="#09090A"/>
<path d="M24.6075 110.703C26.9668 112.227 29.7601 111.113 31.6097 109.325C33.5348 107.466 34.8465 105.031 35.8563 102.582C36.8 100.346 37.4653 98.0101 38.2155 95.7028C38.9657 93.3955 39.631 90.9844 40.8201 88.8752C41.9327 86.858 43.7988 85.3635 46.0103 84.7183C48.4065 84.0735 50.9539 84.3026 53.1965 85.3647C54.3842 85.8886 55.4618 86.6332 56.372 87.5588C57.2055 88.4644 57.8546 89.5238 58.2829 90.6777C59.2785 93.169 59.7787 95.8207 60.3826 98.4206C60.8781 100.572 61.9067 102.511 63.9215 103.573C65.639 104.479 67.7528 104.753 69.4986 103.776C69.5247 103.764 69.5452 103.742 69.5564 103.715C69.5676 103.689 69.5686 103.659 69.5593 103.632C69.55 103.604 69.531 103.581 69.5059 103.567C69.4808 103.553 69.4514 103.548 69.4231 103.554C68.3236 103.768 67.1894 103.725 66.1091 103.429C65.0288 103.133 64.0314 102.591 63.1948 101.846C62.3325 100.973 61.7353 99.8739 61.4726 98.6754C61.0951 97.2599 60.812 95.8019 60.4251 94.3769C59.7834 92.0177 59.1464 89.4367 57.5941 87.4738C56.013 85.5724 53.8816 84.2076 51.4931 83.567C49.1938 82.8979 46.7382 83.0041 44.5051 83.869C42.2849 84.7872 40.4739 86.4808 39.4092 88.6346C37.1821 92.8812 36.4649 97.7223 34.7474 102.167C33.9571 104.374 32.7777 106.421 31.2652 108.211C29.694 109.967 27.1697 111.269 24.8199 110.292C24.7657 110.266 24.7036 110.263 24.6467 110.282C24.5898 110.301 24.5426 110.341 24.515 110.395C24.4874 110.448 24.4816 110.51 24.4989 110.567C24.5162 110.625 24.5551 110.673 24.6075 110.703Z" fill="#09090A"/>
<path d="M24.0933 103.262C25.1786 103.408 26.1741 102.592 26.679 101.695C27.3654 100.405 27.8914 99.0362 28.2455 97.6185C28.9931 94.6858 29.9389 91.8072 31.0766 89.0027C32.964 84.6098 35.9035 80.3727 40.136 77.938C42.2331 76.7167 44.5719 75.9687 46.9885 75.7462C49.4051 75.5237 51.8412 75.8321 54.1261 76.6498C56.3017 77.4433 58.2902 78.6769 59.9675 80.2736C61.6936 81.9718 63.0831 83.9809 64.0631 86.1952C65.0424 88.4904 65.8469 90.8564 66.4695 93.2728C66.7479 94.2401 67.1395 95.415 68.0738 95.9387C68.4222 96.1571 68.8368 96.2446 69.2438 96.1859C69.6508 96.1271 70.0237 95.9259 70.2961 95.6179C70.348 95.5566 70.2631 95.4905 70.2065 95.5282C69.9418 95.704 69.6257 95.7856 69.309 95.7599C68.9924 95.7342 68.6936 95.6028 68.4607 95.3867C67.9565 94.9587 67.6218 94.3646 67.517 93.7117C67.2008 92.4094 66.9461 91.0976 66.5733 89.8001C65.8761 87.1637 64.7764 84.6507 63.3129 82.3497C61.9946 80.3756 60.2988 78.6817 58.3233 77.3656C56.3477 76.0495 54.1313 75.1372 51.8017 74.6811C49.4722 74.225 47.0754 74.2342 44.7494 74.7081C42.4233 75.182 40.214 76.1113 38.2486 77.4425C34.1719 80.2075 31.4116 84.4683 29.5856 88.9649C28.6418 91.4295 27.8539 93.951 27.2264 96.5144C26.915 97.8106 26.5306 99.0882 26.0751 100.341C25.8619 100.89 25.6096 101.423 25.3201 101.936C25.2159 102.172 25.0508 102.375 24.8419 102.526C24.6329 102.677 24.3876 102.77 24.1311 102.795C24.0691 102.79 24.0077 102.809 23.9604 102.85C23.913 102.89 23.8836 102.947 23.8786 103.009C23.8736 103.071 23.8934 103.133 23.9337 103.18C23.974 103.227 24.0314 103.257 24.0933 103.262Z" fill="#09090A"/>
<path d="M25.4097 112.741C25.4027 112.793 25.4158 112.846 25.4465 112.889C25.4772 112.932 25.5231 112.962 25.5748 112.972C25.9579 113.063 26.3476 113.123 26.7403 113.152C26.9163 113.161 27.0927 113.161 27.2687 113.152C29.3496 113.048 31.5153 111.868 33.6952 109.646C35.538 107.765 37.0559 105.592 38.1872 103.215C39.0792 101.178 39.7652 99.0562 40.235 96.8825C40.386 96.2739 40.5417 95.6605 40.7068 95.0565C41.2211 93.1219 42.1554 90.3381 44.2645 88.5828C44.9763 87.9897 45.8122 87.5639 46.7105 87.3369C47.6088 87.1099 48.5466 87.0874 49.4548 87.2711C50.8647 87.5571 52.2008 88.1297 53.3802 88.9536C54.5595 89.7774 55.557 90.8349 56.3106 92.0603C57.4927 94.0304 57.9186 96.3629 57.5091 98.6236C57.0077 101.067 55.8212 103.317 54.0883 105.111C52.2837 106.969 50.1451 108.468 47.7845 109.533C46.7841 110.004 45.4583 110.632 44.0994 111.132L43.3208 111.42C42.33 111.783 41.3108 112.151 40.3341 112.581C40.2708 112.611 40.2206 112.664 40.1928 112.728C40.165 112.793 40.1613 112.865 40.1825 112.932C40.2037 112.999 40.2484 113.056 40.3082 113.093C40.3681 113.13 40.4393 113.144 40.5086 113.133C41.1928 112.987 41.8675 112.798 42.4951 112.614C47.0484 111.307 52.7199 109.193 56.1785 104.423C57.7416 102.355 58.6489 99.867 58.7831 97.2789C58.8448 94.9044 58.107 92.578 56.6881 90.6731C54.9027 88.2191 52.2292 86.5598 49.2377 86.049C48.2533 85.887 47.246 85.9291 46.2785 86.1726C45.311 86.4161 44.4038 86.8558 43.6134 87.4646C41.8675 88.8187 40.5841 90.9751 39.6924 94.0704C39.447 94.9102 39.2205 95.769 39.0176 96.5994C38.5675 98.6091 37.9358 100.574 37.1302 102.469C35.9905 104.941 34.4163 107.188 32.4826 109.103C30.9019 110.66 28.4389 112.515 25.6692 112.519C25.6056 112.515 25.543 112.536 25.4946 112.578C25.4461 112.619 25.4157 112.678 25.4097 112.741Z" fill="#09090A"/>
<path d="M24.5038 105.984C25.0926 106.117 25.7044 106.109 26.2897 105.962C26.8749 105.814 27.4173 105.531 27.8728 105.135C28.9061 104.309 29.4393 102.936 29.8639 101.719C30.8501 98.8877 31.6145 95.9623 32.5959 93.1171C34.12 88.6818 36.3706 84.1521 40.3671 81.4814C42.1644 80.3001 44.1933 79.5165 46.318 79.1828C48.4427 78.8492 50.6141 78.9733 52.687 79.5469C54.9814 80.1962 57.0613 81.4455 58.7124 83.1659C60.2265 84.8446 61.4268 86.7816 62.2559 88.8846C62.6947 89.9416 63.0722 91.0174 63.4072 92.112C63.7136 93.2702 64.0789 94.412 64.5019 95.5329C65.2757 97.392 67.2244 99.6238 69.4704 98.7037C69.5068 98.6861 69.5364 98.6569 69.5546 98.6208C69.5729 98.5847 69.5786 98.5436 69.5711 98.5038C69.5636 98.464 69.5432 98.4279 69.513 98.4009C69.4829 98.3739 69.4447 98.3576 69.4043 98.3545C68.7788 98.2963 68.1734 98.1029 67.6299 97.7876C67.0865 97.4723 66.6181 97.0427 66.2571 96.5285C65.4597 95.4055 65.153 94.0183 64.7897 92.7113C64.154 90.27 63.2156 87.9177 61.9964 85.7091C60.9095 83.7553 59.4299 82.0475 57.6507 80.6935C55.7248 79.3013 53.5025 78.3742 51.1582 77.9851C49.0128 77.6348 46.819 77.717 44.7057 78.2266C42.5925 78.7363 40.6024 79.6632 38.8525 80.953C34.9693 83.8548 32.7563 88.4034 31.2417 92.8906C30.3877 95.4102 29.7271 97.9818 28.9438 100.52C28.3493 102.455 27.2971 105.711 24.6548 105.281C24.5677 105.275 24.4814 105.301 24.4117 105.354C24.342 105.406 24.2935 105.482 24.2752 105.567C24.2569 105.653 24.2699 105.742 24.3119 105.818C24.3538 105.895 24.422 105.954 24.5038 105.984Z" fill="#09090A"/>
<path d="M24.3103 107.834C24.6207 108.184 24.9956 108.47 25.4144 108.678C26.2826 109.113 27.5519 108.971 28.4201 108.622C29.487 108.134 30.3828 107.336 30.9916 106.333C31.657 105.261 32.2195 104.128 32.6714 102.95C33.214 101.643 33.6858 100.299 34.1482 98.9585C35.0919 96.2642 35.9365 93.5464 36.9793 90.8852C37.8852 88.526 39.0129 86.2753 40.9097 84.5578C42.5985 83.0084 44.6951 81.9741 46.9523 81.577C49.2096 81.1799 51.5333 81.4365 53.6495 82.3166C55.8202 83.2284 57.6665 84.7722 58.9483 86.7472C60.3638 88.9035 61.0055 91.4184 61.6283 93.8767C62.1851 96.0661 62.6334 98.43 64.0347 100.265C65.2002 101.799 67.6821 103.012 69.3194 101.417C69.3366 101.402 69.3478 101.381 69.3508 101.358C69.3538 101.335 69.3485 101.312 69.3358 101.293C69.3231 101.274 69.3039 101.261 69.2817 101.255C69.2596 101.249 69.2361 101.251 69.2156 101.261C68.0454 101.841 66.6723 101.445 65.6956 100.652C64.7961 99.8644 64.1219 98.8515 63.7422 97.7175C62.7749 95.212 62.3927 92.5273 61.5056 89.9746C60.7796 87.7117 59.5132 85.6598 57.8158 83.9963C56.1862 82.4396 54.2001 81.3056 52.0311 80.6934C49.8299 80.1228 47.5185 80.1314 45.3217 80.7185C43.1249 81.3055 41.1173 82.451 39.4942 84.0435C37.6965 85.8507 36.5688 88.1297 35.6581 90.4842C34.6672 93.0652 33.8651 95.7169 32.9686 98.3356C32.4968 99.6757 32.0249 101.006 31.5012 102.332C31.1029 103.474 30.6056 104.579 30.0149 105.635C29.4705 106.618 28.6185 107.396 27.5896 107.848C27.1104 108.06 26.5834 108.141 26.0626 108.082C25.5419 108.023 25.0462 107.827 24.6264 107.513C24.4094 107.348 24.1499 107.655 24.3103 107.834Z" fill="#09090A"/>
<path d="M69.8761 94.2164C69.9115 93.6035 69.9115 92.9891 69.8761 92.3762C69.3855 87.3178 67.2278 82.5658 63.7421 78.8673C60.5136 75.369 56.2123 73.0449 51.5167 72.2616C46.9028 71.5578 42.184 72.2822 37.9937 74.3377C33.8241 76.3963 30.3916 79.692 28.1652 83.7745C25.8752 87.799 24.8416 92.4166 25.1973 97.0333C25.1973 97.1324 25.3578 97.1135 25.3625 97.0333C25.6613 92.0511 27.2782 87.2377 30.0479 83.0856C32.5115 79.4622 35.9777 76.6354 40.0226 74.9511C44.0588 73.2953 48.5071 72.9229 52.7624 73.8847C57.1455 74.9731 61.0496 77.4714 63.8743 80.9954C65.3656 82.8641 66.568 84.9461 67.4414 87.1718C68.3044 89.4746 68.9875 91.8409 69.4845 94.2494C69.5552 94.4287 69.8619 94.4287 69.8761 94.2164Z" fill="#09090A"/>
<path d="M62.6711 111.236C63.1901 110.471 64.3037 111.146 64.8793 111.467C65.7428 111.939 66.6723 112.585 67.7104 112.411C67.7273 112.405 67.7457 112.406 67.7616 112.414C67.7775 112.422 67.7897 112.436 67.7953 112.453C67.8009 112.47 67.7996 112.489 67.7917 112.504C67.7837 112.52 67.7697 112.533 67.7528 112.538C67.4161 112.705 67.0464 112.794 66.6708 112.799C66.2952 112.803 65.9233 112.724 65.5824 112.566C65.215 112.416 64.8559 112.246 64.5066 112.057C64.1757 111.866 63.8222 111.717 63.4543 111.613C63.387 111.604 63.3188 111.604 63.2514 111.613C63.1807 111.613 63.1996 111.613 63.1901 111.637C63.1241 111.76 63.2279 112.019 63.2656 112.142C63.3529 112.461 63.4748 112.769 63.6289 113.062C63.9566 113.664 64.3716 114.214 64.8604 114.694C65.1355 114.976 65.4269 115.24 65.7333 115.487C66.0448 115.737 66.4128 115.926 66.7101 116.19C66.7345 116.203 66.7526 116.226 66.7606 116.252C66.7686 116.279 66.7657 116.307 66.7525 116.332C66.7394 116.356 66.7171 116.374 66.6905 116.382C66.664 116.39 66.6354 116.387 66.611 116.374C66.2519 116.263 65.9091 116.104 65.5918 115.902C65.2599 115.708 64.9444 115.487 64.6481 115.242C64.0494 114.749 63.5457 114.151 63.1618 113.477C62.969 113.142 62.8109 112.788 62.69 112.42C62.5941 112.238 62.5425 112.036 62.5392 111.83C62.536 111.625 62.5811 111.421 62.6711 111.236Z" fill="#09090A"/>
<path d="M64.2518 112.698C64.8149 112.957 65.3403 113.29 65.8136 113.689C66.0244 113.866 66.2414 114.031 66.4648 114.185C66.5733 114.26 66.6913 114.331 66.8045 114.397C66.9206 114.457 67.0404 114.509 67.1631 114.553C67.1865 114.56 67.207 114.574 67.2216 114.594C67.2361 114.613 67.244 114.637 67.244 114.661C67.244 114.686 67.2361 114.709 67.2216 114.729C67.207 114.749 67.1865 114.763 67.1631 114.77C66.6016 114.907 66.0118 114.539 65.5872 114.218C65.0515 113.829 64.5747 113.365 64.1716 112.84C64.1056 112.793 64.1622 112.698 64.2518 112.698Z" fill="#09090A"/>
<path d="M27.3679 114.43C27.3656 114.441 27.3656 114.452 27.3679 114.463C27.3711 114.502 27.3866 114.538 27.4121 114.567C27.4376 114.596 27.4717 114.616 27.5094 114.624C27.6485 114.66 27.7907 114.682 27.9341 114.69C28.4329 114.698 28.9302 114.634 29.4109 114.501C30.0841 114.341 30.7387 114.112 31.3644 113.817C32.5873 113.226 33.7188 112.461 34.7239 111.547C38.1448 108.556 40.5511 104.295 41.877 98.8737C41.962 98.5151 42.0516 98.1518 42.1365 97.7932C42.6084 95.835 43.0802 93.8156 44.1655 92.1311C44.7361 91.2407 45.513 90.501 46.4303 89.9748C47.3859 89.4953 48.4481 89.2679 49.5162 89.3142C49.5712 89.3117 49.6238 89.2911 49.6659 89.2557C49.708 89.2202 49.7373 89.1719 49.7491 89.1181C49.7609 89.0643 49.7547 89.0081 49.7313 88.9583C49.708 88.9084 49.6688 88.8677 49.62 88.8423C48.3979 88.2431 46.8786 88.8093 46.284 89.0783C45.2298 89.5788 44.306 90.3169 43.5851 91.2346C42.1696 92.9851 41.6411 95.2311 41.1315 97.4016L40.9994 97.9442C40.455 100.396 39.6136 102.773 38.4939 105.022C37.3427 107.229 35.7999 109.208 33.9406 110.863C33.0406 111.689 32.0384 112.396 30.9586 112.968C30.404 113.246 29.83 113.484 29.2411 113.68C29.0429 113.746 28.84 113.798 28.6371 113.855C28.2383 113.948 27.8508 114.084 27.4811 114.26C27.4486 114.276 27.4209 114.3 27.4009 114.33C27.381 114.36 27.3696 114.394 27.3679 114.43Z" fill="#09090A"/>
<path d="M39.2063 111.755C39.2036 111.791 39.211 111.828 39.2276 111.86C39.2443 111.893 39.2696 111.92 39.3007 111.939C39.3283 111.959 39.3611 111.97 39.3951 111.972C39.4294 111.973 39.4636 111.966 39.4942 111.95C39.5249 111.935 39.5508 111.911 39.5697 111.882C39.9833 111.372 40.5281 110.984 41.1456 110.759C41.7024 110.5 42.2827 110.287 42.8442 110.056L43.099 109.952C44.642 109.348 45.8971 108.811 47.0484 108.259C52.1537 105.81 55.1971 102.639 56.1077 98.8217C56.6248 96.786 56.3693 94.631 55.3905 92.7727C54.9462 91.8882 54.3223 91.1061 53.5586 90.4764C52.7949 89.8468 51.9082 89.3834 50.9552 89.1159C50.8989 89.1013 50.8392 89.1075 50.7871 89.1336C50.7351 89.1596 50.6942 89.2036 50.6721 89.2574C50.6497 89.3067 50.6464 89.3625 50.663 89.414C50.6796 89.4655 50.7148 89.5089 50.7618 89.5358C52.5904 90.595 54.0197 92.2266 54.829 94.1787C55.8624 96.9154 55.3622 101.389 50.54 105.008C48.7369 106.281 46.7945 107.345 44.7505 108.178C43.7313 108.627 42.58 109.122 41.4759 109.721C41.0187 109.951 40.5828 110.221 40.1736 110.528C39.7974 110.846 39.4782 111.226 39.2299 111.651C39.2111 111.682 39.2029 111.719 39.2063 111.755Z" fill="#09090A"/>
<path d="M25.858 115.388C26.5515 115.805 27.3381 116.042 28.1464 116.077C29.6262 116.099 31.0875 115.746 32.393 115.048C34.335 114.022 36.0962 112.684 37.6068 111.09C37.7531 110.939 37.8899 110.783 38.0315 110.618L38.1589 110.481C38.1927 110.465 38.2232 110.442 38.2485 110.415C39.4423 109.226 41.0796 108.565 42.6508 107.924C43.1982 107.702 43.7691 107.452 44.3023 107.225C46.9399 105.998 48.7376 104.781 50.1248 103.271C51.5315 101.814 52.4187 99.933 52.6492 97.9205C52.8143 96.1747 52.4038 93.74 50.7193 92.6075C49.0349 91.4751 46.9021 92.282 45.6518 93.6456C44.1985 95.2357 43.4577 97.4817 42.8584 99.3077L42.6508 99.9447C42.1058 101.769 41.4082 103.545 40.5653 105.253C39.6334 107.017 38.4668 108.647 37.0973 110.099C35.7351 111.542 34.1826 112.793 32.4826 113.817C30.2461 115.152 28.0662 115.558 26.0137 115.039H25.9759C25.9332 115.037 25.891 115.049 25.8548 115.071C25.8186 115.094 25.7901 115.127 25.773 115.166C25.7597 115.207 25.7608 115.252 25.7762 115.292C25.7917 115.333 25.8206 115.366 25.858 115.388ZM40.1548 107.98C40.4945 107.508 40.7918 107.036 41.056 106.565C42.0411 104.814 42.8322 102.961 43.4152 101.039C43.5143 100.733 43.6087 100.426 43.7125 100.096C44.2551 98.3782 44.8166 96.5993 45.8122 95.0989C46.2887 94.2975 47.0027 93.6643 47.8553 93.287C48.2438 93.134 48.6602 93.0649 49.0773 93.0841C49.5755 93.1028 50.0506 93.2986 50.4174 93.6362C51.8329 94.9573 51.9225 97.3779 51.361 99.1897C50.7217 101.009 49.5535 102.596 48.0062 103.748C46.2557 105.14 44.1843 106.069 42.3441 106.89L42.1696 106.966C41.5137 107.31 40.8106 107.626 40.1548 107.98Z" fill="#09090A"/>
<path d="M43.2265 104.838C43.2152 104.879 43.2163 104.923 43.2297 104.964C43.2431 105.006 43.2682 105.042 43.302 105.069C43.3367 105.097 43.3797 105.114 43.4247 105.116C43.4547 105.118 43.4847 105.113 43.5125 105.101C43.5403 105.09 43.5651 105.072 43.5851 105.05C43.6889 104.946 44.4533 104.399 44.8213 104.149C44.9393 104.069 45.0619 103.993 45.1799 103.908C45.43 103.743 45.6895 103.573 45.9349 103.384C46.6706 102.827 47.3616 102.214 48.0015 101.549C49.2378 100.251 49.8181 98.9537 49.7143 97.6845C49.7125 97.3713 49.6232 97.0648 49.4565 96.7997C49.2897 96.5345 49.0522 96.3213 48.7706 96.184C48.428 96.0692 48.0578 96.0663 47.7134 96.1757C47.3691 96.2851 47.0684 96.5012 46.8549 96.7927C46.4257 97.3647 46.0912 98.0019 45.8641 98.6801C45.647 99.2274 45.4536 99.7983 45.2601 100.346L45.1044 100.789C44.5737 102.11 43.9541 103.393 43.2501 104.63C43.2277 104.659 43.2136 104.694 43.2095 104.731C43.2053 104.767 43.2112 104.804 43.2265 104.838ZM45.6376 101.572C46.0829 100.409 46.6063 99.2774 47.2041 98.1846L47.2324 98.1375C47.3928 97.8544 47.775 97.1938 48.1431 97.1183H48.2233C48.3009 97.1248 48.3749 97.1544 48.4356 97.2032C48.7565 97.4533 48.7093 98.1469 48.5583 98.6706C48.2091 99.9257 47.1428 100.94 46.3123 101.756L45.6517 102.389C45.4253 102.601 45.2035 102.818 44.9817 103.035C45.2648 102.511 45.4677 101.997 45.6376 101.572Z" fill="#09090A"/>
<path d="M46.2085 126.127C45.3934 127.746 44.6626 129.406 44.0191 131.1C44.0175 131.111 44.0195 131.122 44.0248 131.132C44.03 131.142 44.0382 131.15 44.0483 131.155C44.0583 131.159 44.0696 131.161 44.0805 131.159C44.0914 131.157 44.1013 131.151 44.1088 131.143C45.0289 129.774 45.7932 128.312 46.6567 126.896C47.2229 125.986 48.2468 123.858 49.6293 124.202C50.2097 124.344 50.6249 124.985 50.9458 125.443C51.3664 126.076 51.8233 126.684 52.3141 127.264C53.0691 128.123 54.4846 129.246 55.7208 128.944C55.7774 128.944 55.8105 128.84 55.7538 128.812C55.4235 128.637 55.0744 128.529 54.7488 128.34C54.3899 128.138 54.0572 127.892 53.7579 127.609C53.1805 127.019 52.6709 126.367 52.2386 125.665C51.5308 124.57 50.7051 123.126 49.1669 123.305C47.742 123.471 46.77 124.966 46.2085 126.127Z" fill="#09090A"/>
<path d="M25.792 116.61C27.2877 118.578 29.9631 118.229 31.8976 117.181C33.0124 116.533 34.0645 115.783 35.0401 114.94C36.0721 114.07 37.1772 113.29 38.343 112.609C38.3574 112.605 38.3694 112.595 38.3765 112.581C38.3836 112.568 38.3851 112.553 38.3807 112.538C38.3764 112.524 38.3664 112.512 38.3532 112.505C38.3399 112.498 38.3243 112.496 38.31 112.501C35.9177 112.883 34.1908 114.86 32.2421 116.105C30.4113 117.285 27.7548 117.993 25.8675 116.502C25.8203 116.445 25.7448 116.549 25.792 116.61Z" fill="#09090A"/>
<path d="M64.7472 120.338C64.8982 120.338 64.9596 120.111 64.8039 120.073C62.388 119.474 60.4818 117.662 59.3116 115.506C58.2532 113.54 57.6426 111.365 57.5233 109.136C57.4142 107.46 57.6619 105.779 58.25 104.205C58.4053 103.68 58.6762 103.197 59.0427 102.79C59.1257 102.685 59.2303 102.598 59.3494 102.536C59.4685 102.475 59.5994 102.439 59.7333 102.432C59.8673 102.425 60.0012 102.446 60.1262 102.495C60.2512 102.544 60.3644 102.618 60.4582 102.714C60.7163 103.073 60.9481 103.45 61.1518 103.842C61.7072 104.675 62.4466 105.369 63.3128 105.871C64.1748 106.372 65.1474 106.653 66.1439 106.687C67.2019 106.715 68.2465 106.445 69.159 105.909C69.2203 105.871 69.192 105.753 69.1165 105.777C67.8589 106.161 66.5158 106.164 65.2563 105.786C63.9969 105.408 62.8774 104.666 62.0389 103.653C61.4632 102.913 61.1518 101.766 60.0524 101.681C58.953 101.596 58.1886 102.474 57.7545 103.384C56.7882 105.567 56.4704 107.981 56.8392 110.339C57.4195 114.496 59.9203 120.116 64.7472 120.338Z" fill="#09090A"/>
<path d="M47.289 129.534C47.1376 129.964 47.0688 130.418 47.0862 130.874C47.0896 130.887 47.0969 130.9 47.107 130.91C47.1171 130.919 47.1297 130.926 47.1435 130.929C47.1572 130.932 47.1714 130.931 47.1847 130.926C47.1979 130.921 47.2095 130.913 47.2183 130.902C47.4372 130.559 47.6042 130.185 47.7137 129.793C47.86 129.388 48.011 128.982 48.1855 128.585C48.3576 128.187 48.5595 127.802 48.7895 127.434C48.8652 127.272 48.9672 127.124 49.0915 126.995L49.1245 126.972L49.2 127.047C49.2709 127.115 49.3371 127.188 49.3982 127.264C49.8773 127.923 50.394 128.553 50.9458 129.152C51.4177 129.59 52.1679 130.067 52.8332 129.916C52.8422 129.912 52.8499 129.905 52.8552 129.897C52.8606 129.889 52.8635 129.879 52.8635 129.869C52.8635 129.859 52.8606 129.849 52.8552 129.841C52.8499 129.832 52.8422 129.826 52.8332 129.822C52.4544 129.628 52.1037 129.383 51.7904 129.095C51.4984 128.793 51.2347 128.464 51.0024 128.114C50.7335 127.746 50.4929 127.354 50.2003 127C49.9078 126.646 49.5822 126.188 49.1151 126.188C48.648 126.188 48.4262 126.608 48.2422 126.943C48.0182 127.343 47.8288 127.762 47.676 128.194C47.5486 128.637 47.407 129.081 47.289 129.534Z" fill="#09090A"/>
<path d="M65.8749 117.794C65.8931 117.8 65.9126 117.799 65.9301 117.792C65.9476 117.784 65.9618 117.771 65.9703 117.754C65.9788 117.737 65.981 117.717 65.9765 117.699C65.972 117.68 65.9611 117.664 65.9457 117.653C65.3659 117.163 64.8291 116.625 64.3414 116.044C63.877 115.438 63.4454 114.808 63.0486 114.157C62.2586 113.034 61.5821 111.836 61.0291 110.58C60.7435 109.97 60.5953 109.305 60.595 108.631C60.6847 107.688 61.6331 108.376 62.0436 108.73C62.5002 109.178 62.9891 109.591 63.5063 109.967C64.5337 110.628 65.7532 110.925 66.9696 110.811C67.5547 110.707 68.1178 110.504 68.6352 110.212C68.7532 110.16 68.6682 110 68.5503 110.037C68.0875 110.151 67.6105 110.195 67.1347 110.169C66.7434 110.177 66.3522 110.153 65.9646 110.099C65.1586 109.973 64.392 109.665 63.7233 109.197C62.9212 108.627 61.449 106.711 60.3261 107.636C59.3541 108.433 60.1043 110.287 60.4959 111.193C61.144 112.568 61.9347 113.872 62.8551 115.081C63.6101 116.119 64.6104 117.36 65.8749 117.794Z" fill="#09090A"/>
<path d="M28.8022 121.404C29.8306 121.609 30.8983 121.429 31.8031 120.899C31.9966 120.795 32.1759 120.677 32.3646 120.559C32.2656 120.673 32.1712 120.781 32.0815 120.894C31.4334 121.686 31.0271 122.648 30.9114 123.664C30.911 123.678 30.9151 123.692 30.9229 123.703C30.9307 123.715 30.942 123.723 30.955 123.728C30.9681 123.733 30.9823 123.733 30.9956 123.729C31.009 123.725 31.0207 123.718 31.0293 123.707C31.5578 122.9 32.1004 122.088 32.7044 121.347C33.3083 120.607 34.0114 119.875 34.5917 119.097C34.6143 119.062 34.6263 119.022 34.6263 118.981C34.6263 118.939 34.6143 118.899 34.5918 118.865C34.5693 118.83 34.5372 118.803 34.4995 118.786C34.4618 118.77 34.4201 118.764 34.3794 118.771C33.3791 118.998 32.6289 119.715 31.7418 120.187C30.8032 120.678 29.8125 121.063 28.7881 121.333C28.7503 121.333 28.7503 121.395 28.8022 121.404Z" fill="#09090A"/>
<path d="M39.7537 125.82C39.217 126.82 38.7442 127.852 38.3381 128.911C38.325 128.937 38.3226 128.966 38.3314 128.994C38.3403 129.021 38.3597 129.044 38.3853 129.057C38.411 129.07 38.4408 129.073 38.4682 129.064C38.4956 129.055 38.5184 129.036 38.5316 129.01C39.3337 127.93 39.9801 126.731 40.7256 125.608C41.4712 124.485 42.2119 123.466 43.0235 122.442C44.3137 120.775 45.8772 119.339 47.6476 118.195C48.1014 117.906 48.5743 117.647 49.0631 117.422C49.5671 117.137 50.1314 116.975 50.7098 116.95C51.7573 117.006 52.4368 118.011 52.9039 118.79C54.0316 120.677 54.9942 122.669 56.74 124.108C57.5046 124.773 58.4274 125.232 59.42 125.438C59.8428 125.561 60.2933 125.547 60.7082 125.4C60.8356 125.32 60.9158 125.202 60.7884 125.089C60.7459 125.056 60.6799 125.089 60.7082 125.155C60.7365 125.221 60.0995 125.094 60.0712 125.084L59.6654 124.971C59.3804 124.883 59.104 124.77 58.8397 124.631C58.3354 124.368 57.8609 124.052 57.4242 123.688C56.4925 122.855 55.7105 121.869 55.1121 120.772C54.5695 119.852 54.0882 118.884 53.4843 118.002C53.0141 117.205 52.2967 116.584 51.4412 116.233C50.3654 115.883 49.2754 116.27 48.3034 116.704C47.3658 117.129 46.478 117.656 45.6564 118.276C43.9806 119.547 42.5429 121.104 41.4098 122.876C40.8067 123.828 40.2539 124.811 39.7537 125.82Z" fill="#09090A"/>
<path d="M42.4573 127.925C42.1256 128.713 41.8911 129.538 41.759 130.383C41.7577 130.397 41.7612 130.411 41.7688 130.422C41.7763 130.434 41.7876 130.442 41.8007 130.447C41.8138 130.451 41.828 130.451 41.8409 130.446C41.8539 130.442 41.8649 130.433 41.8722 130.421C42.3441 129.6 42.6743 128.689 43.1651 127.868C43.6558 127.047 44.1087 126.236 44.5806 125.448C45.4634 124.032 46.4861 122.709 47.6334 121.498C48.176 120.946 48.813 120.474 49.6057 120.555C50.3492 120.705 51.0167 121.111 51.4931 121.701C52.5594 122.895 53.0502 124.532 54.1496 125.702C54.6368 126.237 55.2448 126.647 55.9229 126.898C56.6009 127.149 57.3293 127.234 58.047 127.146C58.0942 127.146 58.1083 127.047 58.047 127.033C57.1231 126.812 56.2575 126.395 55.5085 125.811C54.7784 125.184 54.1774 124.421 53.7391 123.565C52.9275 122.15 52.1395 120.611 50.606 119.904C49.9335 119.58 49.1614 119.533 48.4544 119.771C47.7176 120.093 47.0699 120.588 46.567 121.215C45.3684 122.515 44.3365 123.959 43.4954 125.514C43.0925 126.292 42.7456 127.098 42.4573 127.925Z" fill="#09090A"/>
<path d="M35.6298 127.128C35.6184 127.165 35.6213 127.206 35.6378 127.241C35.6543 127.277 35.6834 127.305 35.7194 127.321H35.7808C35.8076 127.321 35.8341 127.315 35.858 127.303C35.8818 127.29 35.9023 127.272 35.9176 127.25C36.6315 126.134 37.4048 125.056 38.2344 124.023C39.106 122.963 40.037 121.953 41.0229 120.998C42.6567 119.33 44.4018 117.774 46.2462 116.341C47.1564 115.648 48.1445 115.064 49.1905 114.6C50.1861 114.166 51.5498 113.576 52.4934 114.416C53.0412 114.984 53.4752 115.652 53.7721 116.384C53.9042 116.657 54.0364 116.922 54.1732 117.172C54.7467 118.237 55.4214 119.245 56.188 120.182C56.9322 121.096 57.8237 121.879 58.8256 122.499C59.7836 123.102 60.8762 123.459 62.0058 123.537C62.0444 123.541 62.0831 123.53 62.1139 123.506C62.1446 123.482 62.1651 123.448 62.1709 123.409C62.1812 123.373 62.1765 123.333 62.158 123.3C62.1395 123.266 62.1085 123.241 62.0718 123.23C58.9341 122.131 56.9193 119.729 55.7869 117.908C55.4708 117.398 55.1829 116.846 54.914 116.318C54.645 115.789 54.3667 115.256 54.0458 114.746C53.3616 113.638 52.484 113.071 51.4554 113.038C50.2192 113.005 48.9358 113.543 47.959 114.006C46.8858 114.524 45.8718 115.157 44.9345 115.893C43.0388 117.435 41.27 119.126 39.6452 120.951C37.9607 122.768 36.2998 124.778 35.6298 127.128Z" fill="#09090A"/>
<path d="M65.0822 119.347C65.2379 119.422 65.3323 119.191 65.2143 119.097C63.6342 117.895 62.2713 116.431 61.1848 114.77C60.295 113.322 59.6807 111.723 59.3729 110.051C59.2099 109.196 59.1262 108.327 59.1229 107.456C59.1229 106.819 58.9577 105.21 59.892 105.206C60.8262 105.201 61.3405 106.324 61.8831 106.862C62.503 107.491 63.2341 108 64.0395 108.362C64.8381 108.736 65.7271 108.874 66.6016 108.76C67.4761 108.645 68.2996 108.283 68.9749 107.716C68.9857 107.707 68.9928 107.695 68.995 107.681C68.9971 107.667 68.9941 107.653 68.9865 107.641C68.9789 107.63 68.9673 107.621 68.9538 107.617C68.9404 107.614 68.926 107.615 68.9136 107.621C66.8375 108.777 64.115 107.876 62.5107 106.329C61.8595 105.706 61.3311 104.805 60.4063 104.554C60.2192 104.481 60.0188 104.449 59.8183 104.459C59.6178 104.47 59.4218 104.523 59.2433 104.615C59.0647 104.707 58.9078 104.835 58.783 104.993C58.6581 105.15 58.5681 105.332 58.5189 105.526C58.3309 106.396 58.2768 107.288 58.3585 108.174C58.4014 109.071 58.5374 109.961 58.7643 110.83C59.6938 114.284 61.836 117.705 65.0822 119.347Z" fill="#09090A"/>
<path d="M34.2992 123.773C33.9218 124.424 33.6405 125.127 33.464 125.858C33.4456 125.945 33.4575 126.036 33.4979 126.115C33.5383 126.194 33.6046 126.256 33.6858 126.292C33.721 126.304 33.7574 126.312 33.7943 126.316C33.8525 126.319 33.9104 126.306 33.9619 126.278C34.0133 126.251 34.0565 126.21 34.0868 126.16C34.3652 125.731 34.6295 125.292 34.8937 124.858C35.4563 123.882 36.087 122.947 36.7811 122.06C37.8148 120.81 38.9376 119.637 40.1406 118.55C42.571 116.519 45.1152 114.628 47.7608 112.887C51.5356 110.377 54.126 109.051 54.7205 109.325C55.1263 109.514 55.1452 110.188 55.164 110.741C55.1641 110.898 55.172 111.056 55.1876 111.212C55.2844 111.985 55.423 112.752 55.6029 113.51C55.9194 114.962 56.4658 116.354 57.2213 117.634C57.9158 118.799 58.8582 119.796 59.9816 120.555C60.5949 120.956 62.1851 121.857 63.6478 121.579C63.6859 121.564 63.7189 121.538 63.7427 121.505C63.7666 121.472 63.7804 121.432 63.7824 121.391C63.7844 121.351 63.7745 121.31 63.754 121.275C63.7334 121.239 63.7031 121.21 63.6666 121.192C63.426 121.097 63.1948 121.013 62.9542 120.928C62.4482 120.756 61.9548 120.549 61.4773 120.309C60.7878 119.937 60.1528 119.472 59.5899 118.927C58.4458 117.775 57.5849 116.373 57.075 114.831C56.5996 113.329 56.2833 111.781 56.1313 110.212C56.1272 109.878 56.0474 109.549 55.8979 109.249C55.7483 108.95 55.5329 108.689 55.2678 108.485C54.7111 108.122 53.7532 108.372 53.2814 108.575C50.573 109.735 41.8722 115.294 38.4042 118.512C37.3254 119.537 36.3531 120.669 35.5024 121.89C35.0668 122.495 34.6651 123.123 34.2992 123.773Z" fill="#09090A"/>
<path d="M27.4103 119.333C29.2269 120.121 31.3785 119.333 33.0346 118.512C34.6908 117.691 36.0544 116.582 37.6068 115.681C38.0078 115.454 38.4089 115.242 38.8241 115.048C39.0317 114.954 39.2441 114.864 39.4564 114.784C39.5649 114.742 39.6923 114.661 39.8056 114.699C39.9188 114.737 39.9424 114.699 39.8527 114.789C39.7631 114.878 39.7961 114.869 39.7631 114.907C39.2252 115.577 38.3806 116.058 37.7342 116.615C36.412 117.732 35.2102 118.985 34.1482 120.352C33.1479 121.649 32.1051 123.14 31.789 124.778C31.789 124.858 31.8833 124.886 31.9258 124.83C32.5628 123.961 33.096 123.018 33.7282 122.145C34.3491 121.294 35.0354 120.492 35.7807 119.748C36.446 119.078 37.1396 118.431 37.8427 117.804C38.5457 117.176 39.2865 116.638 39.9188 115.973C40.3576 115.501 41.1409 114.558 40.2821 114.086C39.5885 113.708 38.5599 114.355 37.9465 114.661C36.2101 115.53 34.6436 116.704 32.9544 117.639C32.0852 118.129 31.1621 118.517 30.2036 118.795C29.2895 119.029 28.3531 119.165 27.4103 119.201C27.3348 119.205 27.3348 119.304 27.4103 119.333Z" fill="#09090A"/>
<path d="M49.0773 128.534C49.0765 128.516 49.0765 128.499 49.0773 128.482C49.083 128.465 49.0924 128.451 49.1047 128.439C49.117 128.426 49.132 128.417 49.1484 128.412C49.1648 128.406 49.1822 128.405 49.1993 128.407C49.2164 128.409 49.2328 128.416 49.2472 128.425L49.2849 128.449C49.4501 128.51 49.5586 128.751 49.6199 128.892C49.6813 129.034 49.7756 129.246 49.8559 129.416C50.0116 129.756 50.1484 130.105 50.3277 130.44C50.3373 130.454 50.3413 130.472 50.3387 130.489C50.3361 130.507 50.3272 130.522 50.3138 130.534C50.3003 130.545 50.2832 130.55 50.2657 130.55C50.2482 130.549 50.2317 130.542 50.2192 130.53C49.8848 130.302 49.5992 130.01 49.3793 129.671C49.2806 129.506 49.1939 129.334 49.1198 129.157C49.0734 129.045 49.0432 128.927 49.0301 128.807C49.0162 128.713 49.0327 128.617 49.0773 128.534Z" fill="#09090A"/>
<path d="M12.1179 77.6312H10.7023V61.0884H27.2451V62.5039H12.1179V77.6312Z" fill="#5197AF"/>
<path d="M83.4322 133.814H66.8894V132.398H82.0167V117.271H83.4322V133.814Z" fill="#5197AF"/>
<path d="M27.2451 133.814H10.7023V117.271H12.1179V132.398H27.2451V133.814Z" fill="#5197AF"/>
<path d="M83.4322 77.6312H82.0167V62.5039H66.8894V61.0884H83.4322V77.6312Z" fill="#5197AF"/>
<path d="M87.0748 137.461H85.9565V137.107H86.7209V136.343H87.0748V137.461Z" fill="#5197AF"/>
<path d="M84.0598 137.461H82.1724V137.107H84.0598V137.461ZM80.285 137.461H78.3977V137.107H80.285V137.461ZM76.5103 137.461H74.6229V137.107H76.5103V137.461ZM72.7356 137.461H70.8482V137.107H72.7356V137.461ZM68.9608 137.461H67.0735V137.107H68.9608V137.461ZM65.1861 137.461H63.2987V137.107H65.1861V137.461ZM61.4113 137.461H59.524V137.107H61.4113V137.461ZM57.6366 137.461H55.7492V137.107H57.6366V137.461ZM53.8619 137.461H51.9745V137.107H53.8619V137.461ZM50.0871 137.461H48.1998V137.107H50.0871V137.461ZM46.3124 137.461H44.425V137.107H46.3124V137.461ZM42.5376 137.461H40.6503V137.107H42.5376V137.461ZM38.7629 137.461H36.8755V137.107H38.7629V137.461ZM34.9882 137.461H33.1008V137.107H34.9882V137.461ZM31.2134 137.461H29.3261V137.107H31.2134V137.461ZM27.4387 137.461H25.5513V137.107H27.4387V137.461ZM23.6639 137.461H21.7766V137.107H23.6639V137.461ZM19.8892 137.461H18.0018V137.107H19.8892V137.461ZM16.1145 137.461H14.2271V137.107H16.1145V137.461ZM12.3397 137.461H10.4524V137.107H12.3397V137.461Z" fill="#5197AF"/>
<path d="M8.17796 137.461H7.05969V136.343H7.41357V137.107H8.17796V137.461Z" fill="#5197AF"/>
<path d="M7.41363 134.441H7.04559V132.554H7.39948L7.41363 134.441ZM7.41363 130.666H7.04559V128.779H7.39948L7.41363 130.666ZM7.41363 126.892H7.04559V125.004H7.39948L7.41363 126.892ZM7.41363 123.117H7.04559V121.229H7.39948L7.41363 123.117ZM7.41363 119.342H7.04559V117.455H7.39948L7.41363 119.342ZM7.41363 115.567H7.04559V113.68H7.39948L7.41363 115.567ZM7.41363 111.793H7.04559V109.905H7.39948L7.41363 111.793ZM7.41363 108.018H7.04559V106.131H7.39948L7.41363 108.018ZM7.41363 104.243H7.04559V102.356H7.39948L7.41363 104.243ZM7.41363 100.468H7.04559V98.5811H7.39948L7.41363 100.468ZM7.41363 96.6937H7.04559V94.8063H7.39948L7.41363 96.6937ZM7.41363 92.9189H7.04559V91.0316H7.39948L7.41363 92.9189ZM7.41363 89.1442H7.04559V87.2568H7.39948L7.41363 89.1442ZM7.41363 85.3695H7.04559V83.4821H7.39948L7.41363 85.3695ZM7.41363 81.5947H7.04559V79.7074H7.39948L7.41363 81.5947ZM7.41363 77.7964H7.04559V75.909H7.39948L7.41363 77.7964ZM7.41363 74.0216H7.04559V72.1343H7.39948L7.41363 74.0216ZM7.41363 70.2469H7.04559V68.3595H7.39948L7.41363 70.2469ZM7.41363 66.4722H7.04559V64.5848H7.39948L7.41363 66.4722ZM7.41363 62.6974H7.04559V60.8101H7.39948L7.41363 62.6974Z" fill="#5197AF"/>
<path d="M7.41357 58.5641H7.05969V57.4458H8.17796V57.7997H7.41357V58.5641Z" fill="#5197AF"/>
<path d="M84.0598 57.7997H82.1724V57.4458H84.0598V57.7997ZM80.285 57.7997H78.3977V57.4458H80.285V57.7997ZM76.5103 57.7997H74.6229V57.4458H76.5103V57.7997ZM72.7356 57.7997H70.8482V57.4458H72.7356V57.7997ZM68.9608 57.7997H67.0735V57.4458H68.9608V57.7997ZM65.1861 57.7997H63.2987V57.4458H65.1861V57.7997ZM61.4113 57.7997H59.524V57.4458H61.4113V57.7997ZM57.6366 57.7997H55.7492V57.4458H57.6366V57.7997ZM53.8619 57.7997H51.9745V57.4458H53.8619V57.7997ZM50.0871 57.7997H48.1998V57.4458H50.0871V57.7997ZM46.3124 57.7997H44.425V57.4458H46.3124V57.7997ZM42.5376 57.7997H40.6503V57.4458H42.5376V57.7997ZM38.7629 57.7997H36.8755V57.4458H38.7629V57.7997ZM34.9882 57.7997H33.1008V57.4458H34.9882V57.7997ZM31.2134 57.7997H29.3261V57.4458H31.2134V57.7997ZM27.4387 57.7997H25.5513V57.4458H27.4387V57.7997ZM23.6639 57.7997H21.7766V57.4458H23.6639V57.7997ZM19.8892 57.7997H18.0018V57.4458H19.8892V57.7997ZM16.1145 57.7997H14.2271V57.4458H16.1145V57.7997ZM12.3397 57.7997H10.4524V57.4458H12.3397V57.7997Z" fill="#5197AF"/>
<path d="M87.0748 58.5641H86.7209V57.7997H85.9565V57.4458H87.0748V58.5641Z" fill="#5197AF"/>
<path d="M87.0747 134.441H86.7209V132.554H87.0747V134.441ZM87.0747 130.666H86.7209V128.779H87.0747V130.666ZM87.0747 126.892H86.7209V125.004H87.0747V126.892ZM87.0747 123.117H86.7209V121.229H87.0747V123.117ZM87.0747 119.342H86.7209V117.455H87.0747V119.342ZM87.0747 115.567H86.7209V113.68H87.0747V115.567ZM87.0747 111.793H86.7209V109.905H87.0747V111.793ZM87.0747 108.018H86.7209V106.131H87.0747V108.018ZM87.0747 104.243H86.7209V102.356H87.0747V104.243ZM87.0747 100.468H86.7209V98.5811H87.0747V100.468ZM87.0747 96.6937H86.7209V94.8063H87.0747V96.6937ZM87.0747 92.9189H86.7209V91.0316H87.0747V92.9189ZM87.0747 89.1442H86.7209V87.2568H87.0747V89.1442ZM87.0747 85.3695H86.7209V83.4821H87.0747V85.3695ZM87.0747 81.5947H86.7209V79.7074H87.0747V81.5947ZM87.0747 77.7964H86.7209V75.909H87.0747V77.7964ZM87.0747 74.0216H86.7209V72.1343H87.0747V74.0216ZM87.0747 70.2469H86.7209V68.3595H87.0747V70.2469ZM87.0747 66.4722H86.7209V64.5848H87.0747V66.4722ZM87.0747 62.6974H86.7209V60.8101H87.0747V62.6974Z" fill="#5197AF"/>
<path d="M110.082 191.968H153.652C154.01 190.553 154.355 189.184 154.704 187.825C155.1 186.253 155.489 184.729 155.869 183.253C155.95 182.923 156.039 182.593 156.124 182.267C156.412 181.13 156.69 180.021 156.969 178.964C157.134 178.304 157.299 177.657 157.441 177.02C157.582 176.383 157.771 175.727 157.913 175.105C157.955 174.939 157.997 174.77 158.04 174.633C158.082 174.496 158.13 174.269 158.172 174.095L158.337 173.448C158.399 173.222 158.455 173 158.507 172.778C158.62 172.358 158.724 171.948 158.823 171.542C158.979 170.948 159.125 170.363 159.271 169.792C159.333 169.546 159.399 169.296 159.46 169.056C159.564 168.655 159.663 168.268 159.757 167.89C159.824 167.635 159.885 167.385 159.946 167.145C160.206 166.144 160.442 165.205 160.663 164.314C160.725 164.082 160.777 163.842 160.838 163.634C160.932 163.252 161.027 162.889 161.116 162.535C161.178 162.313 161.23 162.101 161.282 161.888C161.475 161.138 161.65 160.473 161.801 159.855C161.843 159.694 161.881 159.539 161.923 159.383L162.192 158.316C162.225 158.194 162.254 158.071 162.287 157.958C162.32 157.845 162.348 157.717 162.371 157.613C162.395 157.51 162.414 157.458 162.428 157.392C162.442 157.326 162.485 157.179 162.508 157.094C162.515 157.049 162.526 157.005 162.541 156.962L162.64 156.566H120.288C120.288 156.566 118.872 161.383 116.655 169.145C116.183 170.726 115.711 172.448 115.187 174.241C113.682 179.37 111.95 185.41 110.082 191.968Z" fill="#37474F"/>
<path d="M146.517 191.968H147.603C149.216 185.293 150.78 178.607 152.293 171.91C152.658 170.281 153.018 168.65 153.373 167.017L153.472 166.545C153.475 166.529 153.472 166.512 153.463 166.498C153.454 166.485 153.44 166.475 153.424 166.47C153.408 166.466 153.391 166.468 153.376 166.476C153.362 166.484 153.351 166.497 153.345 166.512L153.303 166.663C152.812 168.412 152.324 170.166 151.84 171.924C150.014 178.577 148.24 185.259 146.517 191.968Z" fill="#09090A"/>
<path d="M121.642 156.523L123.529 165.894L125.049 173.566L127.663 186.66L127.932 188.005L128.38 190.241L128.715 191.935H153.656C154.01 190.52 154.36 189.147 154.704 187.792C155.1 186.22 155.489 184.696 155.869 183.22C155.95 182.89 156.039 182.56 156.124 182.234C156.412 181.097 156.69 179.988 156.969 178.931C157.134 178.271 157.299 177.624 157.441 176.987C157.582 176.35 157.771 175.694 157.912 175.072C157.955 174.906 157.997 174.737 158.04 174.6C158.082 174.463 158.13 174.236 158.172 174.062L158.337 173.415C158.398 173.189 158.455 172.967 158.507 172.745C158.62 172.325 158.724 171.915 158.823 171.509C158.979 170.915 159.125 170.33 159.271 169.759C159.337 169.509 159.399 169.263 159.46 169.023C159.564 168.621 159.663 168.235 159.757 167.857C159.823 167.602 159.885 167.352 159.946 167.112C160.206 166.111 160.442 165.172 160.663 164.281C160.725 164.049 160.777 163.809 160.838 163.601C160.932 163.219 161.027 162.856 161.116 162.502C161.178 162.28 161.23 162.068 161.281 161.855C161.475 161.105 161.649 160.44 161.8 159.822C161.843 159.661 161.881 159.505 161.923 159.35L162.192 158.283C162.225 158.161 162.253 158.038 162.286 157.925C162.319 157.812 162.348 157.684 162.371 157.58C162.395 157.477 162.414 157.425 162.428 157.359C162.442 157.293 162.485 157.146 162.508 157.061C162.515 157.016 162.526 156.972 162.541 156.929L162.64 156.533L121.642 156.523Z" fill="#09090A"/>
<path d="M121.637 156.509C121.637 156.745 121.817 159.274 122.222 163.115C122.34 164.243 122.477 165.474 122.638 166.805C122.888 168.9 123.194 171.207 123.581 173.646C124.232 177.893 125.082 182.545 126.186 187.084C126.578 188.717 127.012 190.335 127.469 191.921H182.203C181.557 183.579 180.967 176.034 180.5 170.089C179.839 161.718 179.424 156.476 179.424 156.476H129.767L121.637 156.509Z" fill="#37474F"/>
<path d="M121.755 161.539C121.817 163.497 121.897 165.455 122.024 167.404C122.156 169.518 122.35 171.627 122.628 173.736C122.633 173.814 122.643 173.891 122.656 173.967C122.918 175.943 123.213 177.913 123.544 179.88C123.86 181.71 124.091 183.687 124.902 185.386C125.21 186.041 125.645 186.628 126.181 187.113C126.676 187.562 127.279 187.875 127.932 188.019C128.038 188.046 128.147 188.063 128.257 188.071C128.286 188.071 128.319 188.071 128.352 188.071C128.331 188.081 128.314 188.098 128.303 188.118C128.292 188.138 128.288 188.161 128.29 188.184C128.314 188.84 128.29 189.51 128.37 190.161C128.37 190.189 128.37 190.218 128.37 190.246C128.437 190.812 128.54 191.374 128.644 191.94H129.588C129.588 191.94 129.588 191.94 129.588 191.907C129.423 191.289 129.286 190.666 129.116 190.019C128.946 189.373 128.739 188.764 128.592 188.132C128.585 188.106 128.568 188.084 128.545 188.071C129.142 188.101 129.734 187.947 130.24 187.629C130.746 187.312 131.143 186.847 131.376 186.297C131.613 185.458 131.63 184.572 131.423 183.725L130.914 180.361C130.593 178.304 130.182 176.265 129.814 174.227C129.762 173.915 129.706 173.604 129.649 173.283C128.918 169.117 128.149 164.946 127.229 160.817C127.196 160.647 127.153 160.477 127.115 160.303C127.078 160.128 126.908 160.223 126.917 160.331C126.946 160.609 126.974 160.888 127.007 161.166C127.167 162.752 127.356 164.328 127.573 165.885C127.837 167.734 128.021 169.593 128.281 171.443L128.55 173.33C128.974 176.374 129.418 179.417 129.937 182.446C130.182 183.862 131.06 186.377 129.031 186.816C128.567 186.919 128.082 186.857 127.658 186.641C126.764 186.109 126.093 185.271 125.771 184.282C125.195 182.668 124.992 180.894 124.695 179.214C124.358 177.361 124.063 175.504 123.808 173.642C123.477 171.32 123.138 168.999 122.77 166.682C122.59 165.498 122.402 164.323 122.213 163.134C122.128 162.591 122.038 162.044 121.949 161.497C121.935 161.388 121.755 161.421 121.755 161.539Z" fill="#09090A"/>
<path d="M170.195 176.091C167.915 176.068 165.647 175.764 163.442 175.185C162.423 174.921 161.418 174.595 160.423 174.269C159.434 173.994 158.507 173.529 157.695 172.901C156.162 171.575 155.445 169.49 154.779 167.64C154.051 165.553 153.46 163.42 153.01 161.256C152.986 161.148 152.831 161.181 152.826 161.284C152.783 163.735 153.101 166.179 153.77 168.537C154.322 170.537 155.063 172.783 156.681 174.199C158.38 175.671 160.692 176.19 162.867 176.459C165.314 176.744 167.789 176.711 170.228 176.36C170.245 176.358 170.262 176.352 170.278 176.343C170.293 176.334 170.307 176.323 170.318 176.309C170.329 176.295 170.337 176.279 170.342 176.261C170.346 176.244 170.348 176.226 170.346 176.209C170.343 176.191 170.338 176.174 170.329 176.159C170.32 176.143 170.308 176.129 170.294 176.119C170.28 176.108 170.264 176.099 170.247 176.095C170.23 176.09 170.212 176.089 170.195 176.091Z" fill="#09090A"/>
<path d="M173.988 161.299C174.111 164.366 174.24 167.433 174.375 170.499C174.69 177.643 175.034 184.787 175.408 191.931H176.437C175.965 184.768 175.47 177.613 174.951 170.466C174.724 167.403 174.491 164.345 174.252 161.294C174.252 161.259 174.237 161.225 174.212 161.201C174.187 161.177 174.153 161.163 174.118 161.164C174.083 161.165 174.049 161.179 174.025 161.204C174.001 161.23 173.987 161.264 173.988 161.299Z" fill="#09090A"/>
<path d="M127.715 93.4286C106.151 112.864 86.1594 134.149 84.5929 145.01C82.4271 160.053 91.6705 164.229 95.8228 164.266C107.109 164.38 127.62 118.639 134.754 101.176C141.681 84.2182 132.452 89.1584 127.715 93.4286Z" fill="#D3766A"/>
<path d="M95.1669 124.532L119.146 137.565C119.146 137.565 134.051 110.028 137.486 97.2647C140.921 84.5013 135.793 84.8599 124.534 94.7969C113.276 104.734 95.1669 124.532 95.1669 124.532Z" fill="#C7C7C7"/>
<path d="M95.1669 124.532L119.146 137.565C119.146 137.565 134.051 110.028 137.486 97.2647C140.921 84.5013 135.793 84.8599 124.534 94.7969C113.276 104.734 95.1669 124.532 95.1669 124.532Z" fill="#FD6B22"/>
<path opacity="0.1" d="M137.486 97.26C134.051 110.028 119.141 137.569 119.141 137.569L97.3091 125.698L137.519 87.9033C138.86 88.9319 138.916 91.9659 137.486 97.26Z" fill="black"/>
<path d="M100.102 120.857C109.346 127.113 118.306 131.176 120.104 132.209C120.189 132.261 120.26 132.12 120.17 132.072C118.353 131.152 108.515 125.028 100.173 120.706C100.079 120.654 99.9986 120.795 100.102 120.857Z" fill="#09090A"/>
<path d="M113.739 173.524L183.954 173.727C183.954 173.727 177.82 120.88 152.048 89.687C146.083 82.463 136.477 86.3841 132.424 90.2249C122.137 99.959 113.541 173.269 113.739 173.524Z" fill="#FD6B22"/>
<path d="M137.892 86.8132C139.577 88.0447 141.195 89.4036 142.814 90.6635L147.532 94.3202C148.948 95.4291 150.363 96.6795 151.972 97.5524C153.421 98.3451 155.105 98.6989 156.657 97.9912C157.037 97.8151 157.393 97.5933 157.719 97.3306L157.88 97.5807C157.089 98.2382 156.112 98.6309 155.086 98.7037C153.534 98.7933 152.085 98.0855 150.84 97.2362C149.264 96.1699 147.796 94.9384 146.291 93.7729C143.37 91.5128 140.487 89.1536 137.486 86.9925C137.604 86.9312 137.746 86.8699 137.892 86.8132ZM165.896 128.85C168.381 128.835 170.861 129.054 173.304 129.506C173.247 129.34 173.186 129.171 173.12 129.005C170.973 128.612 168.796 128.409 166.613 128.397C160.258 128.279 151.755 128.675 147.914 122.447C146.4 119.993 145.909 116.733 147.574 114.218C149.042 112 151.783 111.042 154.355 111.066C155.696 111.074 157.023 111.337 158.266 111.84C159.735 112.509 161.09 113.404 162.282 114.492C164.566 116.435 166.694 118.715 169.553 119.795L169.326 119.248C168.475 118.882 167.668 118.421 166.92 117.875C164.264 115.954 162.117 113.293 159.163 111.793C156.901 110.652 154.311 110.343 151.845 110.92C149.485 111.491 147.386 113.024 146.513 115.36C145.541 117.964 146.3 120.946 147.853 123.169C151.845 128.864 159.701 128.769 165.896 128.85ZM155.119 104.569C156.977 103.678 158.898 102.926 160.866 102.318C160.781 102.181 160.696 102.035 160.607 101.898C156.077 103.167 151.892 106.031 147.221 106.834C141.552 107.732 135.751 106.536 130.9 103.469C129.571 102.638 128.331 101.672 127.2 100.586C127.144 100.737 127.092 100.888 127.04 101.058C128.12 102.074 129.292 102.987 130.541 103.785C135.226 106.786 140.801 108.083 146.329 107.456C149.429 107.036 152.279 105.852 155.119 104.569ZM159.366 154.702C162.828 155.953 166.366 156.984 169.959 157.788C173.941 158.731 178.867 159.524 182.085 162.218C182.043 161.987 181.995 161.747 181.948 161.525C178.735 159.076 174.125 158.293 170.289 157.396C166.686 156.585 163.136 155.555 159.658 154.31C156.672 153.211 153.718 151.734 151.533 149.351C150.591 148.343 149.864 147.154 149.395 145.856C148.926 144.559 148.726 143.179 148.806 141.802C148.99 139.018 150.575 136.484 153.317 135.616C156.256 134.672 159.536 135.781 161.989 137.456C164.792 139.376 166.807 142.259 168.963 144.826C171.006 147.275 173.271 149.545 176.258 150.781C177.378 151.256 178.572 151.535 179.787 151.607C179.754 151.47 179.726 151.324 179.688 151.182C177.305 151.031 174.97 149.861 173.12 148.426C170.397 146.322 168.444 143.392 166.203 140.816C164.15 138.456 161.801 136.361 158.771 135.38C156.148 134.531 153.133 134.616 150.915 136.423C148.981 138.008 148.211 140.575 148.344 143.005C148.504 145.662 149.636 148.168 151.524 150.045C153.685 152.229 156.506 153.636 159.361 154.692L159.366 154.702ZM150.83 166.72C150.33 168.999 150.566 171.33 150.429 173.632H150.863C151.028 170.801 150.58 167.843 151.755 165.177C152.035 164.495 152.46 163.882 153 163.38C153.54 162.879 154.183 162.5 154.883 162.27C156.452 161.866 158.114 162.053 159.555 162.794C162.603 164.285 164.23 167.512 165.712 170.381C166.288 171.481 166.878 172.618 167.557 173.684H168.067C166.387 171.136 165.316 168.23 163.504 165.757C161.753 163.398 159.12 161.445 156.03 161.652C153.166 161.846 151.401 164.073 150.825 166.72H150.83ZM123.303 173.566H123.86C124.488 172.459 124.937 171.26 125.19 170.013C125.87 166.88 125.662 163.639 125.445 160.468C124.926 153.121 123.657 145.619 125.266 138.32C125.881 135.33 127.046 132.481 128.701 129.916C130.437 127.321 132.947 124.881 135.981 123.891C136.779 123.594 137.629 123.462 138.48 123.502C139.33 123.541 140.164 123.752 140.931 124.122C142.223 124.849 143.246 125.975 143.847 127.33C145.38 130.596 144.432 134.29 142.969 137.395C140.105 143.453 135.458 148.559 133.15 154.91C132.13 157.746 131.703 160.761 131.896 163.769C132.089 166.777 132.898 169.714 134.273 172.396C134.481 172.797 134.698 173.193 134.929 173.585H135.443C134.309 171.721 133.462 169.696 132.933 167.579C132.16 164.566 132.06 161.419 132.641 158.363C133.282 155.061 134.75 152.027 136.415 149.158C138.081 146.289 140.067 143.496 141.761 140.566C143.455 137.635 145.097 134.347 145.064 130.85C145.031 128.151 143.776 125.292 141.389 123.881C138.558 122.201 135.165 123.343 132.688 125.108C127.814 128.585 125.341 134.422 124.435 140.179C123.256 147.69 124.733 155.278 125.086 162.799C125.233 165.8 125.223 168.9 124.171 171.764C123.949 172.395 123.657 172.999 123.303 173.566ZM130.343 110.151C128.827 108.867 126.925 108.129 124.94 108.056C124.907 108.178 124.874 108.31 124.836 108.433C125.312 108.456 125.785 108.514 126.252 108.608C129.149 109.183 132.084 111.439 132.117 114.624C132.159 118.092 129.215 120.668 126.365 122.102C124.695 122.942 122.944 123.593 121.231 124.315C121.203 124.466 121.17 124.613 121.142 124.787C122.227 124.315 123.331 123.909 124.445 123.457C127.394 122.249 130.366 120.625 131.834 117.653C132.482 116.418 132.688 114.999 132.417 113.631C132.146 112.263 131.413 111.03 130.343 110.136V110.151Z" fill="white"/>
<path d="M156.978 92.0462C177.428 107.744 198.751 134.403 199.086 149.776C199.402 164.969 190.866 163.46 189.432 162.988C174.238 158.269 155.931 116.11 149.146 98.9493C142.408 81.9299 151.901 88.1629 156.978 92.0462Z" fill="#D3766A"/>
<path d="M189.833 122.669L166.09 136.131C166.09 136.131 150.689 108.863 147.027 96.1607C143.366 83.4587 148.504 83.7371 159.96 93.4618C171.417 103.186 189.833 122.669 189.833 122.669Z" fill="#FD6B22"/>
<path d="M184.831 119.083C175.696 125.5 166.811 129.727 165.014 130.789C164.929 130.841 164.858 130.699 164.943 130.652C166.741 129.709 176.47 123.4 184.732 118.932C184.85 118.88 184.93 119.021 184.831 119.083Z" fill="#09090A"/>
<path d="M167.614 135.201C167.13 135.387 166.658 135.6 166.198 135.838C163.919 131.303 164.334 132.341 162.008 127.816C160.873 125.615 159.734 123.402 158.592 121.178C157.412 118.875 156.355 116.459 155.053 114.242C155.046 114.228 155.034 114.217 155.02 114.212C155.005 114.208 154.989 114.209 154.975 114.216C154.961 114.222 154.951 114.235 154.946 114.249C154.941 114.264 154.942 114.28 154.949 114.293C155.704 116.473 156.728 118.587 157.695 120.692C157.483 120.366 157.28 120.031 157.044 119.715C156.521 119.012 156.006 118.299 155.544 117.563C155.468 117.45 155.28 117.54 155.35 117.658C155.822 118.365 156.19 119.097 156.582 119.842C156.974 120.588 157.403 121.291 157.842 122.008C158.281 122.725 158.738 123.348 159.21 124.004L159.38 124.249C160.003 125.566 160.607 126.887 161.267 128.189C163.551 132.752 165.901 136.343 165.986 136.319C166.586 136.033 167.162 135.698 167.708 135.319C167.746 135.281 167.68 135.196 167.614 135.201Z" fill="#09090A"/>
<path d="M96.8655 163.733C103.905 162.704 107.892 149.63 115.706 128.817C117.075 125.165 98.9039 104.248 96.4362 107.612C93.3267 111.859 85.1119 135.352 84.2721 141.74C82.6536 154.329 88.6743 164.936 96.8655 163.733Z" fill="#D3766A"/>
<path d="M107.694 149.875C108.327 148.106 108.997 146.35 109.671 144.595L111.714 139.344C112.422 137.602 113.102 135.852 113.786 134.106C114.135 133.232 114.471 132.356 114.795 131.478C115.131 130.6 115.456 129.718 115.706 128.812C115.315 130.654 114.786 132.465 114.125 134.229C113.507 136.008 112.823 137.763 112.153 139.518C111.483 141.273 110.738 143.005 110.002 144.732C109.266 146.459 108.492 148.181 107.694 149.875Z" fill="#09090A"/>
<path d="M89.9153 122.697C90.9014 115.553 92.9162 105.588 95.4688 103.498C98.1489 101.308 107.883 93.9806 110.69 93.0086C113.498 92.0366 126.03 87.2662 128.333 88.5968C130.178 89.6632 127.993 94.509 122.034 96.8352C116.791 98.8736 114.092 100.78 112.597 101.426C111.101 102.073 107.406 107.036 108.397 109.226C108.987 110.514 112.743 112.029 115.079 110.972C117.414 109.915 117.99 105.309 120.656 103.115C123.322 100.921 128.031 101.2 128.304 102.469C128.578 103.738 127.021 104.333 124.615 108.655C123.067 111.429 122.963 118.092 119.453 122.876C117.688 125.278 114.626 131.667 114.626 131.667L89.9153 122.697Z" fill="#D3766A"/>
<path d="M123.147 101.143C124.009 101.019 124.817 100.653 125.478 100.086C125.744 99.8307 125.93 99.5026 126.011 99.1427C126.042 98.9457 126.042 98.7451 126.011 98.5482C126.005 98.3373 125.924 98.1354 125.785 97.9772C125.738 97.9442 125.808 97.8876 125.832 97.9348C125.896 98.0341 125.967 98.1287 126.044 98.2179C126.099 98.3025 126.145 98.3926 126.181 98.4868C126.252 98.6736 126.285 98.8723 126.28 99.0719C126.261 99.5087 126.095 99.9261 125.808 100.256C125.464 100.609 125.043 100.877 124.578 101.041C124.114 101.205 123.617 101.259 123.128 101.2C123.119 101.214 123.119 101.153 123.147 101.143Z" fill="#09090A"/>
<path d="M95.4688 103.498C97.7384 99.9354 103.547 93.4995 109.303 91.2913C113.191 89.7956 126.582 96.307 126.195 98.8644C125.808 101.422 123.52 101.436 120.132 101.035C118.901 100.889 112.375 98.5482 111.261 99.9166C109.667 101.889 107.638 108.613 107.638 108.613L95.4688 103.498Z" fill="#D3766A"/>
<path d="M125.86 97.864C124.204 95.1274 120.571 93.6694 116.952 92.5181C116.895 92.5181 116.862 92.5841 116.919 92.603C117.839 92.8955 123.737 95.6039 125.823 97.9112C125.846 97.9348 125.879 97.8924 125.86 97.864Z" fill="#09090A"/>
<path d="M95.4688 103.498C97.7384 99.9352 103.547 93.4993 109.303 91.2911C113.191 89.7954 123.789 98.1281 123.397 100.69C123.006 103.252 119.726 103.455 116.093 102.195C114.918 101.785 110.983 99.0199 109.869 100.388C108.275 102.356 104.382 107.244 104.382 107.244L95.4688 103.498Z" fill="#D3766A"/>
<path d="M106.604 104.206C106.972 103.644 107.076 103.446 107.468 102.889C107.859 102.332 108.223 101.785 108.638 101.261C108.961 100.773 109.366 100.345 109.836 99.9968C110.323 99.7197 110.885 99.6071 111.441 99.6759C112.7 99.7939 113.838 100.591 114.909 101.205C116.102 101.889 118.575 102.998 120.472 102.795C120.993 102.764 121.502 102.626 121.967 102.389C122.32 102.228 122.626 101.981 122.859 101.672C123.68 100.256 122.652 98.6898 121.604 97.5621C119.646 95.4624 117.013 93.9431 114.46 92.6927C113.833 92.386 113.201 92.0982 112.573 91.8056C111.863 91.426 111.079 91.2024 110.275 91.1498C108.959 91.1498 106.802 92.4803 106.137 92.8861C106.085 92.9144 106.048 92.8342 106.095 92.8012C106.906 92.2963 108.926 90.6543 111.03 90.7581C111.806 90.8754 112.555 91.1277 113.243 91.5036C113.984 91.8198 114.715 92.1642 115.437 92.5228C116.846 93.2152 118.199 94.015 119.486 94.9151C120.694 95.7785 121.982 96.8024 122.788 98.0434C123.165 98.5927 123.385 99.2337 123.427 99.8982C123.468 100.563 123.329 101.226 123.024 101.818C122.444 102.762 121.203 103.017 120.637 103.092C120.081 103.165 119.518 103.165 118.962 103.092C117.724 102.825 116.507 102.47 115.319 102.03C114.168 101.559 113.13 100.794 111.946 100.436C111.666 100.34 111.37 100.301 111.075 100.321C110.78 100.341 110.492 100.42 110.228 100.554C109.744 100.877 109.311 101.272 108.945 101.724C108.153 102.503 107.435 103.354 106.802 104.267C106.647 104.531 106.472 104.451 106.604 104.206Z" fill="#09090A"/>
<path d="M93.7891 106.612C94.6196 104.913 96.0209 97.9207 97.3704 95.7596C98.7199 93.5986 104.873 86.1954 107.751 86.5162C111.37 86.9173 107.605 93.4334 105.713 96.1182C103.82 98.803 104.146 103.366 104.146 103.366L93.7891 106.612Z" fill="#D3766A"/>
<path d="M108.35 91.6875C107.675 92.5368 107.081 93.4805 106.496 94.3912C105.894 95.2376 105.354 96.127 104.882 97.0524C104.486 97.9996 104.249 99.0054 104.179 100.03C104.132 100.535 104.118 101.035 104.113 101.54C104.108 102.044 104.16 102.648 104.151 103.196C104.148 103.203 104.148 103.21 104.149 103.218C104.15 103.225 104.153 103.232 104.157 103.238C104.162 103.244 104.167 103.249 104.174 103.253C104.181 103.256 104.188 103.258 104.196 103.258C104.203 103.258 104.21 103.256 104.217 103.253C104.224 103.249 104.229 103.244 104.234 103.238C104.238 103.232 104.241 103.225 104.242 103.218C104.243 103.21 104.243 103.203 104.24 103.196C104.305 102.189 104.435 101.189 104.632 100.2C104.808 99.1705 105.11 98.1673 105.533 97.2128C106.378 95.3254 107.614 93.6268 108.473 91.7441C108.492 91.6734 108.397 91.6262 108.35 91.6875Z" fill="#09090A"/>
<path d="M104.188 104.149C104.241 104.996 104.418 105.83 104.712 106.626C104.98 107.434 105.305 108.223 105.684 108.985C106.051 109.746 106.459 110.487 106.906 111.203C107.34 111.925 107.85 112.576 108.383 113.265C109.468 114.61 110.332 116.118 110.945 117.733C111.52 119.349 111.807 121.053 111.795 122.768C111.638 121.078 111.24 119.419 110.615 117.842C109.944 116.291 109.066 114.839 108.006 113.524C107.466 112.856 106.968 112.154 106.515 111.425C106.071 110.686 105.677 109.918 105.335 109.127C104.684 107.556 104.08 105.876 104.188 104.149Z" fill="#09090A"/>
<path d="M130.003 94.1646C130.105 95.2728 130.262 96.3752 130.475 97.4675C130.642 98.4624 130.9 99.44 131.244 100.388C131.919 102.092 133.207 103.691 135.193 104.13C136.117 104.307 137.067 104.297 137.987 104.1C138.907 103.903 139.778 103.523 140.549 102.983C142.195 101.898 143.479 100.36 144.654 98.8642C145.387 97.9394 146.074 96.9863 146.716 96.0048C147.037 95.5047 147.367 95.014 147.659 94.4996C147.952 93.9853 148.23 93.4663 148.561 92.9756C148.589 92.9331 148.674 92.9756 148.65 93.0086C148.009 94.1694 146.083 97.8497 145.442 98.7604C144.267 100.421 142.988 102.115 141.285 103.342C139.653 104.584 137.602 105.142 135.566 104.899C134.59 104.746 133.67 104.347 132.892 103.738C132.114 103.129 131.504 102.332 131.121 101.422C130.671 100.334 130.383 99.1863 130.267 98.0149C130.107 96.7315 130.022 95.4386 129.965 94.1505C129.975 94.1505 130.003 94.1505 130.003 94.1646Z" fill="#09090A"/>
<path d="M136.802 100.926C141.134 100.808 146.475 92.735 147.9 86.9643C147.994 86.568 142.889 73.1346 142.153 70.3649C141.993 69.7987 125.889 79.1978 125.889 79.1978C125.889 79.1978 129.14 84.5438 130.39 89.3755C130.489 89.7812 132.612 101.039 136.802 100.926Z" fill="#D3766A"/>
<path d="M125.889 79.1977C125.889 79.1977 129.14 84.5437 130.39 89.3801C130.39 89.4745 130.55 90.1775 130.8 91.1967C138.855 88.2382 142.766 81.7598 144.559 77.4047C143.46 74.3566 142.446 71.4925 142.153 70.3743C141.993 69.7986 125.889 79.1977 125.889 79.1977Z" fill="#09090A"/>
<path d="M116.64 47.8912C115.607 48.0658 112.139 56.3042 112.644 59.9091C113.149 63.5139 115.503 70.4972 116.579 70.4642C117.655 70.4312 117.457 47.7544 116.64 47.8912Z" fill="#09090A"/>
<path d="M141.422 51.0854C144.979 56.7145 146.588 75.3428 143.309 80.4953C138.539 87.9646 128.304 91.3477 121.345 85.0769C114.593 78.9902 112.922 54.6761 116.824 49.7454C122.562 42.4837 136.165 42.7715 141.422 51.0854Z" fill="#D3766A"/>
<path d="M128.035 62.9806C128.585 63.0576 129.137 63.1065 129.692 63.1269C130.329 63.1741 130.833 63.2826 131.414 62.957C131.568 62.8459 131.68 62.6873 131.735 62.5057C131.79 62.324 131.783 62.1294 131.716 61.952C131.386 61.2112 130.621 60.9564 129.857 60.8668C129.091 60.7465 128.307 60.9146 127.658 61.3386C127.513 61.4441 127.402 61.59 127.339 61.7582C127.276 61.9264 127.263 62.1094 127.304 62.2845C127.344 62.4595 127.435 62.6188 127.565 62.7426C127.695 62.8664 127.859 62.9492 128.035 62.9806Z" fill="#09090A"/>
<path d="M128.781 67.0481C128.781 66.9962 128.885 67.0952 128.889 67.1471C128.979 68.407 129.295 69.8319 130.47 70.1339C130.508 70.1339 130.513 70.2047 130.47 70.2047C129.045 70.1528 128.644 68.2513 128.781 67.0481Z" fill="#09090A"/>
<path d="M129.748 65.623C131.753 65.2597 132.324 69.2939 130.47 69.6242C128.616 69.9545 128.073 65.925 129.748 65.623Z" fill="#09090A"/>
<path d="M121.552 67.8736C121.552 67.8265 121.463 67.9491 121.472 67.9963C121.689 69.242 121.727 70.7 120.656 71.2756C120.623 71.2756 120.656 71.3558 120.656 71.3464C122.029 70.9737 121.953 69.0344 121.552 67.8736Z" fill="#09090A"/>
<path d="M120.25 66.7458C118.221 66.8826 118.636 70.931 120.514 70.8084C122.392 70.6857 121.953 66.6373 120.25 66.7458Z" fill="#09090A"/>
<path d="M118.4 64.599C118.925 64.4116 119.44 64.1974 119.943 63.9573C120.533 63.7025 121.029 63.561 121.392 63.0136C121.477 62.8434 121.503 62.6502 121.467 62.4635C121.431 62.2769 121.335 62.1071 121.194 61.9803C120.557 61.4754 119.755 61.6075 119.033 61.8812C118.296 62.1358 117.68 62.6556 117.306 63.3392C117.232 63.4993 117.206 63.6772 117.231 63.8517C117.256 64.0261 117.331 64.1897 117.446 64.3227C117.562 64.4558 117.713 64.5526 117.883 64.6016C118.052 64.6506 118.232 64.6497 118.4 64.599Z" fill="#09090A"/>
<path d="M131.357 77.2587C131.102 77.5937 130.885 78.0372 130.414 78.141C129.948 78.1992 129.475 78.1573 129.026 78.0183C129.022 78.0152 129.016 78.0131 129.011 78.012C129.005 78.0109 129 78.0109 128.994 78.012C128.989 78.0131 128.984 78.0153 128.979 78.0184C128.974 78.0215 128.97 78.0255 128.967 78.0301C128.964 78.0348 128.962 78.04 128.961 78.0455C128.96 78.0509 128.96 78.0566 128.961 78.0621C128.962 78.0675 128.964 78.0727 128.967 78.0774C128.97 78.082 128.974 78.086 128.979 78.0891C129.191 78.3131 129.459 78.4754 129.756 78.5585C130.053 78.6416 130.366 78.6425 130.664 78.5609C130.908 78.4586 131.117 78.2861 131.264 78.0653C131.411 77.8445 131.489 77.5852 131.489 77.32C131.494 77.2256 131.395 77.2115 131.357 77.2587Z" fill="#09090A"/>
<path d="M129.517 73.7058C129.27 74.2454 128.914 74.7281 128.472 75.1236C128.029 75.519 127.509 75.8187 126.945 76.0036C126.455 76.1709 125.944 76.2678 125.426 76.2915C125.327 76.3009 125.228 76.3009 125.129 76.2915C125.036 76.2962 124.943 76.2962 124.851 76.2915C124.782 76.288 124.716 76.2622 124.663 76.2179C124.61 76.1736 124.573 76.1133 124.558 76.0461C124.553 76.0038 124.553 75.961 124.558 75.9187V75.8102C124.393 74.8665 124.28 73.3755 124.28 73.3755C123.954 73.602 122.274 74.6589 122.232 74.154C121.892 69.9593 121.51 65.2975 122.052 61.0557C122.058 61.029 122.072 61.005 122.093 60.9878C122.115 60.9706 122.141 60.9612 122.168 60.9612C122.195 60.9612 122.222 60.9706 122.243 60.9878C122.264 61.005 122.278 61.029 122.284 61.0557C122.756 65.0758 122.553 69.1525 122.982 73.1915C123.577 72.8048 124.223 72.5045 124.902 72.2997C125.044 72.2997 125.072 75.1307 125.181 75.579C125.177 75.5929 125.177 75.6075 125.181 75.6214C126.823 75.6214 127.974 74.9373 129.385 73.6303C129.465 73.5359 129.574 73.5972 129.517 73.7058Z" fill="#09090A"/>
<path d="M143.606 67.0762C140.36 67.8076 138.256 64.3679 136.444 59.4088C135.382 56.507 135.377 50.4438 135.377 50.4438C135.377 50.4438 127.507 55.502 122.689 55.719C117.872 55.936 113.253 52.3831 112.969 48.6414C112.729 45.4092 117.575 40.521 124.643 39.2659C129.574 38.3929 138.482 41.2476 142.894 46.084C142.894 46.084 149.533 48.2309 149.235 53.0672C148.938 57.9036 147.291 66.2458 143.606 67.0762Z" fill="#09090A"/>
<path d="M143.323 66.7318C139.119 68.2275 135.958 62.0133 135.396 58.6397C134.811 55.1244 135.689 51.3733 135.84 47.8486H135.811C134.906 52.2226 134.028 57.7196 136.038 61.8954C137.302 64.5283 139.931 68.8079 143.408 66.963C143.526 66.8969 143.455 66.6846 143.323 66.7318Z" fill="#09090A"/>
<path d="M150.014 51.5005C149.018 48.6695 145.324 46.2584 142.464 45.9517C142.436 45.9517 142.427 45.9941 142.464 45.9988C145.947 46.7632 150.306 50.0803 149.773 53.9447C149.344 57.0305 148.438 61.1403 146.725 63.7732C146.683 63.8392 146.782 63.9005 146.829 63.8392C148.216 62.0321 148.636 59.8569 149.188 57.7053C149.646 55.8037 150.684 53.4587 150.014 51.5005Z" fill="#09090A"/>
<path d="M143.583 46.4237C138.921 41.3278 129.611 36.0809 122.628 38.7704C122.628 38.7704 122.628 38.8128 122.628 38.8034C130.13 36.6093 137.916 42.2007 143.347 46.6926C143.517 46.8247 143.715 46.5652 143.583 46.4237Z" fill="#09090A"/>
<path d="M141.521 67.5527C141.521 67.5527 144.045 60.744 147.037 61.4943C150.028 62.2445 149.179 71.403 146.409 73.3234C146.071 73.597 145.681 73.7995 145.263 73.9188C144.845 74.038 144.407 74.0716 143.976 74.0174C143.544 73.9632 143.128 73.8223 142.753 73.6033C142.377 73.3843 142.049 73.0917 141.79 72.743L141.521 67.5527Z" fill="#D3766A"/>
<path d="M146.744 64.0989C146.796 64.0989 146.819 64.1461 146.782 64.1791C144.861 65.5946 144.248 67.9019 143.998 70.1762C144.427 69.2325 145.187 68.5483 146.451 69.0296C146.517 69.0532 146.489 69.157 146.423 69.157C146.013 69.1361 145.607 69.2423 145.26 69.461C144.913 69.6798 144.642 70.0004 144.484 70.3791C144.228 71.0151 144.04 71.6762 143.922 72.3514C143.87 72.5732 143.498 72.559 143.512 72.3184C143.51 72.3011 143.51 72.2837 143.512 72.2665C142.743 69.5487 143.88 65.1558 146.744 64.0989Z" fill="#09090A"/>
<path d="M132.891 97.7648L142.799 127.307C143.186 128.166 142.799 128.916 141.931 128.982L126.379 130.157C125.905 130.159 125.439 130.028 125.036 129.778C124.633 129.527 124.308 129.168 124.1 128.741L114.192 99.1992C113.805 98.3357 114.192 97.5855 115.06 97.5195L130.602 96.3257C131.081 96.3245 131.55 96.4591 131.955 96.7138C132.36 96.9686 132.685 97.333 132.891 97.7648Z" fill="#37474F"/>
<path d="M131.041 97.8875L140.95 127.43C141.337 128.288 140.95 129.043 140.082 129.109L124.534 130.303C124.058 130.303 123.59 130.167 123.187 129.912C122.784 129.658 122.461 129.294 122.255 128.864L112.347 99.3219C111.955 98.4632 112.347 97.7129 113.215 97.6469L128.781 96.4531C129.254 96.4557 129.718 96.5917 130.117 96.8454C130.517 97.099 130.837 97.4602 131.041 97.8875Z" fill="#455A64"/>
<path d="M126.894 99.5907C126.919 99.8518 127.021 100.099 127.188 100.302C127.354 100.505 127.577 100.654 127.828 100.73C128.079 100.807 128.347 100.807 128.598 100.73C128.849 100.654 129.072 100.506 129.238 100.303C129.404 100.1 129.507 99.8526 129.533 99.5915C129.558 99.3305 129.506 99.0677 129.382 98.8364C129.259 98.6051 129.069 98.4157 128.838 98.2921C128.606 98.1685 128.344 98.1164 128.083 98.1422C127.733 98.1768 127.411 98.3488 127.188 98.6204C126.965 98.892 126.859 99.241 126.894 99.5907Z" fill="#09090A"/>
<path d="M192.64 163.186C185.874 164.172 177.334 158.986 155.204 143.208C152.137 141.009 161.734 115.261 165.113 117.417C169.383 120.14 185.364 131.643 186.426 132.634C195.405 141.009 197.241 162.478 192.64 163.186Z" fill="#D3766A"/>
<path d="M173.054 125.094C173.054 125.094 166.703 116.393 161.951 112.85C155.586 108.131 148.141 106.64 144.965 106.211C138.359 105.314 121.845 107.706 121.68 112.595C121.548 117.021 138.345 113.718 138.345 113.718C138.345 113.718 120.665 114.256 121.486 119.611C122.307 124.966 141.596 120.031 141.596 120.031C141.596 120.031 123.44 120.975 125.162 126.382C126.464 130.454 144.182 126.962 144.182 126.962C144.182 126.962 128.583 127.906 129.739 132.153C131.022 136.843 147.574 134.649 147.574 134.649C152.373 144.935 158.837 147.893 163.697 149.446C164.872 149.818 173.054 125.094 173.054 125.094Z" fill="#D3766A"/>
<path d="M144.47 113.142C142.389 113.142 140.285 113.104 138.213 113.274C136.142 113.444 134.07 113.694 132.023 114.058C126.997 114.954 124.001 116.304 124.19 116.238C128.795 114.751 136.203 114.015 138.279 113.841C140.355 113.666 142.408 113.392 144.479 113.218C144.531 113.213 144.517 113.142 144.47 113.142Z" fill="#09090A"/>
<path d="M145.229 120.616C142.573 120.715 139.935 120.715 137.284 120.932C134.632 121.149 132.159 121.588 129.541 121.985C129.338 122.013 129.423 122.112 129.626 122.088C132.254 121.796 134.712 121.73 137.345 121.47C139.978 121.211 142.606 120.843 145.239 120.678C145.295 120.678 145.295 120.616 145.229 120.616Z" fill="#09090A"/>
<path d="M147.036 126.915C142.969 126.859 138.897 127.552 134.92 128.331C134.721 128.369 134.844 128.487 135.047 128.458C139.067 127.911 142.214 127.453 147.036 127.043C147.107 127.047 147.121 126.915 147.036 126.915Z" fill="#09090A"/>
<path d="M180.33 128.095C182.085 129.251 183.774 130.501 185.412 131.827C186.233 132.483 187.02 133.181 187.771 133.917C188.548 134.649 189.231 135.475 189.804 136.376C190.894 138.188 191.809 140.099 192.536 142.085C193.292 144.053 193.826 146.099 194.131 148.186C193.905 147.162 193.622 146.153 193.282 145.161C192.956 144.166 192.598 143.184 192.197 142.217C191.43 140.277 190.495 138.408 189.403 136.63C188.865 135.748 188.215 134.939 187.469 134.224C186.737 133.483 185.949 132.808 185.166 132.101C184.383 131.393 183.571 130.742 182.76 130.076C181.948 129.411 181.155 128.741 180.33 128.095Z" fill="#09090A"/>
<path d="M113.338 35.6135C113.338 35.6135 111.398 51.1371 108.209 54.6334C104.382 58.8234 101.603 58.21 100.06 60.371C98.5124 58.2053 95.738 58.8234 91.9066 54.6287C88.7217 51.1371 86.7871 35.6135 86.7871 35.6135C95.1859 31.5368 100.065 26.9646 100.065 26.9646C100.211 27.1109 105.066 31.5981 113.338 35.6135Z" fill="#FD6B22"/>
<path opacity="0.2" d="M100.06 26.9693V60.371C98.5124 58.2053 95.738 58.8234 91.9066 54.6287C88.7217 51.1371 86.7871 35.6135 86.7871 35.6135C95.1859 31.5368 100.065 26.9646 100.065 26.9646L100.06 26.9693Z" fill="black"/>
<path opacity="0.1" d="M113.338 35.6136C113.338 35.6136 111.398 51.1373 108.209 54.6336C104.382 58.8236 101.603 58.2102 100.06 60.3712V26.9695C100.211 27.111 105.066 31.5983 113.338 35.6136Z" fill="black"/>
<path d="M111.276 36.8639C111.276 36.8639 109.638 49.9812 106.944 52.9302C103.712 56.4784 101.362 55.9547 100.06 57.7807C98.7531 55.9547 96.408 56.4784 93.1712 52.9302C90.4769 49.9812 88.8444 36.8639 88.8444 36.8639C95.922 33.4195 100.06 29.5598 100.06 29.5598C100.06 29.5598 104.179 33.4289 111.276 36.8639Z" fill="#FD6B22"/>
<path opacity="0.1" d="M100.06 29.5646V57.7808C98.7577 55.9548 96.4079 56.4738 93.1758 52.9303C90.4815 49.9765 88.849 36.8593 88.849 36.8593C95.9266 33.4148 100.06 29.5552 100.06 29.5552V29.5646Z" fill="black"/>
<path d="M105.085 41.1719H95.0349V50.2879H105.085V41.1719Z" fill="white"/>
<path d="M104.08 43.9887H103.056V39.9167C103.056 39.1221 102.74 38.36 102.179 37.7981C101.617 37.2362 100.855 36.9205 100.06 36.9205C99.2653 36.9205 98.5032 37.2362 97.9413 37.7981C97.3794 38.36 97.0638 39.1221 97.0638 39.9167V43.9887H96.0399V39.9167C96.0021 39.3669 96.0778 38.8152 96.2623 38.2959C96.4468 37.7765 96.736 37.3007 97.1122 36.8979C97.4883 36.495 97.9432 36.1738 98.4487 35.9543C98.9542 35.7347 99.4994 35.6213 100.051 35.6213C100.602 35.6213 101.147 35.7347 101.652 35.9543C102.158 36.1738 102.613 36.495 102.989 36.8979C103.365 37.3007 103.654 37.7765 103.839 38.2959C104.023 38.8152 104.099 39.3669 104.061 39.9167L104.08 43.9887Z" fill="white"/>
<path d="M100.376 45.8855L100.702 47.4237H99.3239L99.6494 45.8855C99.5222 45.8065 99.4241 45.6882 99.3702 45.5485C99.3162 45.4088 99.3092 45.2553 99.3503 45.1113C99.3913 44.9673 99.4782 44.8406 99.5977 44.7504C99.7173 44.6601 99.863 44.6113 100.013 44.6113C100.163 44.6113 100.308 44.6601 100.428 44.7504C100.547 44.8406 100.634 44.9673 100.675 45.1113C100.716 45.2553 100.709 45.4088 100.655 45.5485C100.601 45.6882 100.503 45.8065 100.376 45.8855Z" fill="#37474F"/>
<path d="M100.235 97.0144H98.2245V96.6558H100.06V96.7785H100.235V97.0144ZM96.3371 97.0144H94.4497V96.6558H96.3371V97.0144ZM92.5624 97.0144H90.675V96.6558H92.5624V97.0144ZM88.7876 97.0144H86.9003V96.6558H88.7876V97.0144ZM100.235 94.8958H99.8807V93.0085H100.235V94.8958ZM100.235 91.1211H99.8807V89.2337H100.235V91.1211ZM100.235 87.3464H99.8807V85.459H100.235V87.3464ZM100.235 83.5716H99.8807V81.6842H100.235V83.5716ZM100.235 79.7969H99.8807V77.9095H100.235V79.7969ZM100.235 76.0221H99.8807V74.1348H100.235V76.0221ZM100.235 72.2474H99.8807V70.36H100.235V72.2474ZM100.235 68.4727H99.8807V66.5853H100.235V68.4727ZM100.235 64.6979H99.8807V62.8105H100.235V64.6979Z" fill="#FD6B22"/>
<path d="M100.857 62.4236C100.857 62.2659 100.811 62.1118 100.723 61.9806C100.635 61.8495 100.511 61.7473 100.365 61.6869C100.219 61.6266 100.059 61.6108 99.9044 61.6415C99.7497 61.6723 99.6076 61.7483 99.4961 61.8598C99.3845 61.9713 99.3086 62.1134 99.2778 62.2681C99.2471 62.4227 99.2629 62.5831 99.3232 62.7288C99.3836 62.8745 99.4858 62.999 99.6169 63.0867C99.748 63.1743 99.9022 63.221 100.06 63.221C100.271 63.221 100.474 63.137 100.624 62.9875C100.773 62.8379 100.857 62.6351 100.857 62.4236Z" fill="#FD6B22"/>
<path d="M31.3692 41.3701H7.15894V10.2898H25.1361L31.3692 16.2161V41.3701Z" fill="#EBEBEB"/>
<path d="M25.1361 10.2898L31.3692 16.2161H25.1361V10.2898Z" fill="#DBDBDB"/>
<path d="M9.5229 16.301H22.9846V15.5036L9.5229 15.5036V16.301Z" fill="#DBDBDB"/>
<path d="M9.5229 18.3157H22.9846V17.5183H9.5229V18.3157Z" fill="#DBDBDB"/>
<path d="M9.5229 20.3352H22.9846V19.5378H9.5229V20.3352Z" fill="#DBDBDB"/>
<path d="M9.52287 22.3501L29.2459 22.3501V21.5527L9.52287 21.5527V22.3501Z" fill="#DBDBDB"/>
<path d="M9.52287 24.3647L29.2459 24.3647V23.5673L9.52287 23.5673V24.3647Z" fill="#DBDBDB"/>
<path d="M9.52287 26.3796L29.2459 26.3796V25.5822L9.52287 25.5822V26.3796Z" fill="#DBDBDB"/>
<path d="M9.52287 28.3945L29.2459 28.3945V27.5971L9.52287 27.5971V28.3945Z" fill="#DBDBDB"/>
<path d="M9.52287 32.4192H29.2459V31.6218L9.52287 31.6218V32.4192Z" fill="#DBDBDB"/>
<path d="M9.52287 34.4341H29.2459V33.6367H9.52287V34.4341Z" fill="#DBDBDB"/>
<path d="M9.52287 36.4487H29.2459V35.6513H9.52287V36.4487Z" fill="#DBDBDB"/>
<path d="M9.52287 38.4636H29.2459V37.6662H9.52287V38.4636Z" fill="#DBDBDB"/>
<path d="M33.0048 44.1989C35.1696 43.2965 36.1929 40.8101 35.2905 38.6453C34.388 36.4805 31.9016 35.4572 29.7368 36.3597C27.5721 37.2621 26.5488 39.7485 27.4512 41.9133C28.3536 44.078 30.8401 45.1014 33.0048 44.1989Z" fill="#09090A"/>
<path d="M33.4736 39.209H29.2647V43.0309H33.4736V39.209Z" fill="white"/>
<path d="M33.0537 40.3839H32.6243V38.6806C32.6243 38.3477 32.4921 38.0285 32.2567 37.7931C32.0213 37.5577 31.7021 37.4255 31.3692 37.4255C31.0363 37.4255 30.7171 37.5577 30.4817 37.7931C30.2463 38.0285 30.1141 38.3477 30.1141 38.6806V40.3839H29.6942V38.6806C29.6942 38.2338 29.8716 37.8054 30.1875 37.4895C30.5034 37.1736 30.9319 36.9961 31.3786 36.9961C31.8254 36.9961 32.2538 37.1736 32.5697 37.4895C32.8856 37.8054 33.0631 38.2338 33.0631 38.6806L33.0537 40.3839Z" fill="white"/>
<path d="M31.5485 41.1626L31.7231 42.0025H30.9776L31.1521 41.1626C31.0836 41.1196 31.031 41.0555 31.0021 40.9799C30.9733 40.9044 30.9697 40.8215 30.9921 40.7438C31.0145 40.666 31.0615 40.5977 31.1261 40.5491C31.1908 40.5004 31.2694 40.4741 31.3503 40.4741C31.4312 40.4741 31.5099 40.5004 31.5745 40.5491C31.6391 40.5977 31.6862 40.666 31.7085 40.7438C31.7309 40.8215 31.7274 40.9044 31.6985 40.9799C31.6697 41.0555 31.617 41.1196 31.5485 41.1626Z" fill="#09090A"/>
<path d="M47.9592 57.6202H47.6242V55.7328H47.978L47.9592 57.6202ZM47.9592 53.8455H47.6242V51.9581H47.978L47.9592 53.8455ZM47.9592 50.0707H47.6242V48.1833H47.978L47.9592 50.0707ZM47.9592 46.296H47.6242V44.4086H47.978L47.9592 46.296ZM47.9592 42.5212H47.6242V40.6339H47.978L47.9592 42.5212ZM47.9592 38.7465H47.6242V36.8591H47.978L47.9592 38.7465ZM47.9592 34.9718H47.6242V33.0844H47.978L47.9592 34.9718ZM47.9592 31.197H47.6242V29.3096H47.978L47.9592 31.197ZM46.2086 29.1823H44.3213V28.8284H46.2086V29.1823ZM42.4339 29.1823H40.5465V28.8284H42.4339V29.1823ZM38.6591 29.1823H36.7718V28.8284H38.6591V29.1823ZM34.8844 29.1823H34.0681V28.8284H34.8844V29.1823Z" fill="#FD6B22"/>
<path d="M34.087 28.2385C33.9273 28.2376 33.771 28.2844 33.6381 28.3728C33.5052 28.4613 33.4017 28.5873 33.3409 28.7349C33.28 28.8825 33.2646 29.0449 33.2966 29.2013C33.3286 29.3577 33.4065 29.501 33.5204 29.6129C33.6343 29.7248 33.7789 29.8001 33.9359 29.8293C34.0929 29.8585 34.2549 29.8401 34.4014 29.7766C34.5479 29.7132 34.6721 29.6074 34.7581 29.473C34.8442 29.3385 34.8881 29.1814 34.8844 29.0218C34.8795 28.8132 34.7934 28.6146 34.6446 28.4684C34.4957 28.3222 34.2957 28.2397 34.087 28.2385Z" fill="#FD6B22"/>
<path d="M61.5246 162.577H60.4157V162.242H61.5246V162.577ZM58.5284 162.577H56.641V162.242H58.5284V162.577ZM54.7536 162.577H52.8663V162.242H54.7536V162.577ZM50.9789 162.577H49.0915V162.242H50.9789V162.577ZM47.9591 161.822H47.6241V159.935H47.978L47.9591 161.822ZM47.9591 158.047H47.6241V156.16H47.978L47.9591 158.047ZM47.9591 154.272H47.6241V152.385H47.978L47.9591 154.272ZM47.9591 150.498H47.6241V148.61H47.978L47.9591 150.498ZM47.9591 146.723H47.6241V144.836H47.978L47.9591 146.723ZM47.9591 142.948H47.6241V141.061H47.978L47.9591 142.948ZM47.9591 139.174H47.6241V137.286H47.978L47.9591 139.174Z" fill="#FD6B22"/>
<path d="M61.4821 163.2C61.9225 163.2 62.2796 162.843 62.2796 162.402C62.2796 161.962 61.9225 161.605 61.4821 161.605C61.0417 161.605 60.6847 161.962 60.6847 162.402C60.6847 162.843 61.0417 163.2 61.4821 163.2Z" fill="#FD6B22"/>
<path d="M94.4215 157.226H64.2708V175.421H94.4215V157.226Z" fill="#455A64"/>
<path d="M75.0665 159.515H66.6393V170.292H75.0665V159.515Z" fill="white"/>
<path d="M70.8529 165.823C71.9552 165.823 72.8488 164.93 72.8488 163.827C72.8488 162.725 71.9552 161.832 70.8529 161.832C69.7506 161.832 68.857 162.725 68.857 163.827C68.857 164.93 69.7506 165.823 70.8529 165.823Z" fill="#455A64"/>
<path d="M75.0665 170.292H66.6393C66.6393 170.292 66.8705 168.282 67.281 167.682C67.6916 167.083 68.7768 166.408 70.8529 166.408C72.929 166.408 74.0142 167.083 74.4247 167.682C74.8352 168.282 75.0665 170.292 75.0665 170.292Z" fill="#455A64"/>
<path d="M91.1186 159.515H77.2464V160.038H91.1186V159.515Z" fill="white"/>
<path d="M91.1186 164.639H77.2464V165.163H91.1186V164.639Z" fill="white"/>
<path d="M91.1186 166.149H77.2464V166.673H91.1186V166.149Z" fill="white"/>
<path d="M91.1186 167.654H77.2464V168.178H91.1186V167.654Z" fill="white"/>
<path d="M91.1186 169.164H77.2464V169.688H91.1186V169.164Z" fill="white"/>
<path d="M91.1186 170.669H77.2464V171.193H91.1186V170.669Z" fill="white"/>
<path d="M88.481 161.025H77.2464V161.548H88.481V161.025Z" fill="white"/>
<path d="M96.0553 179.345C98.2201 178.442 99.2434 175.956 98.3409 173.791C97.4385 171.626 94.9521 170.603 92.7873 171.505C90.6226 172.408 89.5992 174.894 90.5017 177.059C91.4041 179.224 93.8905 180.247 96.0553 179.345Z" fill="#09090A"/>
<path d="M96.5259 174.349H92.3171V178.171H96.5259V174.349Z" fill="white"/>
<path d="M96.1059 175.524H95.6765V173.821C95.6765 173.488 95.5443 173.169 95.3089 172.933C95.0736 172.698 94.7543 172.566 94.4214 172.566C94.0886 172.566 93.7693 172.698 93.534 172.933C93.2986 173.169 93.1663 173.488 93.1663 173.821V175.524H92.737V173.821C92.737 173.374 92.9144 172.946 93.2303 172.63C93.5462 172.314 93.9747 172.136 94.4214 172.136C94.8682 172.136 95.2967 172.314 95.6126 172.63C95.9285 172.946 96.1059 173.374 96.1059 173.821V175.524Z" fill="white"/>
<path d="M94.6008 176.303L94.7754 177.143H94.0251L94.2044 176.303C94.1495 176.268 94.1046 176.22 94.074 176.163C94.0434 176.106 94.0282 176.042 94.03 175.977C94.0318 175.912 94.0504 175.849 94.0841 175.793C94.1178 175.738 94.1653 175.692 94.2221 175.661C94.2788 175.63 94.3427 175.614 94.4075 175.614C94.4723 175.615 94.5358 175.633 94.5917 175.666C94.6476 175.699 94.6939 175.746 94.7261 175.802C94.7583 175.858 94.7753 175.922 94.7754 175.987C94.7754 176.05 94.7595 176.112 94.7289 176.167C94.6984 176.223 94.6543 176.269 94.6008 176.303Z" fill="#09090A"/>
<path d="M199.076 191.968L174.309 192.081L149.537 192.124L99.9987 192.204L50.4599 192.124L25.6929 192.081L0.921204 191.968L25.6929 191.85L50.4599 191.812L99.9987 191.732L149.537 191.812L174.309 191.855L199.076 191.968Z" fill="#09090A"/>
</svg>
