<svg xmlns="http://www.w3.org/2000/svg" version="1.1" xmlns:xlink="http://www.w3.org/1999/xlink" width="42" height="42" x="0" y="0" viewBox="0 0 48 48" style="enable-background:new 0 0 512 512" xml:space="preserve" class=""><g><g data-name="Destination Tracking"><circle cx="43" cy="43" r="4" fill="#FFFFFF" opacity="1" data-original="#000000" class=""></circle><path d="M5 12c1.18-1.4 4-5.16 4-7a4 4 0 0 0-8 0c0 1.84 2.83 5.6 4 7zm0-8a1 1 0 0 1 0 2 1 1 0 0 1 0-2zM36 42H10.5A7.5 7.5 0 0 1 3 34.5c0-3.77 2.84-7.5 8-7.5a1 1 0 0 0 0-2c-6.34 0-10 4.7-10 9.5a9.51 9.51 0 0 0 9.5 9.5H36a1 1 0 0 0 0-2z" fill="#FFFFFF" opacity="1" data-original="#000000" class=""></path><path d="M5 16c3.62 0 5.34-2.78 2.77-4.3-.39.54-1 1.29-1.24 1.58a2 2 0 0 1-3.06 0c-.29-.34-1-1.17-1.24-1.58C-.36 13.23 1.39 16 5 16zM47 17A10 10 0 0 0 37 7c-25.25 0-22.75.16-22.29-.29a1 1 0 0 0-1.42-1.42c-1.82 1.82-2.54 2.23-2.22 3.06.11.31.16.3 2.22 2.36a1 1 0 0 0 1.42-1.42C14.26 8.84 11.67 9 37 9a8 8 0 0 1 0 16 1 1 0 0 0 0 2 10 10 0 0 0 10-10zM14 18l10 5 3.75-1.87-9.69-5.16z" fill="#FFFFFF" opacity="1" data-original="#000000" class=""></path><path d="m24 13-3.75 1.87 9.69 5.16L34 18zM25 24.74v9.76l9-4.5v-9.76l-4 2V24a1 1 0 0 1-2 0v-.76zM14 30l9 4.5v-9.76l-9-4.5z" fill="#FFFFFF" opacity="1" data-original="#000000" class=""></path></g></g></svg>