<svg width="24" height="24" viewBox="0 0 24 24" fill="none" xmlns="http://www.w3.org/2000/svg">
<g clip-path="url(#clip0_3_2861)">
<path d="M4.59404 4.98403C4.7751 4.96299 4.95846 4.99183 5.12431 5.06744C5.29016 5.14305 5.43218 5.26255 5.53504 5.41303C7.01104 7.57203 8.78304 8.47003 10.75 8.67403C10.846 7.83303 11.073 7.00203 11.5 6.27003C12.126 5.19603 13.144 4.40603 14.598 4.11403C16.608 3.71003 18.138 4.43803 19.025 5.32903L20.817 4.99403C21.0046 4.95889 21.1982 4.97813 21.3752 5.04947C21.5521 5.12082 21.7049 5.24129 21.8157 5.39667C21.9264 5.55206 21.9903 5.73586 21.9999 5.9264C22.0096 6.11695 21.9645 6.30627 21.87 6.47203L20.15 9.49403C20.307 13.855 19.095 16.899 16.511 18.996C15.141 20.108 13.179 20.739 11.026 20.934C8.85604 21.13 6.40304 20.893 3.96504 20.181C3.75674 20.1203 3.57384 19.9934 3.44397 19.8196C3.31409 19.6457 3.24428 19.4344 3.24507 19.2174C3.24587 19.0004 3.31721 18.7896 3.44835 18.6167C3.57949 18.4438 3.7633 18.3183 3.97204 18.259C5.19804 17.91 6.13204 17.609 6.97504 17.082C5.77604 16.446 4.89304 15.614 4.26804 14.666C3.40004 13.348 3.07804 11.878 3.01404 10.553C2.95004 9.22803 3.14104 8.00003 3.34304 7.11503C3.45804 6.61003 3.59204 6.10403 3.77704 5.62003C3.8423 5.44942 3.95304 5.29994 4.09725 5.18782C4.24145 5.0757 4.41261 5.00522 4.59404 4.98403Z" fill="url(#paint0_linear_3_2861)"/>
</g>
<defs>
<linearGradient id="paint0_linear_3_2861" x1="12.5013" y1="3.99963" x2="12.5013" y2="21.0001" gradientUnits="userSpaceOnUse">
<stop stop-color="#005BA0"/>
<stop offset="1" stop-color="#0072A2"/>
</linearGradient>
<clipPath id="clip0_3_2861">
<rect width="24" height="24" fill="white"/>
</clipPath>
</defs>
</svg>
